<?xml version="1.0" encoding="utf-8" standalone="no"?>
<!DOCTYPE svg PUBLIC "-//W3C//DTD SVG 1.1//EN"
  "http://www.w3.org/Graphics/SVG/1.1/DTD/svg11.dtd">
<svg xmlns:xlink="http://www.w3.org/1999/xlink" width="672.84pt" height="280.512pt" viewBox="0 0 672.84 280.512" xmlns="http://www.w3.org/2000/svg" version="1.1">
 <metadata>
  <rdf:RDF xmlns:dc="http://purl.org/dc/elements/1.1/" xmlns:cc="http://creativecommons.org/ns#" xmlns:rdf="http://www.w3.org/1999/02/22-rdf-syntax-ns#">
   <cc:Work>
    <dc:type rdf:resource="http://purl.org/dc/dcmitype/StillImage"/>
    <dc:date>2026-04-18T19:01:17.063808</dc:date>
    <dc:format>image/svg+xml</dc:format>
    <dc:creator>
     <cc:Agent>
      <dc:title>Matplotlib v3.10.8, https://matplotlib.org/</dc:title>
     </cc:Agent>
    </dc:creator>
   </cc:Work>
  </rdf:RDF>
 </metadata>
 <defs>
  <style type="text/css">*{stroke-linejoin: round; stroke-linecap: butt}</style>
 </defs>
 <g id="figure_1">
  <g id="patch_1">
   <path d="M 0 280.512 
L 672.84 280.512 
L 672.84 0 
L 0 0 
L 0 280.512 
z
" style="fill: none; opacity: 0"/>
  </g>
  <g id="axes_1">
   <g id="patch_2">
    <path d="M 31.56228 251.490816 
L 641.27772 251.490816 
Q 664.32312 251.490816 664.32312 242.176896 
L 664.32312 38.335104 
Q 664.32312 29.021184 641.27772 29.021184 
L 31.56228 29.021184 
Q 8.51688 29.021184 8.51688 38.335104 
L 8.51688 242.176896 
Q 8.51688 251.490816 31.56228 251.490816 
z
" clip-path="url(#pf9d142d7a6)" style="fill: #fffdfa; stroke: #dbc7aa; stroke-width: 1.6; stroke-linejoin: miter"/>
   </g>
   <g id="patch_3">
    <path d="M 48.68172 143.449344 
L 130.32828 143.449344 
Q 146.78928 143.449344 146.78928 136.796544 
L 146.78928 95.815296 
Q 146.78928 89.162496 130.32828 89.162496 
L 48.68172 89.162496 
Q 32.22072 89.162496 32.22072 95.815296 
L 32.22072 136.796544 
Q 32.22072 143.449344 48.68172 143.449344 
z
" clip-path="url(#pf9d142d7a6)" style="fill: #3a7182"/>
   </g>
   <g id="patch_4">
    <path d="M 152.0568 116.30592 
Q 152.0568 116.30592 152.0568 116.30592 
" clip-path="url(#pf9d142d7a6)" style="fill: none; stroke: #5c696d; stroke-width: 1.8; stroke-linecap: round"/>
   </g>
   <g id="patch_5">
    <path d="M 173.78532 143.449344 
L 268.60068 143.449344 
Q 285.06168 143.449344 285.06168 136.796544 
L 285.06168 95.815296 
Q 285.06168 89.162496 268.60068 89.162496 
L 173.78532 89.162496 
Q 157.32432 89.162496 157.32432 95.815296 
L 157.32432 136.796544 
Q 157.32432 143.449344 173.78532 143.449344 
z
" clip-path="url(#pf9d142d7a6)" style="fill: #8aa07a"/>
   </g>
   <g id="patch_6">
    <path d="M 290.3292 116.30592 
Q 290.3292 116.30592 290.3292 116.30592 
" clip-path="url(#pf9d142d7a6)" style="fill: none; stroke: #5c696d; stroke-width: 1.8; stroke-linecap: round"/>
   </g>
   <g id="patch_7">
    <path d="M 312.05772 143.449344 
L 393.70428 143.449344 
Q 410.16528 143.449344 410.16528 136.796544 
L 410.16528 95.815296 
Q 410.16528 89.162496 393.70428 89.162496 
L 312.05772 89.162496 
Q 295.59672 89.162496 295.59672 95.815296 
L 295.59672 136.796544 
Q 295.59672 143.449344 312.05772 143.449344 
z
" clip-path="url(#pf9d142d7a6)" style="fill: #d26b34"/>
   </g>
   <g id="patch_8">
    <path d="M 415.4328 116.30592 
Q 415.4328 116.30592 415.4328 116.30592 
" clip-path="url(#pf9d142d7a6)" style="fill: none; stroke: #5c696d; stroke-width: 1.8; stroke-linecap: round"/>
   </g>
   <g id="patch_9">
    <path d="M 437.16132 143.449344 
L 518.80788 143.449344 
Q 535.26888 143.449344 535.26888 136.796544 
L 535.26888 95.815296 
Q 535.26888 89.162496 518.80788 89.162496 
L 437.16132 89.162496 
Q 420.70032 89.162496 420.70032 95.815296 
L 420.70032 136.796544 
Q 420.70032 143.449344 437.16132 143.449344 
z
" clip-path="url(#pf9d142d7a6)" style="fill: #9a402d"/>
   </g>
   <g id="patch_10">
    <path d="M 540.5364 116.30592 
Q 540.5364 116.30592 540.5364 116.30592 
" clip-path="url(#pf9d142d7a6)" style="fill: none; stroke: #5c696d; stroke-width: 1.8; stroke-linecap: round"/>
   </g>
   <g id="patch_11">
    <path d="M 562.26492 143.449344 
L 624.15828 143.449344 
Q 640.61928 143.449344 640.61928 136.796544 
L 640.61928 95.815296 
Q 640.61928 89.162496 624.15828 89.162496 
L 562.26492 89.162496 
Q 545.80392 89.162496 545.80392 95.815296 
L 545.80392 136.796544 
Q 545.80392 143.449344 562.26492 143.449344 
z
" clip-path="url(#pf9d142d7a6)" style="fill: #254d5a"/>
   </g>
   <g id="text_1">
    <!-- End-to-end urban heat workflow -->
    <g style="fill: #1e2a2f" transform="translate(40.122 52.43904) scale(0.17 -0.17)">
     <defs>
      <path id="Arial-BoldMT-45" d="M 466 0 
L 466 4581 
L 3863 4581 
L 3863 3806 
L 1391 3806 
L 1391 2791 
L 3691 2791 
L 3691 2019 
L 1391 2019 
L 1391 772 
L 3950 772 
L 3950 0 
L 466 0 
z
" transform="scale(0.015625)"/>
      <path id="Arial-BoldMT-6e" d="M 3478 0 
L 2600 0 
L 2600 1694 
Q 2600 2231 2544 2389 
Q 2488 2547 2361 2634 
Q 2234 2722 2056 2722 
Q 1828 2722 1647 2597 
Q 1466 2472 1398 2265 
Q 1331 2059 1331 1503 
L 1331 0 
L 453 0 
L 453 3319 
L 1269 3319 
L 1269 2831 
Q 1703 3394 2363 3394 
Q 2653 3394 2893 3289 
Q 3134 3184 3257 3021 
Q 3381 2859 3429 2653 
Q 3478 2447 3478 2063 
L 3478 0 
z
" transform="scale(0.015625)"/>
      <path id="Arial-BoldMT-64" d="M 3503 0 
L 2688 0 
L 2688 488 
Q 2484 203 2207 64 
Q 1931 -75 1650 -75 
Q 1078 -75 670 386 
Q 263 847 263 1672 
Q 263 2516 659 2955 
Q 1056 3394 1663 3394 
Q 2219 3394 2625 2931 
L 2625 4581 
L 3503 4581 
L 3503 0 
z
M 1159 1731 
Q 1159 1200 1306 963 
Q 1519 619 1900 619 
Q 2203 619 2415 876 
Q 2628 1134 2628 1647 
Q 2628 2219 2422 2470 
Q 2216 2722 1894 2722 
Q 1581 2722 1370 2473 
Q 1159 2225 1159 1731 
z
" transform="scale(0.015625)"/>
      <path id="Arial-BoldMT-2d" d="M 359 1222 
L 359 2100 
L 2084 2100 
L 2084 1222 
L 359 1222 
z
" transform="scale(0.015625)"/>
      <path id="Arial-BoldMT-74" d="M 1981 3319 
L 1981 2619 
L 1381 2619 
L 1381 1281 
Q 1381 875 1398 808 
Q 1416 741 1477 697 
Q 1538 653 1625 653 
Q 1747 653 1978 738 
L 2053 56 
Q 1747 -75 1359 -75 
Q 1122 -75 931 4 
Q 741 84 652 211 
Q 563 338 528 553 
Q 500 706 500 1172 
L 500 2619 
L 97 2619 
L 97 3319 
L 500 3319 
L 500 3978 
L 1381 4491 
L 1381 3319 
L 1981 3319 
z
" transform="scale(0.015625)"/>
      <path id="Arial-BoldMT-6f" d="M 256 1706 
Q 256 2144 472 2553 
Q 688 2963 1083 3178 
Q 1478 3394 1966 3394 
Q 2719 3394 3200 2905 
Q 3681 2416 3681 1669 
Q 3681 916 3195 420 
Q 2709 -75 1972 -75 
Q 1516 -75 1102 131 
Q 688 338 472 736 
Q 256 1134 256 1706 
z
M 1156 1659 
Q 1156 1166 1390 903 
Q 1625 641 1969 641 
Q 2313 641 2545 903 
Q 2778 1166 2778 1666 
Q 2778 2153 2545 2415 
Q 2313 2678 1969 2678 
Q 1625 2678 1390 2415 
Q 1156 2153 1156 1659 
z
" transform="scale(0.015625)"/>
      <path id="Arial-BoldMT-65" d="M 2381 1056 
L 3256 909 
Q 3088 428 2723 176 
Q 2359 -75 1813 -75 
Q 947 -75 531 491 
Q 203 944 203 1634 
Q 203 2459 634 2926 
Q 1066 3394 1725 3394 
Q 2466 3394 2894 2905 
Q 3322 2416 3303 1406 
L 1103 1406 
Q 1113 1016 1316 798 
Q 1519 581 1822 581 
Q 2028 581 2168 693 
Q 2309 806 2381 1056 
z
M 2431 1944 
Q 2422 2325 2234 2523 
Q 2047 2722 1778 2722 
Q 1491 2722 1303 2513 
Q 1116 2303 1119 1944 
L 2431 1944 
z
" transform="scale(0.015625)"/>
      <path id="Arial-BoldMT-20" transform="scale(0.015625)"/>
      <path id="Arial-BoldMT-75" d="M 2644 0 
L 2644 497 
Q 2463 231 2167 78 
Q 1872 -75 1544 -75 
Q 1209 -75 943 72 
Q 678 219 559 484 
Q 441 750 441 1219 
L 441 3319 
L 1319 3319 
L 1319 1794 
Q 1319 1094 1367 936 
Q 1416 778 1544 686 
Q 1672 594 1869 594 
Q 2094 594 2272 717 
Q 2450 841 2515 1023 
Q 2581 1206 2581 1919 
L 2581 3319 
L 3459 3319 
L 3459 0 
L 2644 0 
z
" transform="scale(0.015625)"/>
      <path id="Arial-BoldMT-72" d="M 1300 0 
L 422 0 
L 422 3319 
L 1238 3319 
L 1238 2847 
Q 1447 3181 1614 3287 
Q 1781 3394 1994 3394 
Q 2294 3394 2572 3228 
L 2300 2463 
Q 2078 2606 1888 2606 
Q 1703 2606 1575 2504 
Q 1447 2403 1373 2137 
Q 1300 1872 1300 1025 
L 1300 0 
z
" transform="scale(0.015625)"/>
      <path id="Arial-BoldMT-62" d="M 422 0 
L 422 4581 
L 1300 4581 
L 1300 2931 
Q 1706 3394 2263 3394 
Q 2869 3394 3266 2955 
Q 3663 2516 3663 1694 
Q 3663 844 3258 384 
Q 2853 -75 2275 -75 
Q 1991 -75 1714 67 
Q 1438 209 1238 488 
L 1238 0 
L 422 0 
z
M 1294 1731 
Q 1294 1216 1456 969 
Q 1684 619 2063 619 
Q 2353 619 2558 867 
Q 2763 1116 2763 1650 
Q 2763 2219 2556 2470 
Q 2350 2722 2028 2722 
Q 1713 2722 1503 2476 
Q 1294 2231 1294 1731 
z
" transform="scale(0.015625)"/>
      <path id="Arial-BoldMT-61" d="M 1116 2306 
L 319 2450 
Q 453 2931 781 3162 
Q 1109 3394 1756 3394 
Q 2344 3394 2631 3255 
Q 2919 3116 3036 2902 
Q 3153 2688 3153 2116 
L 3144 1091 
Q 3144 653 3186 445 
Q 3228 238 3344 0 
L 2475 0 
Q 2441 88 2391 259 
Q 2369 338 2359 363 
Q 2134 144 1878 34 
Q 1622 -75 1331 -75 
Q 819 -75 523 203 
Q 228 481 228 906 
Q 228 1188 362 1408 
Q 497 1628 739 1745 
Q 981 1863 1438 1950 
Q 2053 2066 2291 2166 
L 2291 2253 
Q 2291 2506 2166 2614 
Q 2041 2722 1694 2722 
Q 1459 2722 1328 2630 
Q 1197 2538 1116 2306 
z
M 2291 1594 
Q 2122 1538 1756 1459 
Q 1391 1381 1278 1306 
Q 1106 1184 1106 997 
Q 1106 813 1243 678 
Q 1381 544 1594 544 
Q 1831 544 2047 700 
Q 2206 819 2256 991 
Q 2291 1103 2291 1419 
L 2291 1594 
z
" transform="scale(0.015625)"/>
      <path id="Arial-BoldMT-68" d="M 1334 4581 
L 1334 2897 
Q 1759 3394 2350 3394 
Q 2653 3394 2897 3281 
Q 3141 3169 3264 2994 
Q 3388 2819 3433 2606 
Q 3478 2394 3478 1947 
L 3478 0 
L 2600 0 
L 2600 1753 
Q 2600 2275 2550 2415 
Q 2500 2556 2373 2639 
Q 2247 2722 2056 2722 
Q 1838 2722 1666 2615 
Q 1494 2509 1414 2295 
Q 1334 2081 1334 1663 
L 1334 0 
L 456 0 
L 456 4581 
L 1334 4581 
z
" transform="scale(0.015625)"/>
      <path id="Arial-BoldMT-77" d="M 1078 0 
L 28 3319 
L 881 3319 
L 1503 1144 
L 2075 3319 
L 2922 3319 
L 3475 1144 
L 4109 3319 
L 4975 3319 
L 3909 0 
L 3066 0 
L 2494 2134 
L 1931 0 
L 1078 0 
z
" transform="scale(0.015625)"/>
      <path id="Arial-BoldMT-6b" d="M 428 0 
L 428 4581 
L 1306 4581 
L 1306 2150 
L 2334 3319 
L 3416 3319 
L 2281 2106 
L 3497 0 
L 2550 0 
L 1716 1491 
L 1306 1063 
L 1306 0 
L 428 0 
z
" transform="scale(0.015625)"/>
      <path id="Arial-BoldMT-66" d="M 75 3319 
L 563 3319 
L 563 3569 
Q 563 3988 652 4194 
Q 741 4400 980 4529 
Q 1219 4659 1584 4659 
Q 1959 4659 2319 4547 
L 2200 3934 
Q 1991 3984 1797 3984 
Q 1606 3984 1523 3895 
Q 1441 3806 1441 3553 
L 1441 3319 
L 2097 3319 
L 2097 2628 
L 1441 2628 
L 1441 0 
L 563 0 
L 563 2628 
L 75 2628 
L 75 3319 
z
" transform="scale(0.015625)"/>
      <path id="Arial-BoldMT-6c" d="M 459 0 
L 459 4581 
L 1338 4581 
L 1338 0 
L 459 0 
z
" transform="scale(0.015625)"/>
     </defs>
     <use xlink:href="#Arial-BoldMT-45"/>
     <use xlink:href="#Arial-BoldMT-6e" transform="translate(66.699219 0)"/>
     <use xlink:href="#Arial-BoldMT-64" transform="translate(127.783203 0)"/>
     <use xlink:href="#Arial-BoldMT-2d" transform="translate(188.867188 0)"/>
     <use xlink:href="#Arial-BoldMT-74" transform="translate(222.167969 0)"/>
     <use xlink:href="#Arial-BoldMT-6f" transform="translate(255.46875 0)"/>
     <use xlink:href="#Arial-BoldMT-2d" transform="translate(316.552734 0)"/>
     <use xlink:href="#Arial-BoldMT-65" transform="translate(349.853516 0)"/>
     <use xlink:href="#Arial-BoldMT-6e" transform="translate(405.46875 0)"/>
     <use xlink:href="#Arial-BoldMT-64" transform="translate(466.552734 0)"/>
     <use xlink:href="#Arial-BoldMT-20" transform="translate(527.636719 0)"/>
     <use xlink:href="#Arial-BoldMT-75" transform="translate(555.419922 0)"/>
     <use xlink:href="#Arial-BoldMT-72" transform="translate(616.503906 0)"/>
     <use xlink:href="#Arial-BoldMT-62" transform="translate(655.419922 0)"/>
     <use xlink:href="#Arial-BoldMT-61" transform="translate(716.503906 0)"/>
     <use xlink:href="#Arial-BoldMT-6e" transform="translate(772.119141 0)"/>
     <use xlink:href="#Arial-BoldMT-20" transform="translate(833.203125 0)"/>
     <use xlink:href="#Arial-BoldMT-68" transform="translate(860.986328 0)"/>
     <use xlink:href="#Arial-BoldMT-65" transform="translate(922.070312 0)"/>
     <use xlink:href="#Arial-BoldMT-61" transform="translate(977.685547 0)"/>
     <use xlink:href="#Arial-BoldMT-74" transform="translate(1033.300781 0)"/>
     <use xlink:href="#Arial-BoldMT-20" transform="translate(1066.601562 0)"/>
     <use xlink:href="#Arial-BoldMT-77" transform="translate(1094.384766 0)"/>
     <use xlink:href="#Arial-BoldMT-6f" transform="translate(1172.167969 0)"/>
     <use xlink:href="#Arial-BoldMT-72" transform="translate(1233.251953 0)"/>
     <use xlink:href="#Arial-BoldMT-6b" transform="translate(1272.167969 0)"/>
     <use xlink:href="#Arial-BoldMT-66" transform="translate(1327.783203 0)"/>
     <use xlink:href="#Arial-BoldMT-6c" transform="translate(1361.083984 0)"/>
     <use xlink:href="#Arial-BoldMT-6f" transform="translate(1388.867188 0)"/>
     <use xlink:href="#Arial-BoldMT-77" transform="translate(1449.951172 0)"/>
    </g>
   </g>
   <g id="text_2">
    <!-- Build city cells, attach heat predictors, audit labels, then test hotspot prediction in unseen cities. -->
    <g style="fill: #5c696d" transform="translate(40.122 68.40576) scale(0.122 -0.122)">
     <defs>
      <path id="ArialMT-42" d="M 469 0 
L 469 4581 
L 2188 4581 
Q 2713 4581 3030 4442 
Q 3347 4303 3526 4014 
Q 3706 3725 3706 3409 
Q 3706 3116 3547 2856 
Q 3388 2597 3066 2438 
Q 3481 2316 3704 2022 
Q 3928 1728 3928 1328 
Q 3928 1006 3792 729 
Q 3656 453 3456 303 
Q 3256 153 2954 76 
Q 2653 0 2216 0 
L 469 0 
z
M 1075 2656 
L 2066 2656 
Q 2469 2656 2644 2709 
Q 2875 2778 2992 2937 
Q 3109 3097 3109 3338 
Q 3109 3566 3000 3739 
Q 2891 3913 2687 3977 
Q 2484 4041 1991 4041 
L 1075 4041 
L 1075 2656 
z
M 1075 541 
L 2216 541 
Q 2509 541 2628 563 
Q 2838 600 2978 687 
Q 3119 775 3209 942 
Q 3300 1109 3300 1328 
Q 3300 1584 3169 1773 
Q 3038 1963 2805 2039 
Q 2572 2116 2134 2116 
L 1075 2116 
L 1075 541 
z
" transform="scale(0.015625)"/>
      <path id="ArialMT-75" d="M 2597 0 
L 2597 488 
Q 2209 -75 1544 -75 
Q 1250 -75 995 37 
Q 741 150 617 320 
Q 494 491 444 738 
Q 409 903 409 1263 
L 409 3319 
L 972 3319 
L 972 1478 
Q 972 1038 1006 884 
Q 1059 663 1231 536 
Q 1403 409 1656 409 
Q 1909 409 2131 539 
Q 2353 669 2445 892 
Q 2538 1116 2538 1541 
L 2538 3319 
L 3100 3319 
L 3100 0 
L 2597 0 
z
" transform="scale(0.015625)"/>
      <path id="ArialMT-69" d="M 425 3934 
L 425 4581 
L 988 4581 
L 988 3934 
L 425 3934 
z
M 425 0 
L 425 3319 
L 988 3319 
L 988 0 
L 425 0 
z
" transform="scale(0.015625)"/>
      <path id="ArialMT-6c" d="M 409 0 
L 409 4581 
L 972 4581 
L 972 0 
L 409 0 
z
" transform="scale(0.015625)"/>
      <path id="ArialMT-64" d="M 2575 0 
L 2575 419 
Q 2259 -75 1647 -75 
Q 1250 -75 917 144 
Q 584 363 401 755 
Q 219 1147 219 1656 
Q 219 2153 384 2558 
Q 550 2963 881 3178 
Q 1213 3394 1622 3394 
Q 1922 3394 2156 3267 
Q 2391 3141 2538 2938 
L 2538 4581 
L 3097 4581 
L 3097 0 
L 2575 0 
z
M 797 1656 
Q 797 1019 1065 703 
Q 1334 388 1700 388 
Q 2069 388 2326 689 
Q 2584 991 2584 1609 
Q 2584 2291 2321 2609 
Q 2059 2928 1675 2928 
Q 1300 2928 1048 2622 
Q 797 2316 797 1656 
z
" transform="scale(0.015625)"/>
      <path id="ArialMT-20" transform="scale(0.015625)"/>
      <path id="ArialMT-63" d="M 2588 1216 
L 3141 1144 
Q 3050 572 2676 248 
Q 2303 -75 1759 -75 
Q 1078 -75 664 370 
Q 250 816 250 1647 
Q 250 2184 428 2587 
Q 606 2991 970 3192 
Q 1334 3394 1763 3394 
Q 2303 3394 2647 3120 
Q 2991 2847 3088 2344 
L 2541 2259 
Q 2463 2594 2264 2762 
Q 2066 2931 1784 2931 
Q 1359 2931 1093 2626 
Q 828 2322 828 1663 
Q 828 994 1084 691 
Q 1341 388 1753 388 
Q 2084 388 2306 591 
Q 2528 794 2588 1216 
z
" transform="scale(0.015625)"/>
      <path id="ArialMT-74" d="M 1650 503 
L 1731 6 
Q 1494 -44 1306 -44 
Q 1000 -44 831 53 
Q 663 150 594 308 
Q 525 466 525 972 
L 525 2881 
L 113 2881 
L 113 3319 
L 525 3319 
L 525 4141 
L 1084 4478 
L 1084 3319 
L 1650 3319 
L 1650 2881 
L 1084 2881 
L 1084 941 
Q 1084 700 1114 631 
Q 1144 563 1211 522 
Q 1278 481 1403 481 
Q 1497 481 1650 503 
z
" transform="scale(0.015625)"/>
      <path id="ArialMT-79" d="M 397 -1278 
L 334 -750 
Q 519 -800 656 -800 
Q 844 -800 956 -737 
Q 1069 -675 1141 -563 
Q 1194 -478 1313 -144 
Q 1328 -97 1363 -6 
L 103 3319 
L 709 3319 
L 1400 1397 
Q 1534 1031 1641 628 
Q 1738 1016 1872 1384 
L 2581 3319 
L 3144 3319 
L 1881 -56 
Q 1678 -603 1566 -809 
Q 1416 -1088 1222 -1217 
Q 1028 -1347 759 -1347 
Q 597 -1347 397 -1278 
z
" transform="scale(0.015625)"/>
      <path id="ArialMT-65" d="M 2694 1069 
L 3275 997 
Q 3138 488 2766 206 
Q 2394 -75 1816 -75 
Q 1088 -75 661 373 
Q 234 822 234 1631 
Q 234 2469 665 2931 
Q 1097 3394 1784 3394 
Q 2450 3394 2872 2941 
Q 3294 2488 3294 1666 
Q 3294 1616 3291 1516 
L 816 1516 
Q 847 969 1125 678 
Q 1403 388 1819 388 
Q 2128 388 2347 550 
Q 2566 713 2694 1069 
z
M 847 1978 
L 2700 1978 
Q 2663 2397 2488 2606 
Q 2219 2931 1791 2931 
Q 1403 2931 1139 2672 
Q 875 2413 847 1978 
z
" transform="scale(0.015625)"/>
      <path id="ArialMT-73" d="M 197 991 
L 753 1078 
Q 800 744 1014 566 
Q 1228 388 1613 388 
Q 2000 388 2187 545 
Q 2375 703 2375 916 
Q 2375 1106 2209 1216 
Q 2094 1291 1634 1406 
Q 1016 1563 777 1677 
Q 538 1791 414 1992 
Q 291 2194 291 2438 
Q 291 2659 392 2848 
Q 494 3038 669 3163 
Q 800 3259 1026 3326 
Q 1253 3394 1513 3394 
Q 1903 3394 2198 3281 
Q 2494 3169 2634 2976 
Q 2775 2784 2828 2463 
L 2278 2388 
Q 2241 2644 2061 2787 
Q 1881 2931 1553 2931 
Q 1166 2931 1000 2803 
Q 834 2675 834 2503 
Q 834 2394 903 2306 
Q 972 2216 1119 2156 
Q 1203 2125 1616 2013 
Q 2213 1853 2448 1751 
Q 2684 1650 2818 1456 
Q 2953 1263 2953 975 
Q 2953 694 2789 445 
Q 2625 197 2315 61 
Q 2006 -75 1616 -75 
Q 969 -75 630 194 
Q 291 463 197 991 
z
" transform="scale(0.015625)"/>
      <path id="ArialMT-2c" d="M 569 0 
L 569 641 
L 1209 641 
L 1209 0 
Q 1209 -353 1084 -570 
Q 959 -788 688 -906 
L 531 -666 
Q 709 -588 793 -436 
Q 878 -284 888 0 
L 569 0 
z
" transform="scale(0.015625)"/>
      <path id="ArialMT-61" d="M 2588 409 
Q 2275 144 1986 34 
Q 1697 -75 1366 -75 
Q 819 -75 525 192 
Q 231 459 231 875 
Q 231 1119 342 1320 
Q 453 1522 633 1644 
Q 813 1766 1038 1828 
Q 1203 1872 1538 1913 
Q 2219 1994 2541 2106 
Q 2544 2222 2544 2253 
Q 2544 2597 2384 2738 
Q 2169 2928 1744 2928 
Q 1347 2928 1158 2789 
Q 969 2650 878 2297 
L 328 2372 
Q 403 2725 575 2942 
Q 747 3159 1072 3276 
Q 1397 3394 1825 3394 
Q 2250 3394 2515 3294 
Q 2781 3194 2906 3042 
Q 3031 2891 3081 2659 
Q 3109 2516 3109 2141 
L 3109 1391 
Q 3109 606 3145 398 
Q 3181 191 3288 0 
L 2700 0 
Q 2613 175 2588 409 
z
M 2541 1666 
Q 2234 1541 1622 1453 
Q 1275 1403 1131 1340 
Q 988 1278 909 1158 
Q 831 1038 831 891 
Q 831 666 1001 516 
Q 1172 366 1500 366 
Q 1825 366 2078 508 
Q 2331 650 2450 897 
Q 2541 1088 2541 1459 
L 2541 1666 
z
" transform="scale(0.015625)"/>
      <path id="ArialMT-68" d="M 422 0 
L 422 4581 
L 984 4581 
L 984 2938 
Q 1378 3394 1978 3394 
Q 2347 3394 2619 3248 
Q 2891 3103 3008 2847 
Q 3125 2591 3125 2103 
L 3125 0 
L 2563 0 
L 2563 2103 
Q 2563 2525 2380 2717 
Q 2197 2909 1863 2909 
Q 1613 2909 1392 2779 
Q 1172 2650 1078 2428 
Q 984 2206 984 1816 
L 984 0 
L 422 0 
z
" transform="scale(0.015625)"/>
      <path id="ArialMT-70" d="M 422 -1272 
L 422 3319 
L 934 3319 
L 934 2888 
Q 1116 3141 1344 3267 
Q 1572 3394 1897 3394 
Q 2322 3394 2647 3175 
Q 2972 2956 3137 2557 
Q 3303 2159 3303 1684 
Q 3303 1175 3120 767 
Q 2938 359 2589 142 
Q 2241 -75 1856 -75 
Q 1575 -75 1351 44 
Q 1128 163 984 344 
L 984 -1272 
L 422 -1272 
z
M 931 1641 
Q 931 1000 1190 694 
Q 1450 388 1819 388 
Q 2194 388 2461 705 
Q 2728 1022 2728 1688 
Q 2728 2322 2467 2637 
Q 2206 2953 1844 2953 
Q 1484 2953 1207 2617 
Q 931 2281 931 1641 
z
" transform="scale(0.015625)"/>
      <path id="ArialMT-72" d="M 416 0 
L 416 3319 
L 922 3319 
L 922 2816 
Q 1116 3169 1280 3281 
Q 1444 3394 1641 3394 
Q 1925 3394 2219 3213 
L 2025 2691 
Q 1819 2813 1613 2813 
Q 1428 2813 1281 2702 
Q 1134 2591 1072 2394 
Q 978 2094 978 1738 
L 978 0 
L 416 0 
z
" transform="scale(0.015625)"/>
      <path id="ArialMT-6f" d="M 213 1659 
Q 213 2581 725 3025 
Q 1153 3394 1769 3394 
Q 2453 3394 2887 2945 
Q 3322 2497 3322 1706 
Q 3322 1066 3130 698 
Q 2938 331 2570 128 
Q 2203 -75 1769 -75 
Q 1072 -75 642 372 
Q 213 819 213 1659 
z
M 791 1659 
Q 791 1022 1069 705 
Q 1347 388 1769 388 
Q 2188 388 2466 706 
Q 2744 1025 2744 1678 
Q 2744 2294 2464 2611 
Q 2184 2928 1769 2928 
Q 1347 2928 1069 2612 
Q 791 2297 791 1659 
z
" transform="scale(0.015625)"/>
      <path id="ArialMT-62" d="M 941 0 
L 419 0 
L 419 4581 
L 981 4581 
L 981 2947 
Q 1338 3394 1891 3394 
Q 2197 3394 2470 3270 
Q 2744 3147 2920 2923 
Q 3097 2700 3197 2384 
Q 3297 2069 3297 1709 
Q 3297 856 2875 390 
Q 2453 -75 1863 -75 
Q 1275 -75 941 416 
L 941 0 
z
M 934 1684 
Q 934 1088 1097 822 
Q 1363 388 1816 388 
Q 2184 388 2453 708 
Q 2722 1028 2722 1663 
Q 2722 2313 2464 2622 
Q 2206 2931 1841 2931 
Q 1472 2931 1203 2611 
Q 934 2291 934 1684 
z
" transform="scale(0.015625)"/>
      <path id="ArialMT-6e" d="M 422 0 
L 422 3319 
L 928 3319 
L 928 2847 
Q 1294 3394 1984 3394 
Q 2284 3394 2536 3286 
Q 2788 3178 2913 3003 
Q 3038 2828 3088 2588 
Q 3119 2431 3119 2041 
L 3119 0 
L 2556 0 
L 2556 2019 
Q 2556 2363 2490 2533 
Q 2425 2703 2258 2804 
Q 2091 2906 1866 2906 
Q 1506 2906 1245 2678 
Q 984 2450 984 1813 
L 984 0 
L 422 0 
z
" transform="scale(0.015625)"/>
      <path id="ArialMT-2e" d="M 581 0 
L 581 641 
L 1222 641 
L 1222 0 
L 581 0 
z
" transform="scale(0.015625)"/>
     </defs>
     <use xlink:href="#ArialMT-42"/>
     <use xlink:href="#ArialMT-75" transform="translate(66.699219 0)"/>
     <use xlink:href="#ArialMT-69" transform="translate(122.314453 0)"/>
     <use xlink:href="#ArialMT-6c" transform="translate(144.53125 0)"/>
     <use xlink:href="#ArialMT-64" transform="translate(166.748047 0)"/>
     <use xlink:href="#ArialMT-20" transform="translate(222.363281 0)"/>
     <use xlink:href="#ArialMT-63" transform="translate(250.146484 0)"/>
     <use xlink:href="#ArialMT-69" transform="translate(300.146484 0)"/>
     <use xlink:href="#ArialMT-74" transform="translate(322.363281 0)"/>
     <use xlink:href="#ArialMT-79" transform="translate(350.146484 0)"/>
     <use xlink:href="#ArialMT-20" transform="translate(400.146484 0)"/>
     <use xlink:href="#ArialMT-63" transform="translate(427.929688 0)"/>
     <use xlink:href="#ArialMT-65" transform="translate(477.929688 0)"/>
     <use xlink:href="#ArialMT-6c" transform="translate(533.544922 0)"/>
     <use xlink:href="#ArialMT-6c" transform="translate(555.761719 0)"/>
     <use xlink:href="#ArialMT-73" transform="translate(577.978516 0)"/>
     <use xlink:href="#ArialMT-2c" transform="translate(627.978516 0)"/>
     <use xlink:href="#ArialMT-20" transform="translate(655.761719 0)"/>
     <use xlink:href="#ArialMT-61" transform="translate(683.544922 0)"/>
     <use xlink:href="#ArialMT-74" transform="translate(739.160156 0)"/>
     <use xlink:href="#ArialMT-74" transform="translate(766.943359 0)"/>
     <use xlink:href="#ArialMT-61" transform="translate(794.726562 0)"/>
     <use xlink:href="#ArialMT-63" transform="translate(850.341797 0)"/>
     <use xlink:href="#ArialMT-68" transform="translate(900.341797 0)"/>
     <use xlink:href="#ArialMT-20" transform="translate(955.957031 0)"/>
     <use xlink:href="#ArialMT-68" transform="translate(983.740234 0)"/>
     <use xlink:href="#ArialMT-65" transform="translate(1039.355469 0)"/>
     <use xlink:href="#ArialMT-61" transform="translate(1094.970703 0)"/>
     <use xlink:href="#ArialMT-74" transform="translate(1150.585938 0)"/>
     <use xlink:href="#ArialMT-20" transform="translate(1178.369141 0)"/>
     <use xlink:href="#ArialMT-70" transform="translate(1206.152344 0)"/>
     <use xlink:href="#ArialMT-72" transform="translate(1261.767578 0)"/>
     <use xlink:href="#ArialMT-65" transform="translate(1295.068359 0)"/>
     <use xlink:href="#ArialMT-64" transform="translate(1350.683594 0)"/>
     <use xlink:href="#ArialMT-69" transform="translate(1406.298828 0)"/>
     <use xlink:href="#ArialMT-63" transform="translate(1428.515625 0)"/>
     <use xlink:href="#ArialMT-74" transform="translate(1478.515625 0)"/>
     <use xlink:href="#ArialMT-6f" transform="translate(1506.298828 0)"/>
     <use xlink:href="#ArialMT-72" transform="translate(1561.914062 0)"/>
     <use xlink:href="#ArialMT-73" transform="translate(1595.214844 0)"/>
     <use xlink:href="#ArialMT-2c" transform="translate(1645.214844 0)"/>
     <use xlink:href="#ArialMT-20" transform="translate(1672.998047 0)"/>
     <use xlink:href="#ArialMT-61" transform="translate(1700.78125 0)"/>
     <use xlink:href="#ArialMT-75" transform="translate(1756.396484 0)"/>
     <use xlink:href="#ArialMT-64" transform="translate(1812.011719 0)"/>
     <use xlink:href="#ArialMT-69" transform="translate(1867.626953 0)"/>
     <use xlink:href="#ArialMT-74" transform="translate(1889.84375 0)"/>
     <use xlink:href="#ArialMT-20" transform="translate(1917.626953 0)"/>
     <use xlink:href="#ArialMT-6c" transform="translate(1945.410156 0)"/>
     <use xlink:href="#ArialMT-61" transform="translate(1967.626953 0)"/>
     <use xlink:href="#ArialMT-62" transform="translate(2023.242188 0)"/>
     <use xlink:href="#ArialMT-65" transform="translate(2078.857422 0)"/>
     <use xlink:href="#ArialMT-6c" transform="translate(2134.472656 0)"/>
     <use xlink:href="#ArialMT-73" transform="translate(2156.689453 0)"/>
     <use xlink:href="#ArialMT-2c" transform="translate(2206.689453 0)"/>
     <use xlink:href="#ArialMT-20" transform="translate(2234.472656 0)"/>
     <use xlink:href="#ArialMT-74" transform="translate(2262.255859 0)"/>
     <use xlink:href="#ArialMT-68" transform="translate(2290.039062 0)"/>
     <use xlink:href="#ArialMT-65" transform="translate(2345.654297 0)"/>
     <use xlink:href="#ArialMT-6e" transform="translate(2401.269531 0)"/>
     <use xlink:href="#ArialMT-20" transform="translate(2456.884766 0)"/>
     <use xlink:href="#ArialMT-74" transform="translate(2484.667969 0)"/>
     <use xlink:href="#ArialMT-65" transform="translate(2512.451172 0)"/>
     <use xlink:href="#ArialMT-73" transform="translate(2568.066406 0)"/>
     <use xlink:href="#ArialMT-74" transform="translate(2618.066406 0)"/>
     <use xlink:href="#ArialMT-20" transform="translate(2645.849609 0)"/>
     <use xlink:href="#ArialMT-68" transform="translate(2673.632812 0)"/>
     <use xlink:href="#ArialMT-6f" transform="translate(2729.248047 0)"/>
     <use xlink:href="#ArialMT-74" transform="translate(2784.863281 0)"/>
     <use xlink:href="#ArialMT-73" transform="translate(2812.646484 0)"/>
     <use xlink:href="#ArialMT-70" transform="translate(2862.646484 0)"/>
     <use xlink:href="#ArialMT-6f" transform="translate(2918.261719 0)"/>
     <use xlink:href="#ArialMT-74" transform="translate(2973.876953 0)"/>
     <use xlink:href="#ArialMT-20" transform="translate(3001.660156 0)"/>
     <use xlink:href="#ArialMT-70" transform="translate(3029.443359 0)"/>
     <use xlink:href="#ArialMT-72" transform="translate(3085.058594 0)"/>
     <use xlink:href="#ArialMT-65" transform="translate(3118.359375 0)"/>
     <use xlink:href="#ArialMT-64" transform="translate(3173.974609 0)"/>
     <use xlink:href="#ArialMT-69" transform="translate(3229.589844 0)"/>
     <use xlink:href="#ArialMT-63" transform="translate(3251.806641 0)"/>
     <use xlink:href="#ArialMT-74" transform="translate(3301.806641 0)"/>
     <use xlink:href="#ArialMT-69" transform="translate(3329.589844 0)"/>
     <use xlink:href="#ArialMT-6f" transform="translate(3351.806641 0)"/>
     <use xlink:href="#ArialMT-6e" transform="translate(3407.421875 0)"/>
     <use xlink:href="#ArialMT-20" transform="translate(3463.037109 0)"/>
     <use xlink:href="#ArialMT-69" transform="translate(3490.820312 0)"/>
     <use xlink:href="#ArialMT-6e" transform="translate(3513.037109 0)"/>
     <use xlink:href="#ArialMT-20" transform="translate(3568.652344 0)"/>
     <use xlink:href="#ArialMT-75" transform="translate(3596.435547 0)"/>
     <use xlink:href="#ArialMT-6e" transform="translate(3652.050781 0)"/>
     <use xlink:href="#ArialMT-73" transform="translate(3707.666016 0)"/>
     <use xlink:href="#ArialMT-65" transform="translate(3757.666016 0)"/>
     <use xlink:href="#ArialMT-65" transform="translate(3813.28125 0)"/>
     <use xlink:href="#ArialMT-6e" transform="translate(3868.896484 0)"/>
     <use xlink:href="#ArialMT-20" transform="translate(3924.511719 0)"/>
     <use xlink:href="#ArialMT-63" transform="translate(3952.294922 0)"/>
     <use xlink:href="#ArialMT-69" transform="translate(4002.294922 0)"/>
     <use xlink:href="#ArialMT-74" transform="translate(4024.511719 0)"/>
     <use xlink:href="#ArialMT-69" transform="translate(4052.294922 0)"/>
     <use xlink:href="#ArialMT-65" transform="translate(4074.511719 0)"/>
     <use xlink:href="#ArialMT-73" transform="translate(4130.126953 0)"/>
     <use xlink:href="#ArialMT-2e" transform="translate(4180.126953 0)"/>
    </g>
   </g>
   <g id="text_3">
    <!-- Urban areas -->
    <g style="fill: #fffdfa" transform="translate(53.088047 112.812373) scale(0.126 -0.126)">
     <defs>
      <path id="Arial-BoldMT-55" d="M 459 4581 
L 1384 4581 
L 1384 2100 
Q 1384 1509 1419 1334 
Q 1478 1053 1701 883 
Q 1925 713 2313 713 
Q 2706 713 2906 873 
Q 3106 1034 3147 1268 
Q 3188 1503 3188 2047 
L 3188 4581 
L 4113 4581 
L 4113 2175 
Q 4113 1350 4038 1009 
Q 3963 669 3761 434 
Q 3559 200 3221 61 
Q 2884 -78 2341 -78 
Q 1684 -78 1345 73 
Q 1006 225 809 467 
Q 613 709 550 975 
Q 459 1369 459 2138 
L 459 4581 
z
" transform="scale(0.015625)"/>
      <path id="Arial-BoldMT-73" d="M 150 947 
L 1031 1081 
Q 1088 825 1259 692 
Q 1431 559 1741 559 
Q 2081 559 2253 684 
Q 2369 772 2369 919 
Q 2369 1019 2306 1084 
Q 2241 1147 2013 1200 
Q 950 1434 666 1628 
Q 272 1897 272 2375 
Q 272 2806 612 3100 
Q 953 3394 1669 3394 
Q 2350 3394 2681 3172 
Q 3013 2950 3138 2516 
L 2309 2363 
Q 2256 2556 2107 2659 
Q 1959 2763 1684 2763 
Q 1338 2763 1188 2666 
Q 1088 2597 1088 2488 
Q 1088 2394 1175 2328 
Q 1294 2241 1995 2081 
Q 2697 1922 2975 1691 
Q 3250 1456 3250 1038 
Q 3250 581 2869 253 
Q 2488 -75 1741 -75 
Q 1063 -75 667 200 
Q 272 475 150 947 
z
" transform="scale(0.015625)"/>
     </defs>
     <use xlink:href="#Arial-BoldMT-55"/>
     <use xlink:href="#Arial-BoldMT-72" transform="translate(72.216797 0)"/>
     <use xlink:href="#Arial-BoldMT-62" transform="translate(111.132812 0)"/>
     <use xlink:href="#Arial-BoldMT-61" transform="translate(172.216797 0)"/>
     <use xlink:href="#Arial-BoldMT-6e" transform="translate(227.832031 0)"/>
     <use xlink:href="#Arial-BoldMT-20" transform="translate(288.916016 0)"/>
     <use xlink:href="#Arial-BoldMT-61" transform="translate(316.699219 0)"/>
     <use xlink:href="#Arial-BoldMT-72" transform="translate(372.314453 0)"/>
     <use xlink:href="#Arial-BoldMT-65" transform="translate(411.230469 0)"/>
     <use xlink:href="#Arial-BoldMT-61" transform="translate(466.845703 0)"/>
     <use xlink:href="#Arial-BoldMT-73" transform="translate(522.460938 0)"/>
    </g>
    <!-- + 30 m grids -->
    <g style="fill: #fffdfa" transform="translate(52.564359 126.166404) scale(0.126 -0.126)">
     <defs>
      <path id="Arial-BoldMT-2b" d="M 1466 659 
L 1466 1850 
L 266 1850 
L 266 2672 
L 1466 2672 
L 1466 3863 
L 2266 3863 
L 2266 2672 
L 3469 2672 
L 3469 1850 
L 2266 1850 
L 2266 659 
L 1466 659 
z
" transform="scale(0.015625)"/>
      <path id="Arial-BoldMT-33" d="M 241 1216 
L 1091 1319 
Q 1131 994 1309 822 
Q 1488 650 1741 650 
Q 2013 650 2198 856 
Q 2384 1063 2384 1413 
Q 2384 1744 2206 1937 
Q 2028 2131 1772 2131 
Q 1603 2131 1369 2066 
L 1466 2781 
Q 1822 2772 2009 2936 
Q 2197 3100 2197 3372 
Q 2197 3603 2059 3740 
Q 1922 3878 1694 3878 
Q 1469 3878 1309 3722 
Q 1150 3566 1116 3266 
L 306 3403 
Q 391 3819 561 4067 
Q 731 4316 1036 4458 
Q 1341 4600 1719 4600 
Q 2366 4600 2756 4188 
Q 3078 3850 3078 3425 
Q 3078 2822 2419 2463 
Q 2813 2378 3048 2084 
Q 3284 1791 3284 1375 
Q 3284 772 2843 347 
Q 2403 -78 1747 -78 
Q 1125 -78 715 280 
Q 306 638 241 1216 
z
" transform="scale(0.015625)"/>
      <path id="Arial-BoldMT-30" d="M 1756 4600 
Q 2422 4600 2797 4125 
Q 3244 3563 3244 2259 
Q 3244 959 2794 391 
Q 2422 -78 1756 -78 
Q 1088 -78 678 436 
Q 269 950 269 2269 
Q 269 3563 719 4131 
Q 1091 4600 1756 4600 
z
M 1756 3872 
Q 1597 3872 1472 3770 
Q 1347 3669 1278 3406 
Q 1188 3066 1188 2259 
Q 1188 1453 1269 1151 
Q 1350 850 1473 750 
Q 1597 650 1756 650 
Q 1916 650 2041 751 
Q 2166 853 2234 1116 
Q 2325 1453 2325 2259 
Q 2325 3066 2244 3367 
Q 2163 3669 2039 3770 
Q 1916 3872 1756 3872 
z
" transform="scale(0.015625)"/>
      <path id="Arial-BoldMT-6d" d="M 394 3319 
L 1203 3319 
L 1203 2866 
Q 1638 3394 2238 3394 
Q 2556 3394 2790 3262 
Q 3025 3131 3175 2866 
Q 3394 3131 3647 3262 
Q 3900 3394 4188 3394 
Q 4553 3394 4806 3245 
Q 5059 3097 5184 2809 
Q 5275 2597 5275 2122 
L 5275 0 
L 4397 0 
L 4397 1897 
Q 4397 2391 4306 2534 
Q 4184 2722 3931 2722 
Q 3747 2722 3584 2609 
Q 3422 2497 3350 2280 
Q 3278 2063 3278 1594 
L 3278 0 
L 2400 0 
L 2400 1819 
Q 2400 2303 2353 2443 
Q 2306 2584 2207 2653 
Q 2109 2722 1941 2722 
Q 1738 2722 1575 2612 
Q 1413 2503 1342 2297 
Q 1272 2091 1272 1613 
L 1272 0 
L 394 0 
L 394 3319 
z
" transform="scale(0.015625)"/>
      <path id="Arial-BoldMT-67" d="M 378 -219 
L 1381 -341 
Q 1406 -516 1497 -581 
Q 1622 -675 1891 -675 
Q 2234 -675 2406 -572 
Q 2522 -503 2581 -350 
Q 2622 -241 2622 53 
L 2622 538 
Q 2228 0 1628 0 
Q 959 0 569 566 
Q 263 1013 263 1678 
Q 263 2513 664 2953 
Q 1066 3394 1663 3394 
Q 2278 3394 2678 2853 
L 2678 3319 
L 3500 3319 
L 3500 341 
Q 3500 -247 3403 -537 
Q 3306 -828 3131 -993 
Q 2956 -1159 2664 -1253 
Q 2372 -1347 1925 -1347 
Q 1081 -1347 728 -1058 
Q 375 -769 375 -325 
Q 375 -281 378 -219 
z
M 1163 1728 
Q 1163 1200 1367 954 
Q 1572 709 1872 709 
Q 2194 709 2416 961 
Q 2638 1213 2638 1706 
Q 2638 2222 2425 2472 
Q 2213 2722 1888 2722 
Q 1572 2722 1367 2476 
Q 1163 2231 1163 1728 
z
" transform="scale(0.015625)"/>
      <path id="Arial-BoldMT-69" d="M 459 3769 
L 459 4581 
L 1338 4581 
L 1338 3769 
L 459 3769 
z
M 459 0 
L 459 3319 
L 1338 3319 
L 1338 0 
L 459 0 
z
" transform="scale(0.015625)"/>
     </defs>
     <use xlink:href="#Arial-BoldMT-2b"/>
     <use xlink:href="#Arial-BoldMT-20" transform="translate(58.398438 0)"/>
     <use xlink:href="#Arial-BoldMT-33" transform="translate(86.181641 0)"/>
     <use xlink:href="#Arial-BoldMT-30" transform="translate(141.796875 0)"/>
     <use xlink:href="#Arial-BoldMT-20" transform="translate(197.412109 0)"/>
     <use xlink:href="#Arial-BoldMT-6d" transform="translate(225.195312 0)"/>
     <use xlink:href="#Arial-BoldMT-20" transform="translate(314.111328 0)"/>
     <use xlink:href="#Arial-BoldMT-67" transform="translate(341.894531 0)"/>
     <use xlink:href="#Arial-BoldMT-72" transform="translate(402.978516 0)"/>
     <use xlink:href="#Arial-BoldMT-69" transform="translate(441.894531 0)"/>
     <use xlink:href="#Arial-BoldMT-64" transform="translate(469.677734 0)"/>
     <use xlink:href="#Arial-BoldMT-73" transform="translate(530.761719 0)"/>
    </g>
   </g>
   <g id="text_4">
    <!-- Satellite + -->
    <g style="fill: #fffdfa" transform="translate(191.604656 112.834817) scale(0.126 -0.126)">
     <defs>
      <path id="Arial-BoldMT-53" d="M 231 1491 
L 1131 1578 
Q 1213 1125 1461 912 
Q 1709 700 2131 700 
Q 2578 700 2804 889 
Q 3031 1078 3031 1331 
Q 3031 1494 2936 1608 
Q 2841 1722 2603 1806 
Q 2441 1863 1863 2006 
Q 1119 2191 819 2459 
Q 397 2838 397 3381 
Q 397 3731 595 4036 
Q 794 4341 1167 4500 
Q 1541 4659 2069 4659 
Q 2931 4659 3367 4281 
Q 3803 3903 3825 3272 
L 2900 3231 
Q 2841 3584 2645 3739 
Q 2450 3894 2059 3894 
Q 1656 3894 1428 3728 
Q 1281 3622 1281 3444 
Q 1281 3281 1419 3166 
Q 1594 3019 2269 2859 
Q 2944 2700 3267 2529 
Q 3591 2359 3773 2064 
Q 3956 1769 3956 1334 
Q 3956 941 3737 597 
Q 3519 253 3119 86 
Q 2719 -81 2122 -81 
Q 1253 -81 787 320 
Q 322 722 231 1491 
z
" transform="scale(0.015625)"/>
     </defs>
     <use xlink:href="#Arial-BoldMT-53"/>
     <use xlink:href="#Arial-BoldMT-61" transform="translate(66.699219 0)"/>
     <use xlink:href="#Arial-BoldMT-74" transform="translate(122.314453 0)"/>
     <use xlink:href="#Arial-BoldMT-65" transform="translate(155.615234 0)"/>
     <use xlink:href="#Arial-BoldMT-6c" transform="translate(211.230469 0)"/>
     <use xlink:href="#Arial-BoldMT-6c" transform="translate(239.013672 0)"/>
     <use xlink:href="#Arial-BoldMT-69" transform="translate(266.796875 0)"/>
     <use xlink:href="#Arial-BoldMT-74" transform="translate(294.580078 0)"/>
     <use xlink:href="#Arial-BoldMT-65" transform="translate(327.880859 0)"/>
     <use xlink:href="#Arial-BoldMT-20" transform="translate(383.496094 0)"/>
     <use xlink:href="#Arial-BoldMT-2b" transform="translate(411.279297 0)"/>
    </g>
    <!-- support layers -->
    <g style="fill: #fffdfa" transform="translate(177.782062 126.143961) scale(0.126 -0.126)">
     <defs>
      <path id="Arial-BoldMT-70" d="M 434 3319 
L 1253 3319 
L 1253 2831 
Q 1413 3081 1684 3237 
Q 1956 3394 2288 3394 
Q 2866 3394 3269 2941 
Q 3672 2488 3672 1678 
Q 3672 847 3265 386 
Q 2859 -75 2281 -75 
Q 2006 -75 1782 34 
Q 1559 144 1313 409 
L 1313 -1263 
L 434 -1263 
L 434 3319 
z
M 1303 1716 
Q 1303 1156 1525 889 
Q 1747 622 2066 622 
Q 2372 622 2575 867 
Q 2778 1113 2778 1672 
Q 2778 2194 2568 2447 
Q 2359 2700 2050 2700 
Q 1728 2700 1515 2451 
Q 1303 2203 1303 1716 
z
" transform="scale(0.015625)"/>
      <path id="Arial-BoldMT-79" d="M 44 3319 
L 978 3319 
L 1772 963 
L 2547 3319 
L 3456 3319 
L 2284 125 
L 2075 -453 
Q 1959 -744 1854 -897 
Q 1750 -1050 1614 -1145 
Q 1478 -1241 1279 -1294 
Q 1081 -1347 831 -1347 
Q 578 -1347 334 -1294 
L 256 -606 
Q 463 -647 628 -647 
Q 934 -647 1081 -467 
Q 1228 -288 1306 -9 
L 44 3319 
z
" transform="scale(0.015625)"/>
     </defs>
     <use xlink:href="#Arial-BoldMT-73"/>
     <use xlink:href="#Arial-BoldMT-75" transform="translate(55.615234 0)"/>
     <use xlink:href="#Arial-BoldMT-70" transform="translate(116.699219 0)"/>
     <use xlink:href="#Arial-BoldMT-70" transform="translate(177.783203 0)"/>
     <use xlink:href="#Arial-BoldMT-6f" transform="translate(238.867188 0)"/>
     <use xlink:href="#Arial-BoldMT-72" transform="translate(299.951172 0)"/>
     <use xlink:href="#Arial-BoldMT-74" transform="translate(338.867188 0)"/>
     <use xlink:href="#Arial-BoldMT-20" transform="translate(372.167969 0)"/>
     <use xlink:href="#Arial-BoldMT-6c" transform="translate(399.951172 0)"/>
     <use xlink:href="#Arial-BoldMT-61" transform="translate(427.734375 0)"/>
     <use xlink:href="#Arial-BoldMT-79" transform="translate(483.349609 0)"/>
     <use xlink:href="#Arial-BoldMT-65" transform="translate(538.964844 0)"/>
     <use xlink:href="#Arial-BoldMT-72" transform="translate(594.580078 0)"/>
     <use xlink:href="#Arial-BoldMT-73" transform="translate(633.496094 0)"/>
    </g>
   </g>
   <g id="text_5">
    <!-- City feature -->
    <g style="fill: #fffdfa" transform="translate(318.224109 112.828911) scale(0.126 -0.126)">
     <defs>
      <path id="Arial-BoldMT-43" d="M 3397 1684 
L 4294 1400 
Q 4088 650 3608 286 
Q 3128 -78 2391 -78 
Q 1478 -78 890 545 
Q 303 1169 303 2250 
Q 303 3394 893 4026 
Q 1484 4659 2447 4659 
Q 3288 4659 3813 4163 
Q 4125 3869 4281 3319 
L 3366 3100 
Q 3284 3456 3026 3662 
Q 2769 3869 2400 3869 
Q 1891 3869 1573 3503 
Q 1256 3138 1256 2319 
Q 1256 1450 1568 1081 
Q 1881 713 2381 713 
Q 2750 713 3015 947 
Q 3281 1181 3397 1684 
z
" transform="scale(0.015625)"/>
     </defs>
     <use xlink:href="#Arial-BoldMT-43"/>
     <use xlink:href="#Arial-BoldMT-69" transform="translate(72.216797 0)"/>
     <use xlink:href="#Arial-BoldMT-74" transform="translate(100 0)"/>
     <use xlink:href="#Arial-BoldMT-79" transform="translate(133.300781 0)"/>
     <use xlink:href="#Arial-BoldMT-20" transform="translate(188.916016 0)"/>
     <use xlink:href="#Arial-BoldMT-66" transform="translate(216.699219 0)"/>
     <use xlink:href="#Arial-BoldMT-65" transform="translate(250 0)"/>
     <use xlink:href="#Arial-BoldMT-61" transform="translate(305.615234 0)"/>
     <use xlink:href="#Arial-BoldMT-74" transform="translate(361.230469 0)"/>
     <use xlink:href="#Arial-BoldMT-75" transform="translate(394.53125 0)"/>
     <use xlink:href="#Arial-BoldMT-72" transform="translate(455.615234 0)"/>
     <use xlink:href="#Arial-BoldMT-65" transform="translate(494.53125 0)"/>
    </g>
    <!-- assembly -->
    <g style="fill: #fffdfa" transform="translate(324.163828 126.303429) scale(0.126 -0.126)">
     <use xlink:href="#Arial-BoldMT-61"/>
     <use xlink:href="#Arial-BoldMT-73" transform="translate(55.615234 0)"/>
     <use xlink:href="#Arial-BoldMT-73" transform="translate(111.230469 0)"/>
     <use xlink:href="#Arial-BoldMT-65" transform="translate(166.845703 0)"/>
     <use xlink:href="#Arial-BoldMT-6d" transform="translate(222.460938 0)"/>
     <use xlink:href="#Arial-BoldMT-62" transform="translate(311.376953 0)"/>
     <use xlink:href="#Arial-BoldMT-6c" transform="translate(372.460938 0)"/>
     <use xlink:href="#Arial-BoldMT-79" transform="translate(400.244141 0)"/>
    </g>
   </g>
   <g id="text_6">
    <!-- Hotspot labels -->
    <g style="fill: #fffdfa" transform="translate(434.583506 112.917504) scale(0.126 -0.126)">
     <defs>
      <path id="Arial-BoldMT-48" d="M 469 0 
L 469 4581 
L 1394 4581 
L 1394 2778 
L 3206 2778 
L 3206 4581 
L 4131 4581 
L 4131 0 
L 3206 0 
L 3206 2003 
L 1394 2003 
L 1394 0 
L 469 0 
z
" transform="scale(0.015625)"/>
     </defs>
     <use xlink:href="#Arial-BoldMT-48"/>
     <use xlink:href="#Arial-BoldMT-6f" transform="translate(72.216797 0)"/>
     <use xlink:href="#Arial-BoldMT-74" transform="translate(133.300781 0)"/>
     <use xlink:href="#Arial-BoldMT-73" transform="translate(166.601562 0)"/>
     <use xlink:href="#Arial-BoldMT-70" transform="translate(222.216797 0)"/>
     <use xlink:href="#Arial-BoldMT-6f" transform="translate(283.300781 0)"/>
     <use xlink:href="#Arial-BoldMT-74" transform="translate(344.384766 0)"/>
     <use xlink:href="#Arial-BoldMT-20" transform="translate(377.685547 0)"/>
     <use xlink:href="#Arial-BoldMT-6c" transform="translate(405.46875 0)"/>
     <use xlink:href="#Arial-BoldMT-61" transform="translate(433.251953 0)"/>
     <use xlink:href="#Arial-BoldMT-62" transform="translate(488.867188 0)"/>
     <use xlink:href="#Arial-BoldMT-65" transform="translate(549.951172 0)"/>
     <use xlink:href="#Arial-BoldMT-6c" transform="translate(605.566406 0)"/>
     <use xlink:href="#Arial-BoldMT-73" transform="translate(633.349609 0)"/>
    </g>
    <!-- + audit -->
    <g style="fill: #fffdfa" transform="translate(457.507631 126.226648) scale(0.126 -0.126)">
     <use xlink:href="#Arial-BoldMT-2b"/>
     <use xlink:href="#Arial-BoldMT-20" transform="translate(58.398438 0)"/>
     <use xlink:href="#Arial-BoldMT-61" transform="translate(86.181641 0)"/>
     <use xlink:href="#Arial-BoldMT-75" transform="translate(141.796875 0)"/>
     <use xlink:href="#Arial-BoldMT-64" transform="translate(202.880859 0)"/>
     <use xlink:href="#Arial-BoldMT-69" transform="translate(263.964844 0)"/>
     <use xlink:href="#Arial-BoldMT-74" transform="translate(291.748047 0)"/>
    </g>
   </g>
   <g id="text_7">
    <!-- Unseen-city -->
    <g style="fill: #fffdfa" transform="translate(557.503397 112.834817) scale(0.126 -0.126)">
     <defs>
      <path id="Arial-BoldMT-63" d="M 3353 2338 
L 2488 2181 
Q 2444 2441 2289 2572 
Q 2134 2703 1888 2703 
Q 1559 2703 1364 2476 
Q 1169 2250 1169 1719 
Q 1169 1128 1367 884 
Q 1566 641 1900 641 
Q 2150 641 2309 783 
Q 2469 925 2534 1272 
L 3397 1125 
Q 3263 531 2881 228 
Q 2500 -75 1859 -75 
Q 1131 -75 698 384 
Q 266 844 266 1656 
Q 266 2478 700 2936 
Q 1134 3394 1875 3394 
Q 2481 3394 2839 3133 
Q 3197 2872 3353 2338 
z
" transform="scale(0.015625)"/>
     </defs>
     <use xlink:href="#Arial-BoldMT-55"/>
     <use xlink:href="#Arial-BoldMT-6e" transform="translate(72.216797 0)"/>
     <use xlink:href="#Arial-BoldMT-73" transform="translate(133.300781 0)"/>
     <use xlink:href="#Arial-BoldMT-65" transform="translate(188.916016 0)"/>
     <use xlink:href="#Arial-BoldMT-65" transform="translate(244.53125 0)"/>
     <use xlink:href="#Arial-BoldMT-6e" transform="translate(300.146484 0)"/>
     <use xlink:href="#Arial-BoldMT-2d" transform="translate(361.230469 0)"/>
     <use xlink:href="#Arial-BoldMT-63" transform="translate(394.53125 0)"/>
     <use xlink:href="#Arial-BoldMT-69" transform="translate(450.146484 0)"/>
     <use xlink:href="#Arial-BoldMT-74" transform="translate(477.929688 0)"/>
     <use xlink:href="#Arial-BoldMT-79" transform="translate(511.230469 0)"/>
    </g>
    <!-- models -->
    <g style="fill: #fffdfa" transform="translate(571.156678 126.309336) scale(0.126 -0.126)">
     <use xlink:href="#Arial-BoldMT-6d"/>
     <use xlink:href="#Arial-BoldMT-6f" transform="translate(88.916016 0)"/>
     <use xlink:href="#Arial-BoldMT-64" transform="translate(150 0)"/>
     <use xlink:href="#Arial-BoldMT-65" transform="translate(211.083984 0)"/>
     <use xlink:href="#Arial-BoldMT-6c" transform="translate(266.699219 0)"/>
     <use xlink:href="#Arial-BoldMT-73" transform="translate(294.482422 0)"/>
    </g>
   </g>
   <g id="text_8">
    <!-- 30 -->
    <g style="fill: #1e2a2f" transform="translate(55.893819 190.81728) scale(0.19 -0.19)">
     <use xlink:href="#Arial-BoldMT-33"/>
     <use xlink:href="#Arial-BoldMT-30" transform="translate(55.615234 0)"/>
    </g>
   </g>
   <g id="text_9">
    <!-- cities -->
    <g style="fill: #5c696d" transform="translate(54.384709 206.784) scale(0.106 -0.106)">
     <use xlink:href="#ArialMT-63"/>
     <use xlink:href="#ArialMT-69" transform="translate(50 0)"/>
     <use xlink:href="#ArialMT-74" transform="translate(72.216797 0)"/>
     <use xlink:href="#ArialMT-69" transform="translate(100 0)"/>
     <use xlink:href="#ArialMT-65" transform="translate(122.216797 0)"/>
     <use xlink:href="#ArialMT-73" transform="translate(177.832031 0)"/>
    </g>
   </g>
   <g id="text_10">
    <!-- 71.4M -->
    <g style="fill: #1e2a2f" transform="translate(151.993306 190.81728) scale(0.19 -0.19)">
     <defs>
      <path id="Arial-BoldMT-37" d="M 272 3703 
L 272 4519 
L 3275 4519 
L 3275 3881 
Q 2903 3516 2518 2831 
Q 2134 2147 1932 1376 
Q 1731 606 1734 0 
L 888 0 
Q 909 950 1279 1937 
Q 1650 2925 2269 3703 
L 272 3703 
z
" transform="scale(0.015625)"/>
      <path id="Arial-BoldMT-31" d="M 2519 0 
L 1641 0 
L 1641 3309 
Q 1159 2859 506 2644 
L 506 3441 
Q 850 3553 1253 3867 
Q 1656 4181 1806 4600 
L 2519 4600 
L 2519 0 
z
" transform="scale(0.015625)"/>
      <path id="Arial-BoldMT-2e" d="M 459 0 
L 459 878 
L 1338 878 
L 1338 0 
L 459 0 
z
" transform="scale(0.015625)"/>
      <path id="Arial-BoldMT-34" d="M 1994 0 
L 1994 922 
L 119 922 
L 119 1691 
L 2106 4600 
L 2844 4600 
L 2844 1694 
L 3413 1694 
L 3413 922 
L 2844 922 
L 2844 0 
L 1994 0 
z
M 1994 1694 
L 1994 3259 
L 941 1694 
L 1994 1694 
z
" transform="scale(0.015625)"/>
      <path id="Arial-BoldMT-4d" d="M 453 0 
L 453 4581 
L 1838 4581 
L 2669 1456 
L 3491 4581 
L 4878 4581 
L 4878 0 
L 4019 0 
L 4019 3606 
L 3109 0 
L 2219 0 
L 1313 3606 
L 1313 0 
L 453 0 
z
" transform="scale(0.015625)"/>
     </defs>
     <use xlink:href="#Arial-BoldMT-37"/>
     <use xlink:href="#Arial-BoldMT-31" transform="translate(55.615234 0)"/>
     <use xlink:href="#Arial-BoldMT-2e" transform="translate(111.230469 0)"/>
     <use xlink:href="#Arial-BoldMT-34" transform="translate(139.013672 0)"/>
     <use xlink:href="#Arial-BoldMT-4d" transform="translate(194.628906 0)"/>
    </g>
   </g>
   <g id="text_11">
    <!-- filtered cells -->
    <g style="fill: #5c696d" transform="translate(150.412884 206.784) scale(0.106 -0.106)">
     <defs>
      <path id="ArialMT-66" d="M 556 0 
L 556 2881 
L 59 2881 
L 59 3319 
L 556 3319 
L 556 3672 
Q 556 4006 616 4169 
Q 697 4388 901 4523 
Q 1106 4659 1475 4659 
Q 1713 4659 2000 4603 
L 1916 4113 
Q 1741 4144 1584 4144 
Q 1328 4144 1222 4034 
Q 1116 3925 1116 3625 
L 1116 3319 
L 1763 3319 
L 1763 2881 
L 1116 2881 
L 1116 0 
L 556 0 
z
" transform="scale(0.015625)"/>
     </defs>
     <use xlink:href="#ArialMT-66"/>
     <use xlink:href="#ArialMT-69" transform="translate(27.783203 0)"/>
     <use xlink:href="#ArialMT-6c" transform="translate(50 0)"/>
     <use xlink:href="#ArialMT-74" transform="translate(72.216797 0)"/>
     <use xlink:href="#ArialMT-65" transform="translate(100 0)"/>
     <use xlink:href="#ArialMT-72" transform="translate(155.615234 0)"/>
     <use xlink:href="#ArialMT-65" transform="translate(188.916016 0)"/>
     <use xlink:href="#ArialMT-64" transform="translate(244.53125 0)"/>
     <use xlink:href="#ArialMT-20" transform="translate(300.146484 0)"/>
     <use xlink:href="#ArialMT-63" transform="translate(327.929688 0)"/>
     <use xlink:href="#ArialMT-65" transform="translate(377.929688 0)"/>
     <use xlink:href="#ArialMT-6c" transform="translate(433.544922 0)"/>
     <use xlink:href="#ArialMT-6c" transform="translate(455.761719 0)"/>
     <use xlink:href="#ArialMT-73" transform="translate(477.978516 0)"/>
    </g>
   </g>
   <g id="text_12">
    <!-- 17 -->
    <g style="fill: #1e2a2f" transform="translate(279.763419 190.81728) scale(0.19 -0.19)">
     <use xlink:href="#Arial-BoldMT-31"/>
     <use xlink:href="#Arial-BoldMT-37" transform="translate(55.615234 0)"/>
    </g>
   </g>
   <g id="text_13">
    <!-- columns -->
    <g style="fill: #5c696d" transform="translate(270.594981 206.784) scale(0.106 -0.106)">
     <defs>
      <path id="ArialMT-6d" d="M 422 0 
L 422 3319 
L 925 3319 
L 925 2853 
Q 1081 3097 1340 3245 
Q 1600 3394 1931 3394 
Q 2300 3394 2536 3241 
Q 2772 3088 2869 2813 
Q 3263 3394 3894 3394 
Q 4388 3394 4653 3120 
Q 4919 2847 4919 2278 
L 4919 0 
L 4359 0 
L 4359 2091 
Q 4359 2428 4304 2576 
Q 4250 2725 4106 2815 
Q 3963 2906 3769 2906 
Q 3419 2906 3187 2673 
Q 2956 2441 2956 1928 
L 2956 0 
L 2394 0 
L 2394 2156 
Q 2394 2531 2256 2718 
Q 2119 2906 1806 2906 
Q 1569 2906 1367 2781 
Q 1166 2656 1075 2415 
Q 984 2175 984 1722 
L 984 0 
L 422 0 
z
" transform="scale(0.015625)"/>
     </defs>
     <use xlink:href="#ArialMT-63"/>
     <use xlink:href="#ArialMT-6f" transform="translate(50 0)"/>
     <use xlink:href="#ArialMT-6c" transform="translate(105.615234 0)"/>
     <use xlink:href="#ArialMT-75" transform="translate(127.832031 0)"/>
     <use xlink:href="#ArialMT-6d" transform="translate(183.447266 0)"/>
     <use xlink:href="#ArialMT-6e" transform="translate(266.748047 0)"/>
     <use xlink:href="#ArialMT-73" transform="translate(322.363281 0)"/>
    </g>
   </g>
   <g id="text_14">
    <!-- 6 -->
    <g style="fill: #1e2a2f" transform="translate(396.981109 190.81728) scale(0.19 -0.19)">
     <defs>
      <path id="Arial-BoldMT-36" d="M 3247 3459 
L 2397 3366 
Q 2366 3628 2234 3753 
Q 2103 3878 1894 3878 
Q 1616 3878 1423 3628 
Q 1231 3378 1181 2588 
Q 1509 2975 1997 2975 
Q 2547 2975 2939 2556 
Q 3331 2138 3331 1475 
Q 3331 772 2918 347 
Q 2506 -78 1859 -78 
Q 1166 -78 719 461 
Q 272 1000 272 2228 
Q 272 3488 737 4044 
Q 1203 4600 1947 4600 
Q 2469 4600 2811 4308 
Q 3153 4016 3247 3459 
z
M 1256 1544 
Q 1256 1116 1453 883 
Q 1650 650 1903 650 
Q 2147 650 2309 840 
Q 2472 1031 2472 1466 
Q 2472 1913 2297 2120 
Q 2122 2328 1859 2328 
Q 1606 2328 1431 2129 
Q 1256 1931 1256 1544 
z
" transform="scale(0.015625)"/>
     </defs>
     <use xlink:href="#Arial-BoldMT-36"/>
    </g>
   </g>
   <g id="text_15">
    <!-- first-pass predictors -->
    <g style="fill: #5c696d" transform="translate(356.026469 206.784) scale(0.106 -0.106)">
     <defs>
      <path id="ArialMT-2d" d="M 203 1375 
L 203 1941 
L 1931 1941 
L 1931 1375 
L 203 1375 
z
" transform="scale(0.015625)"/>
     </defs>
     <use xlink:href="#ArialMT-66"/>
     <use xlink:href="#ArialMT-69" transform="translate(27.783203 0)"/>
     <use xlink:href="#ArialMT-72" transform="translate(50 0)"/>
     <use xlink:href="#ArialMT-73" transform="translate(83.300781 0)"/>
     <use xlink:href="#ArialMT-74" transform="translate(133.300781 0)"/>
     <use xlink:href="#ArialMT-2d" transform="translate(161.083984 0)"/>
     <use xlink:href="#ArialMT-70" transform="translate(194.384766 0)"/>
     <use xlink:href="#ArialMT-61" transform="translate(250 0)"/>
     <use xlink:href="#ArialMT-73" transform="translate(305.615234 0)"/>
     <use xlink:href="#ArialMT-73" transform="translate(355.615234 0)"/>
     <use xlink:href="#ArialMT-20" transform="translate(405.615234 0)"/>
     <use xlink:href="#ArialMT-70" transform="translate(433.398438 0)"/>
     <use xlink:href="#ArialMT-72" transform="translate(489.013672 0)"/>
     <use xlink:href="#ArialMT-65" transform="translate(522.314453 0)"/>
     <use xlink:href="#ArialMT-64" transform="translate(577.929688 0)"/>
     <use xlink:href="#ArialMT-69" transform="translate(633.544922 0)"/>
     <use xlink:href="#ArialMT-63" transform="translate(655.761719 0)"/>
     <use xlink:href="#ArialMT-74" transform="translate(705.761719 0)"/>
     <use xlink:href="#ArialMT-6f" transform="translate(733.544922 0)"/>
     <use xlink:href="#ArialMT-72" transform="translate(789.160156 0)"/>
     <use xlink:href="#ArialMT-73" transform="translate(822.460938 0)"/>
    </g>
   </g>
   <g id="text_16">
    <!-- 5 x 6 -->
    <g style="fill: #1e2a2f" transform="translate(493.071691 190.81728) scale(0.19 -0.19)">
     <defs>
      <path id="Arial-BoldMT-35" d="M 284 1178 
L 1159 1269 
Q 1197 972 1381 798 
Q 1566 625 1806 625 
Q 2081 625 2272 848 
Q 2463 1072 2463 1522 
Q 2463 1944 2273 2155 
Q 2084 2366 1781 2366 
Q 1403 2366 1103 2031 
L 391 2134 
L 841 4519 
L 3163 4519 
L 3163 3697 
L 1506 3697 
L 1369 2919 
Q 1663 3066 1969 3066 
Q 2553 3066 2959 2641 
Q 3366 2216 3366 1538 
Q 3366 972 3038 528 
Q 2591 -78 1797 -78 
Q 1163 -78 763 262 
Q 363 603 284 1178 
z
" transform="scale(0.015625)"/>
      <path id="Arial-BoldMT-78" d="M 38 0 
L 1234 1709 
L 88 3319 
L 1159 3319 
L 1747 2406 
L 2366 3319 
L 3397 3319 
L 2272 1747 
L 3500 0 
L 2422 0 
L 1747 1028 
L 1066 0 
L 38 0 
z
" transform="scale(0.015625)"/>
     </defs>
     <use xlink:href="#Arial-BoldMT-35"/>
     <use xlink:href="#Arial-BoldMT-20" transform="translate(55.615234 0)"/>
     <use xlink:href="#Arial-BoldMT-78" transform="translate(83.398438 0)"/>
     <use xlink:href="#Arial-BoldMT-20" transform="translate(139.013672 0)"/>
     <use xlink:href="#Arial-BoldMT-36" transform="translate(166.796875 0)"/>
    </g>
   </g>
   <g id="text_17">
    <!-- outer folds x held out -->
    <g style="fill: #5c696d" transform="translate(464.999066 206.784) scale(0.106 -0.106)">
     <defs>
      <path id="ArialMT-78" d="M 47 0 
L 1259 1725 
L 138 3319 
L 841 3319 
L 1350 2541 
Q 1494 2319 1581 2169 
Q 1719 2375 1834 2534 
L 2394 3319 
L 3066 3319 
L 1919 1756 
L 3153 0 
L 2463 0 
L 1781 1031 
L 1600 1309 
L 728 0 
L 47 0 
z
" transform="scale(0.015625)"/>
     </defs>
     <use xlink:href="#ArialMT-6f"/>
     <use xlink:href="#ArialMT-75" transform="translate(55.615234 0)"/>
     <use xlink:href="#ArialMT-74" transform="translate(111.230469 0)"/>
     <use xlink:href="#ArialMT-65" transform="translate(139.013672 0)"/>
     <use xlink:href="#ArialMT-72" transform="translate(194.628906 0)"/>
     <use xlink:href="#ArialMT-20" transform="translate(227.929688 0)"/>
     <use xlink:href="#ArialMT-66" transform="translate(255.712891 0)"/>
     <use xlink:href="#ArialMT-6f" transform="translate(283.496094 0)"/>
     <use xlink:href="#ArialMT-6c" transform="translate(339.111328 0)"/>
     <use xlink:href="#ArialMT-64" transform="translate(361.328125 0)"/>
     <use xlink:href="#ArialMT-73" transform="translate(416.943359 0)"/>
     <use xlink:href="#ArialMT-20" transform="translate(466.943359 0)"/>
     <use xlink:href="#ArialMT-78" transform="translate(494.726562 0)"/>
     <use xlink:href="#ArialMT-20" transform="translate(544.726562 0)"/>
     <use xlink:href="#ArialMT-68" transform="translate(572.509766 0)"/>
     <use xlink:href="#ArialMT-65" transform="translate(628.125 0)"/>
     <use xlink:href="#ArialMT-6c" transform="translate(683.740234 0)"/>
     <use xlink:href="#ArialMT-64" transform="translate(705.957031 0)"/>
     <use xlink:href="#ArialMT-20" transform="translate(761.572266 0)"/>
     <use xlink:href="#ArialMT-6f" transform="translate(789.355469 0)"/>
     <use xlink:href="#ArialMT-75" transform="translate(844.970703 0)"/>
     <use xlink:href="#ArialMT-74" transform="translate(900.585938 0)"/>
    </g>
   </g>
   <g id="text_18">
    <!-- One reproducible path connects raw geospatial inputs to held-out-city hotspot maps. -->
    <g style="fill: #5c696d" transform="translate(134.45515 236.05632) scale(0.112 -0.112)">
     <defs>
      <path id="ArialMT-4f" d="M 309 2231 
Q 309 3372 921 4017 
Q 1534 4663 2503 4663 
Q 3138 4663 3647 4359 
Q 4156 4056 4423 3514 
Q 4691 2972 4691 2284 
Q 4691 1588 4409 1038 
Q 4128 488 3612 205 
Q 3097 -78 2500 -78 
Q 1853 -78 1343 234 
Q 834 547 571 1087 
Q 309 1628 309 2231 
z
M 934 2222 
Q 934 1394 1379 917 
Q 1825 441 2497 441 
Q 3181 441 3623 922 
Q 4066 1403 4066 2288 
Q 4066 2847 3877 3264 
Q 3688 3681 3323 3911 
Q 2959 4141 2506 4141 
Q 1863 4141 1398 3698 
Q 934 3256 934 2222 
z
" transform="scale(0.015625)"/>
      <path id="ArialMT-77" d="M 1034 0 
L 19 3319 
L 600 3319 
L 1128 1403 
L 1325 691 
Q 1338 744 1497 1375 
L 2025 3319 
L 2603 3319 
L 3100 1394 
L 3266 759 
L 3456 1400 
L 4025 3319 
L 4572 3319 
L 3534 0 
L 2950 0 
L 2422 1988 
L 2294 2553 
L 1622 0 
L 1034 0 
z
" transform="scale(0.015625)"/>
      <path id="ArialMT-67" d="M 319 -275 
L 866 -356 
Q 900 -609 1056 -725 
Q 1266 -881 1628 -881 
Q 2019 -881 2231 -725 
Q 2444 -569 2519 -288 
Q 2563 -116 2559 434 
Q 2191 0 1641 0 
Q 956 0 581 494 
Q 206 988 206 1678 
Q 206 2153 378 2554 
Q 550 2956 876 3175 
Q 1203 3394 1644 3394 
Q 2231 3394 2613 2919 
L 2613 3319 
L 3131 3319 
L 3131 450 
Q 3131 -325 2973 -648 
Q 2816 -972 2473 -1159 
Q 2131 -1347 1631 -1347 
Q 1038 -1347 672 -1080 
Q 306 -813 319 -275 
z
M 784 1719 
Q 784 1066 1043 766 
Q 1303 466 1694 466 
Q 2081 466 2343 764 
Q 2606 1063 2606 1700 
Q 2606 2309 2336 2618 
Q 2066 2928 1684 2928 
Q 1309 2928 1046 2623 
Q 784 2319 784 1719 
z
" transform="scale(0.015625)"/>
     </defs>
     <use xlink:href="#ArialMT-4f"/>
     <use xlink:href="#ArialMT-6e" transform="translate(77.783203 0)"/>
     <use xlink:href="#ArialMT-65" transform="translate(133.398438 0)"/>
     <use xlink:href="#ArialMT-20" transform="translate(189.013672 0)"/>
     <use xlink:href="#ArialMT-72" transform="translate(216.796875 0)"/>
     <use xlink:href="#ArialMT-65" transform="translate(250.097656 0)"/>
     <use xlink:href="#ArialMT-70" transform="translate(305.712891 0)"/>
     <use xlink:href="#ArialMT-72" transform="translate(361.328125 0)"/>
     <use xlink:href="#ArialMT-6f" transform="translate(394.628906 0)"/>
     <use xlink:href="#ArialMT-64" transform="translate(450.244141 0)"/>
     <use xlink:href="#ArialMT-75" transform="translate(505.859375 0)"/>
     <use xlink:href="#ArialMT-63" transform="translate(561.474609 0)"/>
     <use xlink:href="#ArialMT-69" transform="translate(611.474609 0)"/>
     <use xlink:href="#ArialMT-62" transform="translate(633.691406 0)"/>
     <use xlink:href="#ArialMT-6c" transform="translate(689.306641 0)"/>
     <use xlink:href="#ArialMT-65" transform="translate(711.523438 0)"/>
     <use xlink:href="#ArialMT-20" transform="translate(767.138672 0)"/>
     <use xlink:href="#ArialMT-70" transform="translate(794.921875 0)"/>
     <use xlink:href="#ArialMT-61" transform="translate(850.537109 0)"/>
     <use xlink:href="#ArialMT-74" transform="translate(906.152344 0)"/>
     <use xlink:href="#ArialMT-68" transform="translate(933.935547 0)"/>
     <use xlink:href="#ArialMT-20" transform="translate(989.550781 0)"/>
     <use xlink:href="#ArialMT-63" transform="translate(1017.333984 0)"/>
     <use xlink:href="#ArialMT-6f" transform="translate(1067.333984 0)"/>
     <use xlink:href="#ArialMT-6e" transform="translate(1122.949219 0)"/>
     <use xlink:href="#ArialMT-6e" transform="translate(1178.564453 0)"/>
     <use xlink:href="#ArialMT-65" transform="translate(1234.179688 0)"/>
     <use xlink:href="#ArialMT-63" transform="translate(1289.794922 0)"/>
     <use xlink:href="#ArialMT-74" transform="translate(1339.794922 0)"/>
     <use xlink:href="#ArialMT-73" transform="translate(1367.578125 0)"/>
     <use xlink:href="#ArialMT-20" transform="translate(1417.578125 0)"/>
     <use xlink:href="#ArialMT-72" transform="translate(1445.361328 0)"/>
     <use xlink:href="#ArialMT-61" transform="translate(1478.662109 0)"/>
     <use xlink:href="#ArialMT-77" transform="translate(1534.277344 0)"/>
     <use xlink:href="#ArialMT-20" transform="translate(1606.494141 0)"/>
     <use xlink:href="#ArialMT-67" transform="translate(1634.277344 0)"/>
     <use xlink:href="#ArialMT-65" transform="translate(1689.892578 0)"/>
     <use xlink:href="#ArialMT-6f" transform="translate(1745.507812 0)"/>
     <use xlink:href="#ArialMT-73" transform="translate(1801.123047 0)"/>
     <use xlink:href="#ArialMT-70" transform="translate(1851.123047 0)"/>
     <use xlink:href="#ArialMT-61" transform="translate(1906.738281 0)"/>
     <use xlink:href="#ArialMT-74" transform="translate(1962.353516 0)"/>
     <use xlink:href="#ArialMT-69" transform="translate(1990.136719 0)"/>
     <use xlink:href="#ArialMT-61" transform="translate(2012.353516 0)"/>
     <use xlink:href="#ArialMT-6c" transform="translate(2067.96875 0)"/>
     <use xlink:href="#ArialMT-20" transform="translate(2090.185547 0)"/>
     <use xlink:href="#ArialMT-69" transform="translate(2117.96875 0)"/>
     <use xlink:href="#ArialMT-6e" transform="translate(2140.185547 0)"/>
     <use xlink:href="#ArialMT-70" transform="translate(2195.800781 0)"/>
     <use xlink:href="#ArialMT-75" transform="translate(2251.416016 0)"/>
     <use xlink:href="#ArialMT-74" transform="translate(2307.03125 0)"/>
     <use xlink:href="#ArialMT-73" transform="translate(2334.814453 0)"/>
     <use xlink:href="#ArialMT-20" transform="translate(2384.814453 0)"/>
     <use xlink:href="#ArialMT-74" transform="translate(2412.597656 0)"/>
     <use xlink:href="#ArialMT-6f" transform="translate(2440.380859 0)"/>
     <use xlink:href="#ArialMT-20" transform="translate(2495.996094 0)"/>
     <use xlink:href="#ArialMT-68" transform="translate(2523.779297 0)"/>
     <use xlink:href="#ArialMT-65" transform="translate(2579.394531 0)"/>
     <use xlink:href="#ArialMT-6c" transform="translate(2635.009766 0)"/>
     <use xlink:href="#ArialMT-64" transform="translate(2657.226562 0)"/>
     <use xlink:href="#ArialMT-2d" transform="translate(2712.841797 0)"/>
     <use xlink:href="#ArialMT-6f" transform="translate(2746.142578 0)"/>
     <use xlink:href="#ArialMT-75" transform="translate(2801.757812 0)"/>
     <use xlink:href="#ArialMT-74" transform="translate(2857.373047 0)"/>
     <use xlink:href="#ArialMT-2d" transform="translate(2885.15625 0)"/>
     <use xlink:href="#ArialMT-63" transform="translate(2918.457031 0)"/>
     <use xlink:href="#ArialMT-69" transform="translate(2968.457031 0)"/>
     <use xlink:href="#ArialMT-74" transform="translate(2990.673828 0)"/>
     <use xlink:href="#ArialMT-79" transform="translate(3018.457031 0)"/>
     <use xlink:href="#ArialMT-20" transform="translate(3068.457031 0)"/>
     <use xlink:href="#ArialMT-68" transform="translate(3096.240234 0)"/>
     <use xlink:href="#ArialMT-6f" transform="translate(3151.855469 0)"/>
     <use xlink:href="#ArialMT-74" transform="translate(3207.470703 0)"/>
     <use xlink:href="#ArialMT-73" transform="translate(3235.253906 0)"/>
     <use xlink:href="#ArialMT-70" transform="translate(3285.253906 0)"/>
     <use xlink:href="#ArialMT-6f" transform="translate(3340.869141 0)"/>
     <use xlink:href="#ArialMT-74" transform="translate(3396.484375 0)"/>
     <use xlink:href="#ArialMT-20" transform="translate(3424.267578 0)"/>
     <use xlink:href="#ArialMT-6d" transform="translate(3452.050781 0)"/>
     <use xlink:href="#ArialMT-61" transform="translate(3535.351562 0)"/>
     <use xlink:href="#ArialMT-70" transform="translate(3590.966797 0)"/>
     <use xlink:href="#ArialMT-73" transform="translate(3646.582031 0)"/>
     <use xlink:href="#ArialMT-2e" transform="translate(3696.582031 0)"/>
    </g>
   </g>
  </g>
 </g>
 <defs>
  <clipPath id="pf9d142d7a6">
   <rect x="7.2" y="7.2" width="658.44" height="266.112"/>
  </clipPath>
 </defs>
</svg>
