<?xml version="1.0" encoding="utf-8" standalone="no"?>
<!DOCTYPE svg PUBLIC "-//W3C//DTD SVG 1.1//EN"
  "http://www.w3.org/Graphics/SVG/1.1/DTD/svg11.dtd">
<svg xmlns:xlink="http://www.w3.org/1999/xlink" width="675.36pt" height="332.856pt" viewBox="0 0 675.36 332.856" xmlns="http://www.w3.org/2000/svg" version="1.1">
 <metadata>
  <rdf:RDF xmlns:dc="http://purl.org/dc/elements/1.1/" xmlns:cc="http://creativecommons.org/ns#" xmlns:rdf="http://www.w3.org/1999/02/22-rdf-syntax-ns#">
   <cc:Work>
    <dc:type rdf:resource="http://purl.org/dc/dcmitype/StillImage"/>
    <dc:date>2026-05-03T16:26:15.013509</dc:date>
    <dc:format>image/svg+xml</dc:format>
    <dc:creator>
     <cc:Agent>
      <dc:title>Matplotlib v3.10.8, https://matplotlib.org/</dc:title>
     </cc:Agent>
    </dc:creator>
   </cc:Work>
  </rdf:RDF>
 </metadata>
 <defs>
  <style type="text/css">*{stroke-linejoin: round; stroke-linecap: butt}</style>
 </defs>
 <g id="figure_1">
  <g id="patch_1">
   <path d="M 0 332.856 
L 675.36 332.856 
L 675.36 0 
L 0 0 
L 0 332.856 
z
" style="fill: none; opacity: 0"/>
  </g>
  <g id="axes_1">
   <g id="patch_2">
    <path d="M 43.7256 310.023144 
L 303.5304 310.023144 
Q 323.6184 310.023144 323.6184 300.210264 
L 323.6184 35.916696 
Q 323.6184 26.103816 303.5304 26.103816 
L 43.7256 26.103816 
Q 23.6376 26.103816 23.6376 35.916696 
L 23.6376 300.210264 
Q 23.6376 310.023144 43.7256 310.023144 
z
" clip-path="url(#p93333376fe)" style="fill: #fffdfa; stroke: #3a7182; stroke-width: 1.8; stroke-linejoin: miter"/>
   </g>
   <g id="patch_3">
    <path d="M 59.796 97.73784 
L 118.7208 97.73784 
Q 132.1128 97.73784 132.1128 91.19592 
L 132.1128 83.672712 
Q 132.1128 77.130792 118.7208 77.130792 
L 59.796 77.130792 
Q 46.404 77.130792 46.404 83.672712 
L 46.404 91.19592 
Q 46.404 97.73784 59.796 97.73784 
z
" clip-path="url(#p93333376fe)" style="fill: #3a7182"/>
   </g>
   <g id="patch_4">
    <path d="M 144.1656 97.73784 
L 203.0904 97.73784 
Q 216.4824 97.73784 216.4824 91.19592 
L 216.4824 83.672712 
Q 216.4824 77.130792 203.0904 77.130792 
L 144.1656 77.130792 
Q 130.7736 77.130792 130.7736 83.672712 
L 130.7736 91.19592 
Q 130.7736 97.73784 144.1656 97.73784 
z
" clip-path="url(#p93333376fe)" style="fill: #8aa07a"/>
   </g>
   <g id="patch_5">
    <path d="M 228.5352 97.73784 
L 287.46 97.73784 
Q 300.852 97.73784 300.852 91.19592 
L 300.852 83.672712 
Q 300.852 77.130792 287.46 77.130792 
L 228.5352 77.130792 
Q 215.1432 77.130792 215.1432 83.672712 
L 215.1432 91.19592 
Q 215.1432 97.73784 228.5352 97.73784 
z
" clip-path="url(#p93333376fe)" style="fill: #d26b34"/>
   </g>
   <g id="patch_6">
    <path d="M 59.796 118.017792 
L 118.7208 118.017792 
Q 132.1128 118.017792 132.1128 111.475872 
L 132.1128 103.952664 
Q 132.1128 97.410744 118.7208 97.410744 
L 59.796 97.410744 
Q 46.404 97.410744 46.404 103.952664 
L 46.404 111.475872 
Q 46.404 118.017792 59.796 118.017792 
z
" clip-path="url(#p93333376fe)" style="fill: #254d5a"/>
   </g>
   <g id="patch_7">
    <path d="M 144.1656 118.017792 
L 203.0904 118.017792 
Q 216.4824 118.017792 216.4824 111.475872 
L 216.4824 103.952664 
Q 216.4824 97.410744 203.0904 97.410744 
L 144.1656 97.410744 
Q 130.7736 97.410744 130.7736 103.952664 
L 130.7736 111.475872 
Q 130.7736 118.017792 144.1656 118.017792 
z
" clip-path="url(#p93333376fe)" style="fill: #6f985f"/>
   </g>
   <g id="patch_8">
    <path d="M 228.5352 118.017792 
L 287.46 118.017792 
Q 300.852 118.017792 300.852 111.475872 
L 300.852 103.952664 
Q 300.852 97.410744 287.46 97.410744 
L 228.5352 97.410744 
Q 215.1432 97.410744 215.1432 103.952664 
L 215.1432 111.475872 
Q 215.1432 118.017792 228.5352 118.017792 
z
" clip-path="url(#p93333376fe)" style="fill: #9a402d"/>
   </g>
   <g id="patch_9">
    <path d="M 173.628 129.176908 
Q 173.628 135.353564 173.628 139.517758 
" clip-path="url(#p93333376fe)" style="fill: none; stroke: #5c696d; stroke-width: 1.8; stroke-linecap: round"/>
    <path d="M 177.228 132.317758 
L 173.628 139.517758 
L 170.028 132.317758 
z
" clip-path="url(#p93333376fe)" style="fill: #5c696d; stroke: #5c696d; stroke-width: 1.8; stroke-linecap: round"/>
   </g>
   <g id="patch_10">
    <path d="M 86.58 171.33444 
L 103.9896 171.33444 
L 103.9896 143.53128 
L 86.58 143.53128 
z
" clip-path="url(#p93333376fe)" style="fill: #3a7182; opacity: 0.92"/>
   </g>
   <g id="patch_11">
    <path d="M 115.3728 187.035048 
L 132.7824 187.035048 
L 132.7824 171.33444 
L 115.3728 171.33444 
z
" clip-path="url(#p93333376fe)" style="fill: #8aa07a; opacity: 0.92"/>
   </g>
   <g id="patch_12">
    <path d="M 144.1656 171.33444 
L 161.5752 171.33444 
L 161.5752 135.35388 
L 144.1656 135.35388 
z
" clip-path="url(#p93333376fe)" style="fill: #d26b34; opacity: 0.92"/>
   </g>
   <g id="patch_13">
    <path d="M 172.9584 192.59568 
L 190.368 192.59568 
L 190.368 171.33444 
L 172.9584 171.33444 
z
" clip-path="url(#p93333376fe)" style="fill: #254d5a; opacity: 0.92"/>
   </g>
   <g id="patch_14">
    <path d="M 201.7512 171.33444 
L 219.1608 171.33444 
L 219.1608 154.325448 
L 201.7512 154.325448 
z
" clip-path="url(#p93333376fe)" style="fill: #6f985f; opacity: 0.92"/>
   </g>
   <g id="patch_15">
    <path d="M 230.544 171.33444 
L 247.9536 171.33444 
L 247.9536 146.80224 
L 230.544 146.80224 
z
" clip-path="url(#p93333376fe)" style="fill: #9a402d; opacity: 0.92"/>
   </g>
   <g id="patch_16">
    <path d="M 173.628 212.587906 
Q 173.628 217.619631 173.628 220.638895 
" clip-path="url(#p93333376fe)" style="fill: none; stroke: #5c696d; stroke-width: 1.8; stroke-linecap: round"/>
    <path d="M 177.228 213.438895 
L 173.628 220.638895 
L 170.028 213.438895 
z
" clip-path="url(#p93333376fe)" style="fill: #5c696d; stroke: #5c696d; stroke-width: 1.8; stroke-linecap: round"/>
   </g>
   <g id="patch_17">
    <path d="M 123.408 248.856192 
L 237.24 248.856192 
Q 253.98 248.856192 253.98 240.678792 
L 253.98 232.828488 
Q 253.98 224.651088 237.24 224.651088 
L 123.408 224.651088 
Q 106.668 224.651088 106.668 232.828488 
L 106.668 240.678792 
Q 106.668 248.856192 123.408 248.856192 
z
" clip-path="url(#p93333376fe)" style="fill: #9a402d"/>
   </g>
   <g id="patch_18">
    <path d="M 371.8296 310.023144 
L 631.6344 310.023144 
Q 651.7224 310.023144 651.7224 300.210264 
L 651.7224 35.916696 
Q 651.7224 26.103816 631.6344 26.103816 
L 371.8296 26.103816 
Q 351.7416 26.103816 351.7416 35.916696 
L 351.7416 300.210264 
Q 351.7416 310.023144 371.8296 310.023144 
z
" clip-path="url(#p93333376fe)" style="fill: #fffdfa; stroke: #9a402d; stroke-width: 1.8; stroke-linejoin: miter"/>
   </g>
   <g id="patch_19">
    <path d="M 387.9 97.73784 
L 446.8248 97.73784 
Q 460.2168 97.73784 460.2168 91.19592 
L 460.2168 83.672712 
Q 460.2168 77.130792 446.8248 77.130792 
L 387.9 77.130792 
Q 374.508 77.130792 374.508 83.672712 
L 374.508 91.19592 
Q 374.508 97.73784 387.9 97.73784 
z
" clip-path="url(#p93333376fe)" style="fill: #3a7182"/>
   </g>
   <g id="patch_20">
    <path d="M 472.2696 97.73784 
L 531.1944 97.73784 
Q 544.5864 97.73784 544.5864 91.19592 
L 544.5864 83.672712 
Q 544.5864 77.130792 531.1944 77.130792 
L 472.2696 77.130792 
Q 458.8776 77.130792 458.8776 83.672712 
L 458.8776 91.19592 
Q 458.8776 97.73784 472.2696 97.73784 
z
" clip-path="url(#p93333376fe)" style="fill: #8aa07a"/>
   </g>
   <g id="patch_21">
    <path d="M 556.6392 97.73784 
L 615.564 97.73784 
Q 628.956 97.73784 628.956 91.19592 
L 628.956 83.672712 
Q 628.956 77.130792 615.564 77.130792 
L 556.6392 77.130792 
Q 543.2472 77.130792 543.2472 83.672712 
L 543.2472 91.19592 
Q 543.2472 97.73784 556.6392 97.73784 
z
" clip-path="url(#p93333376fe)" style="fill: #d26b34"/>
   </g>
   <g id="patch_22">
    <path d="M 387.9 118.017792 
L 446.8248 118.017792 
Q 460.2168 118.017792 460.2168 111.475872 
L 460.2168 103.952664 
Q 460.2168 97.410744 446.8248 97.410744 
L 387.9 97.410744 
Q 374.508 97.410744 374.508 103.952664 
L 374.508 111.475872 
Q 374.508 118.017792 387.9 118.017792 
z
" clip-path="url(#p93333376fe)" style="fill: #254d5a"/>
   </g>
   <g id="patch_23">
    <path d="M 472.2696 118.017792 
L 531.1944 118.017792 
Q 544.5864 118.017792 544.5864 111.475872 
L 544.5864 103.952664 
Q 544.5864 97.410744 531.1944 97.410744 
L 472.2696 97.410744 
Q 458.8776 97.410744 458.8776 103.952664 
L 458.8776 111.475872 
Q 458.8776 118.017792 472.2696 118.017792 
z
" clip-path="url(#p93333376fe)" style="fill: #6f985f"/>
   </g>
   <g id="patch_24">
    <path d="M 556.6392 118.017792 
L 615.564 118.017792 
Q 628.956 118.017792 628.956 111.475872 
L 628.956 103.952664 
Q 628.956 97.410744 615.564 97.410744 
L 556.6392 97.410744 
Q 543.2472 97.410744 543.2472 103.952664 
L 543.2472 111.475872 
Q 543.2472 118.017792 556.6392 118.017792 
z
" clip-path="url(#p93333376fe)" style="fill: #9a402d"/>
   </g>
   <g id="patch_25">
    <path d="M 501.732 129.176908 
Q 501.732 135.353564 501.732 139.517758 
" clip-path="url(#p93333376fe)" style="fill: none; stroke: #5c696d; stroke-width: 1.8; stroke-linecap: round"/>
    <path d="M 505.332 132.317758 
L 501.732 139.517758 
L 498.132 132.317758 
z
" clip-path="url(#p93333376fe)" style="fill: #5c696d; stroke: #5c696d; stroke-width: 1.8; stroke-linecap: round"/>
   </g>
   <g id="patch_26">
    <path d="M 407.3184 156.942216 
L 448.8336 156.942216 
Q 455.5296 156.942216 455.5296 153.671256 
L 455.5296 146.475144 
Q 455.5296 143.204184 448.8336 143.204184 
L 407.3184 143.204184 
Q 400.6224 143.204184 400.6224 146.475144 
L 400.6224 153.671256 
Q 400.6224 156.942216 407.3184 156.942216 
z
" clip-path="url(#p93333376fe)" style="fill: #9a402d; stroke: #fffdfa; stroke-width: 0.8; stroke-linejoin: miter"/>
   </g>
   <g id="patch_27">
    <path d="M 375.6798 179.838936 
L 417.195 179.838936 
Q 423.891 179.838936 423.891 176.567976 
L 423.891 169.371864 
Q 423.891 166.100904 417.195 166.100904 
L 375.6798 166.100904 
Q 368.9838 166.100904 368.9838 169.371864 
L 368.9838 176.567976 
Q 368.9838 179.838936 375.6798 179.838936 
z
" clip-path="url(#p93333376fe)" style="fill: #9a402d; stroke: #fffdfa; stroke-width: 0.8; stroke-linejoin: miter"/>
   </g>
   <g id="patch_28">
    <path d="M 438.957 179.838936 
L 480.4722 179.838936 
Q 487.1682 179.838936 487.1682 176.567976 
L 487.1682 169.371864 
Q 487.1682 166.100904 480.4722 166.100904 
L 438.957 166.100904 
Q 432.261 166.100904 432.261 169.371864 
L 432.261 176.567976 
Q 432.261 179.838936 438.957 179.838936 
z
" clip-path="url(#p93333376fe)" style="fill: #9a402d; stroke: #fffdfa; stroke-width: 0.8; stroke-linejoin: miter"/>
   </g>
   <g id="patch_29">
    <path d="M 378.8604 198.156312 
C 380.99136 198.156312 383.035328 197.742733 384.542144 197.006662 
C 386.048961 196.27059 386.8956 195.272122 386.8956 194.23116 
C 386.8956 193.190198 386.048961 192.19173 384.542144 191.455658 
C 383.035328 190.719587 380.99136 190.306008 378.8604 190.306008 
C 376.72944 190.306008 374.685472 190.719587 373.178656 191.455658 
C 371.671839 192.19173 370.8252 193.190198 370.8252 194.23116 
C 370.8252 195.272122 371.671839 196.27059 373.178656 197.006662 
C 374.685472 197.742733 376.72944 198.156312 378.8604 198.156312 
z
" clip-path="url(#p93333376fe)" style="fill: #d26b34; stroke: #fffdfa; stroke-width: 0.8; stroke-linejoin: miter"/>
   </g>
   <g id="patch_30">
    <path d="M 414.0144 198.156312 
C 416.14536 198.156312 418.189328 197.742733 419.696144 197.006662 
C 421.202961 196.27059 422.0496 195.272122 422.0496 194.23116 
C 422.0496 193.190198 421.202961 192.19173 419.696144 191.455658 
C 418.189328 190.719587 416.14536 190.306008 414.0144 190.306008 
C 411.88344 190.306008 409.839472 190.719587 408.332656 191.455658 
C 406.825839 192.19173 405.9792 193.190198 405.9792 194.23116 
C 405.9792 195.272122 406.825839 196.27059 408.332656 197.006662 
C 409.839472 197.742733 411.88344 198.156312 414.0144 198.156312 
z
" clip-path="url(#p93333376fe)" style="fill: #3a7182; stroke: #fffdfa; stroke-width: 0.8; stroke-linejoin: miter"/>
   </g>
   <g id="patch_31">
    <path d="M 442.1376 198.156312 
C 444.26856 198.156312 446.312528 197.742733 447.819344 197.006662 
C 449.326161 196.27059 450.1728 195.272122 450.1728 194.23116 
C 450.1728 193.190198 449.326161 192.19173 447.819344 191.455658 
C 446.312528 190.719587 444.26856 190.306008 442.1376 190.306008 
C 440.00664 190.306008 437.962672 190.719587 436.455856 191.455658 
C 434.949039 192.19173 434.1024 193.190198 434.1024 194.23116 
C 434.1024 195.272122 434.949039 196.27059 436.455856 197.006662 
C 437.962672 197.742733 440.00664 198.156312 442.1376 198.156312 
z
" clip-path="url(#p93333376fe)" style="fill: #d26b34; stroke: #fffdfa; stroke-width: 0.8; stroke-linejoin: miter"/>
   </g>
   <g id="patch_32">
    <path d="M 477.2916 198.156312 
C 479.42256 198.156312 481.466528 197.742733 482.973344 197.006662 
C 484.480161 196.27059 485.3268 195.272122 485.3268 194.23116 
C 485.3268 193.190198 484.480161 192.19173 482.973344 191.455658 
C 481.466528 190.719587 479.42256 190.306008 477.2916 190.306008 
C 475.16064 190.306008 473.116672 190.719587 471.609856 191.455658 
C 470.103039 192.19173 469.2564 193.190198 469.2564 194.23116 
C 469.2564 195.272122 470.103039 196.27059 471.609856 197.006662 
C 473.116672 197.742733 475.16064 198.156312 477.2916 198.156312 
z
" clip-path="url(#p93333376fe)" style="fill: #3a7182; stroke: #fffdfa; stroke-width: 0.8; stroke-linejoin: miter"/>
   </g>
   <g id="patch_33">
    <path d="M 554.6304 156.942216 
L 596.1456 156.942216 
Q 602.8416 156.942216 602.8416 153.671256 
L 602.8416 146.475144 
Q 602.8416 143.204184 596.1456 143.204184 
L 554.6304 143.204184 
Q 547.9344 143.204184 547.9344 146.475144 
L 547.9344 153.671256 
Q 547.9344 156.942216 554.6304 156.942216 
z
" clip-path="url(#p93333376fe)" style="fill: #9a402d; stroke: #fffdfa; stroke-width: 0.8; stroke-linejoin: miter"/>
   </g>
   <g id="patch_34">
    <path d="M 522.9918 179.838936 
L 564.507 179.838936 
Q 571.203 179.838936 571.203 176.567976 
L 571.203 169.371864 
Q 571.203 166.100904 564.507 166.100904 
L 522.9918 166.100904 
Q 516.2958 166.100904 516.2958 169.371864 
L 516.2958 176.567976 
Q 516.2958 179.838936 522.9918 179.838936 
z
" clip-path="url(#p93333376fe)" style="fill: #9a402d; stroke: #fffdfa; stroke-width: 0.8; stroke-linejoin: miter"/>
   </g>
   <g id="patch_35">
    <path d="M 586.269 179.838936 
L 627.7842 179.838936 
Q 634.4802 179.838936 634.4802 176.567976 
L 634.4802 169.371864 
Q 634.4802 166.100904 627.7842 166.100904 
L 586.269 166.100904 
Q 579.573 166.100904 579.573 169.371864 
L 579.573 176.567976 
Q 579.573 179.838936 586.269 179.838936 
z
" clip-path="url(#p93333376fe)" style="fill: #9a402d; stroke: #fffdfa; stroke-width: 0.8; stroke-linejoin: miter"/>
   </g>
   <g id="patch_36">
    <path d="M 526.1724 198.156312 
C 528.30336 198.156312 530.347328 197.742733 531.854144 197.006662 
C 533.360961 196.27059 534.2076 195.272122 534.2076 194.23116 
C 534.2076 193.190198 533.360961 192.19173 531.854144 191.455658 
C 530.347328 190.719587 528.30336 190.306008 526.1724 190.306008 
C 524.04144 190.306008 521.997472 190.719587 520.490656 191.455658 
C 518.983839 192.19173 518.1372 193.190198 518.1372 194.23116 
C 518.1372 195.272122 518.983839 196.27059 520.490656 197.006662 
C 521.997472 197.742733 524.04144 198.156312 526.1724 198.156312 
z
" clip-path="url(#p93333376fe)" style="fill: #d26b34; stroke: #fffdfa; stroke-width: 0.8; stroke-linejoin: miter"/>
   </g>
   <g id="patch_37">
    <path d="M 561.3264 198.156312 
C 563.45736 198.156312 565.501328 197.742733 567.008144 197.006662 
C 568.514961 196.27059 569.3616 195.272122 569.3616 194.23116 
C 569.3616 193.190198 568.514961 192.19173 567.008144 191.455658 
C 565.501328 190.719587 563.45736 190.306008 561.3264 190.306008 
C 559.19544 190.306008 557.151472 190.719587 555.644656 191.455658 
C 554.137839 192.19173 553.2912 193.190198 553.2912 194.23116 
C 553.2912 195.272122 554.137839 196.27059 555.644656 197.006662 
C 557.151472 197.742733 559.19544 198.156312 561.3264 198.156312 
z
" clip-path="url(#p93333376fe)" style="fill: #3a7182; stroke: #fffdfa; stroke-width: 0.8; stroke-linejoin: miter"/>
   </g>
   <g id="patch_38">
    <path d="M 589.4496 198.156312 
C 591.58056 198.156312 593.624528 197.742733 595.131344 197.006662 
C 596.638161 196.27059 597.4848 195.272122 597.4848 194.23116 
C 597.4848 193.190198 596.638161 192.19173 595.131344 191.455658 
C 593.624528 190.719587 591.58056 190.306008 589.4496 190.306008 
C 587.31864 190.306008 585.274672 190.719587 583.767856 191.455658 
C 582.261039 192.19173 581.4144 193.190198 581.4144 194.23116 
C 581.4144 195.272122 582.261039 196.27059 583.767856 197.006662 
C 585.274672 197.742733 587.31864 198.156312 589.4496 198.156312 
z
" clip-path="url(#p93333376fe)" style="fill: #d26b34; stroke: #fffdfa; stroke-width: 0.8; stroke-linejoin: miter"/>
   </g>
   <g id="patch_39">
    <path d="M 624.6036 198.156312 
C 626.73456 198.156312 628.778528 197.742733 630.285344 197.006662 
C 631.792161 196.27059 632.6388 195.272122 632.6388 194.23116 
C 632.6388 193.190198 631.792161 192.19173 630.285344 191.455658 
C 628.778528 190.719587 626.73456 190.306008 624.6036 190.306008 
C 622.47264 190.306008 620.428672 190.719587 618.921856 191.455658 
C 617.415039 192.19173 616.5684 193.190198 616.5684 194.23116 
C 616.5684 195.272122 617.415039 196.27059 618.921856 197.006662 
C 620.428672 197.742733 622.47264 198.156312 624.6036 198.156312 
z
" clip-path="url(#p93333376fe)" style="fill: #3a7182; stroke: #fffdfa; stroke-width: 0.8; stroke-linejoin: miter"/>
   </g>
   <g id="patch_40">
    <path d="M 501.732 227.961498 
Q 501.732 233.482115 501.732 236.990272 
" clip-path="url(#p93333376fe)" style="fill: none; stroke: #5c696d; stroke-width: 1.8; stroke-linecap: round"/>
    <path d="M 505.332 229.790272 
L 501.732 236.990272 
L 498.132 229.790272 
z
" clip-path="url(#p93333376fe)" style="fill: #5c696d; stroke: #5c696d; stroke-width: 1.8; stroke-linecap: round"/>
   </g>
   <g id="patch_41">
    <path d="M 451.512 256.052304 
C 453.99812 256.052304 456.38275 255.569795 458.140702 254.711045 
C 459.898654 253.852295 460.8864 252.687416 460.8864 251.47296 
C 460.8864 250.258504 459.898654 249.093625 458.140702 248.234875 
C 456.38275 247.376125 453.99812 246.893616 451.512 246.893616 
C 449.02588 246.893616 446.64125 247.376125 444.883298 248.234875 
C 443.125346 249.093625 442.1376 250.258504 442.1376 251.47296 
C 442.1376 252.687416 443.125346 253.852295 444.883298 254.711045 
C 446.64125 255.569795 449.02588 256.052304 451.512 256.052304 
z
" clip-path="url(#p93333376fe)" style="fill: #9a402d; stroke: #fffdfa; stroke-width: 0.9; stroke-linejoin: miter"/>
   </g>
   <g id="patch_42">
    <path d="M 474.948 256.052304 
C 477.43412 256.052304 479.81875 255.569795 481.576702 254.711045 
C 483.334654 253.852295 484.3224 252.687416 484.3224 251.47296 
C 484.3224 250.258504 483.334654 249.093625 481.576702 248.234875 
C 479.81875 247.376125 477.43412 246.893616 474.948 246.893616 
C 472.46188 246.893616 470.07725 247.376125 468.319298 248.234875 
C 466.561346 249.093625 465.5736 250.258504 465.5736 251.47296 
C 465.5736 252.687416 466.561346 253.852295 468.319298 254.711045 
C 470.07725 255.569795 472.46188 256.052304 474.948 256.052304 
z
" clip-path="url(#p93333376fe)" style="fill: #3a7182; stroke: #fffdfa; stroke-width: 0.9; stroke-linejoin: miter"/>
   </g>
   <g id="patch_43">
    <path d="M 498.384 256.052304 
C 500.87012 256.052304 503.25475 255.569795 505.012702 254.711045 
C 506.770654 253.852295 507.7584 252.687416 507.7584 251.47296 
C 507.7584 250.258504 506.770654 249.093625 505.012702 248.234875 
C 503.25475 247.376125 500.87012 246.893616 498.384 246.893616 
C 495.89788 246.893616 493.51325 247.376125 491.755298 248.234875 
C 489.997346 249.093625 489.0096 250.258504 489.0096 251.47296 
C 489.0096 252.687416 489.997346 253.852295 491.755298 254.711045 
C 493.51325 255.569795 495.89788 256.052304 498.384 256.052304 
z
" clip-path="url(#p93333376fe)" style="fill: #9a402d; stroke: #fffdfa; stroke-width: 0.9; stroke-linejoin: miter"/>
   </g>
   <g id="patch_44">
    <path d="M 521.82 256.052304 
C 524.30612 256.052304 526.69075 255.569795 528.448702 254.711045 
C 530.206654 253.852295 531.1944 252.687416 531.1944 251.47296 
C 531.1944 250.258504 530.206654 249.093625 528.448702 248.234875 
C 526.69075 247.376125 524.30612 246.893616 521.82 246.893616 
C 519.33388 246.893616 516.94925 247.376125 515.191298 248.234875 
C 513.433346 249.093625 512.4456 250.258504 512.4456 251.47296 
C 512.4456 252.687416 513.433346 253.852295 515.191298 254.711045 
C 516.94925 255.569795 519.33388 256.052304 521.82 256.052304 
z
" clip-path="url(#p93333376fe)" style="fill: #9a402d; stroke: #fffdfa; stroke-width: 0.9; stroke-linejoin: miter"/>
   </g>
   <g id="patch_45">
    <path d="M 545.256 256.052304 
C 547.74212 256.052304 550.12675 255.569795 551.884702 254.711045 
C 553.642654 253.852295 554.6304 252.687416 554.6304 251.47296 
C 554.6304 250.258504 553.642654 249.093625 551.884702 248.234875 
C 550.12675 247.376125 547.74212 246.893616 545.256 246.893616 
C 542.76988 246.893616 540.38525 247.376125 538.627298 248.234875 
C 536.869346 249.093625 535.8816 250.258504 535.8816 251.47296 
C 535.8816 252.687416 536.869346 253.852295 538.627298 254.711045 
C 540.38525 255.569795 542.76988 256.052304 545.256 256.052304 
z
" clip-path="url(#p93333376fe)" style="fill: #3a7182; stroke: #fffdfa; stroke-width: 0.9; stroke-linejoin: miter"/>
   </g>
   <g id="line2d_1">
    <path d="M 76.536 171.33444 
L 270.72 171.33444 
" clip-path="url(#p93333376fe)" style="fill: none; stroke: #dbc7aa; stroke-width: 2; stroke-linecap: square"/>
   </g>
   <g id="line2d_2">
    <path d="M 428.076 150.0732 
L 396.4374 172.96992 
" clip-path="url(#p93333376fe)" style="fill: none; stroke: #5c696d; stroke-width: 1.4; stroke-linecap: square"/>
   </g>
   <g id="line2d_3">
    <path d="M 428.076 150.0732 
L 459.7146 172.96992 
" clip-path="url(#p93333376fe)" style="fill: none; stroke: #5c696d; stroke-width: 1.4; stroke-linecap: square"/>
   </g>
   <g id="line2d_4">
    <path d="M 396.4374 172.96992 
L 378.8604 194.23116 
" clip-path="url(#p93333376fe)" style="fill: none; stroke: #5c696d; stroke-width: 1.4; stroke-linecap: square"/>
   </g>
   <g id="line2d_5">
    <path d="M 396.4374 172.96992 
L 414.0144 194.23116 
" clip-path="url(#p93333376fe)" style="fill: none; stroke: #5c696d; stroke-width: 1.4; stroke-linecap: square"/>
   </g>
   <g id="line2d_6">
    <path d="M 459.7146 172.96992 
L 442.1376 194.23116 
" clip-path="url(#p93333376fe)" style="fill: none; stroke: #5c696d; stroke-width: 1.4; stroke-linecap: square"/>
   </g>
   <g id="line2d_7">
    <path d="M 459.7146 172.96992 
L 477.2916 194.23116 
" clip-path="url(#p93333376fe)" style="fill: none; stroke: #5c696d; stroke-width: 1.4; stroke-linecap: square"/>
   </g>
   <g id="line2d_8">
    <path d="M 575.388 150.0732 
L 543.7494 172.96992 
" clip-path="url(#p93333376fe)" style="fill: none; stroke: #5c696d; stroke-width: 1.4; stroke-linecap: square"/>
   </g>
   <g id="line2d_9">
    <path d="M 575.388 150.0732 
L 607.0266 172.96992 
" clip-path="url(#p93333376fe)" style="fill: none; stroke: #5c696d; stroke-width: 1.4; stroke-linecap: square"/>
   </g>
   <g id="line2d_10">
    <path d="M 543.7494 172.96992 
L 526.1724 194.23116 
" clip-path="url(#p93333376fe)" style="fill: none; stroke: #5c696d; stroke-width: 1.4; stroke-linecap: square"/>
   </g>
   <g id="line2d_11">
    <path d="M 543.7494 172.96992 
L 561.3264 194.23116 
" clip-path="url(#p93333376fe)" style="fill: none; stroke: #5c696d; stroke-width: 1.4; stroke-linecap: square"/>
   </g>
   <g id="line2d_12">
    <path d="M 607.0266 172.96992 
L 589.4496 194.23116 
" clip-path="url(#p93333376fe)" style="fill: none; stroke: #5c696d; stroke-width: 1.4; stroke-linecap: square"/>
   </g>
   <g id="line2d_13">
    <path d="M 607.0266 172.96992 
L 624.6036 194.23116 
" clip-path="url(#p93333376fe)" style="fill: none; stroke: #5c696d; stroke-width: 1.4; stroke-linecap: square"/>
   </g>
   <g id="text_1">
    <!-- Logistic Regression -->
    <g style="fill: #254d5a" transform="translate(53.1 50.30892) scale(0.18 -0.18)">
     <defs>
      <path id="Arial-BoldMT-4c" d="M 491 0 
L 491 4544 
L 1416 4544 
L 1416 772 
L 3716 772 
L 3716 0 
L 491 0 
z
" transform="scale(0.015625)"/>
      <path id="Arial-BoldMT-6f" d="M 256 1706 
Q 256 2144 472 2553 
Q 688 2963 1083 3178 
Q 1478 3394 1966 3394 
Q 2719 3394 3200 2905 
Q 3681 2416 3681 1669 
Q 3681 916 3195 420 
Q 2709 -75 1972 -75 
Q 1516 -75 1102 131 
Q 688 338 472 736 
Q 256 1134 256 1706 
z
M 1156 1659 
Q 1156 1166 1390 903 
Q 1625 641 1969 641 
Q 2313 641 2545 903 
Q 2778 1166 2778 1666 
Q 2778 2153 2545 2415 
Q 2313 2678 1969 2678 
Q 1625 2678 1390 2415 
Q 1156 2153 1156 1659 
z
" transform="scale(0.015625)"/>
      <path id="Arial-BoldMT-67" d="M 378 -219 
L 1381 -341 
Q 1406 -516 1497 -581 
Q 1622 -675 1891 -675 
Q 2234 -675 2406 -572 
Q 2522 -503 2581 -350 
Q 2622 -241 2622 53 
L 2622 538 
Q 2228 0 1628 0 
Q 959 0 569 566 
Q 263 1013 263 1678 
Q 263 2513 664 2953 
Q 1066 3394 1663 3394 
Q 2278 3394 2678 2853 
L 2678 3319 
L 3500 3319 
L 3500 341 
Q 3500 -247 3403 -537 
Q 3306 -828 3131 -993 
Q 2956 -1159 2664 -1253 
Q 2372 -1347 1925 -1347 
Q 1081 -1347 728 -1058 
Q 375 -769 375 -325 
Q 375 -281 378 -219 
z
M 1163 1728 
Q 1163 1200 1367 954 
Q 1572 709 1872 709 
Q 2194 709 2416 961 
Q 2638 1213 2638 1706 
Q 2638 2222 2425 2472 
Q 2213 2722 1888 2722 
Q 1572 2722 1367 2476 
Q 1163 2231 1163 1728 
z
" transform="scale(0.015625)"/>
      <path id="Arial-BoldMT-69" d="M 459 3769 
L 459 4581 
L 1338 4581 
L 1338 3769 
L 459 3769 
z
M 459 0 
L 459 3319 
L 1338 3319 
L 1338 0 
L 459 0 
z
" transform="scale(0.015625)"/>
      <path id="Arial-BoldMT-73" d="M 150 947 
L 1031 1081 
Q 1088 825 1259 692 
Q 1431 559 1741 559 
Q 2081 559 2253 684 
Q 2369 772 2369 919 
Q 2369 1019 2306 1084 
Q 2241 1147 2013 1200 
Q 950 1434 666 1628 
Q 272 1897 272 2375 
Q 272 2806 612 3100 
Q 953 3394 1669 3394 
Q 2350 3394 2681 3172 
Q 3013 2950 3138 2516 
L 2309 2363 
Q 2256 2556 2107 2659 
Q 1959 2763 1684 2763 
Q 1338 2763 1188 2666 
Q 1088 2597 1088 2488 
Q 1088 2394 1175 2328 
Q 1294 2241 1995 2081 
Q 2697 1922 2975 1691 
Q 3250 1456 3250 1038 
Q 3250 581 2869 253 
Q 2488 -75 1741 -75 
Q 1063 -75 667 200 
Q 272 475 150 947 
z
" transform="scale(0.015625)"/>
      <path id="Arial-BoldMT-74" d="M 1981 3319 
L 1981 2619 
L 1381 2619 
L 1381 1281 
Q 1381 875 1398 808 
Q 1416 741 1477 697 
Q 1538 653 1625 653 
Q 1747 653 1978 738 
L 2053 56 
Q 1747 -75 1359 -75 
Q 1122 -75 931 4 
Q 741 84 652 211 
Q 563 338 528 553 
Q 500 706 500 1172 
L 500 2619 
L 97 2619 
L 97 3319 
L 500 3319 
L 500 3978 
L 1381 4491 
L 1381 3319 
L 1981 3319 
z
" transform="scale(0.015625)"/>
      <path id="Arial-BoldMT-63" d="M 3353 2338 
L 2488 2181 
Q 2444 2441 2289 2572 
Q 2134 2703 1888 2703 
Q 1559 2703 1364 2476 
Q 1169 2250 1169 1719 
Q 1169 1128 1367 884 
Q 1566 641 1900 641 
Q 2150 641 2309 783 
Q 2469 925 2534 1272 
L 3397 1125 
Q 3263 531 2881 228 
Q 2500 -75 1859 -75 
Q 1131 -75 698 384 
Q 266 844 266 1656 
Q 266 2478 700 2936 
Q 1134 3394 1875 3394 
Q 2481 3394 2839 3133 
Q 3197 2872 3353 2338 
z
" transform="scale(0.015625)"/>
      <path id="Arial-BoldMT-20" transform="scale(0.015625)"/>
      <path id="Arial-BoldMT-52" d="M 469 0 
L 469 4581 
L 2416 4581 
Q 3150 4581 3483 4457 
Q 3816 4334 4016 4018 
Q 4216 3703 4216 3297 
Q 4216 2781 3912 2445 
Q 3609 2109 3006 2022 
Q 3306 1847 3501 1637 
Q 3697 1428 4028 894 
L 4588 0 
L 3481 0 
L 2813 997 
Q 2456 1531 2325 1670 
Q 2194 1809 2047 1861 
Q 1900 1913 1581 1913 
L 1394 1913 
L 1394 0 
L 469 0 
z
M 1394 2644 
L 2078 2644 
Q 2744 2644 2909 2700 
Q 3075 2756 3169 2893 
Q 3263 3031 3263 3238 
Q 3263 3469 3139 3611 
Q 3016 3753 2791 3791 
Q 2678 3806 2116 3806 
L 1394 3806 
L 1394 2644 
z
" transform="scale(0.015625)"/>
      <path id="Arial-BoldMT-65" d="M 2381 1056 
L 3256 909 
Q 3088 428 2723 176 
Q 2359 -75 1813 -75 
Q 947 -75 531 491 
Q 203 944 203 1634 
Q 203 2459 634 2926 
Q 1066 3394 1725 3394 
Q 2466 3394 2894 2905 
Q 3322 2416 3303 1406 
L 1103 1406 
Q 1113 1016 1316 798 
Q 1519 581 1822 581 
Q 2028 581 2168 693 
Q 2309 806 2381 1056 
z
M 2431 1944 
Q 2422 2325 2234 2523 
Q 2047 2722 1778 2722 
Q 1491 2722 1303 2513 
Q 1116 2303 1119 1944 
L 2431 1944 
z
" transform="scale(0.015625)"/>
      <path id="Arial-BoldMT-72" d="M 1300 0 
L 422 0 
L 422 3319 
L 1238 3319 
L 1238 2847 
Q 1447 3181 1614 3287 
Q 1781 3394 1994 3394 
Q 2294 3394 2572 3228 
L 2300 2463 
Q 2078 2606 1888 2606 
Q 1703 2606 1575 2504 
Q 1447 2403 1373 2137 
Q 1300 1872 1300 1025 
L 1300 0 
z
" transform="scale(0.015625)"/>
      <path id="Arial-BoldMT-6e" d="M 3478 0 
L 2600 0 
L 2600 1694 
Q 2600 2231 2544 2389 
Q 2488 2547 2361 2634 
Q 2234 2722 2056 2722 
Q 1828 2722 1647 2597 
Q 1466 2472 1398 2265 
Q 1331 2059 1331 1503 
L 1331 0 
L 453 0 
L 453 3319 
L 1269 3319 
L 1269 2831 
Q 1703 3394 2363 3394 
Q 2653 3394 2893 3289 
Q 3134 3184 3257 3021 
Q 3381 2859 3429 2653 
Q 3478 2447 3478 2063 
L 3478 0 
z
" transform="scale(0.015625)"/>
     </defs>
     <use xlink:href="#Arial-BoldMT-4c"/>
     <use xlink:href="#Arial-BoldMT-6f" transform="translate(61.083984 0)"/>
     <use xlink:href="#Arial-BoldMT-67" transform="translate(122.167969 0)"/>
     <use xlink:href="#Arial-BoldMT-69" transform="translate(183.251953 0)"/>
     <use xlink:href="#Arial-BoldMT-73" transform="translate(211.035156 0)"/>
     <use xlink:href="#Arial-BoldMT-74" transform="translate(266.650391 0)"/>
     <use xlink:href="#Arial-BoldMT-69" transform="translate(299.951172 0)"/>
     <use xlink:href="#Arial-BoldMT-63" transform="translate(327.734375 0)"/>
     <use xlink:href="#Arial-BoldMT-20" transform="translate(383.349609 0)"/>
     <use xlink:href="#Arial-BoldMT-52" transform="translate(411.132812 0)"/>
     <use xlink:href="#Arial-BoldMT-65" transform="translate(483.349609 0)"/>
     <use xlink:href="#Arial-BoldMT-67" transform="translate(538.964844 0)"/>
     <use xlink:href="#Arial-BoldMT-72" transform="translate(600.048828 0)"/>
     <use xlink:href="#Arial-BoldMT-65" transform="translate(638.964844 0)"/>
     <use xlink:href="#Arial-BoldMT-73" transform="translate(694.580078 0)"/>
     <use xlink:href="#Arial-BoldMT-73" transform="translate(750.195312 0)"/>
     <use xlink:href="#Arial-BoldMT-69" transform="translate(805.810547 0)"/>
     <use xlink:href="#Arial-BoldMT-6f" transform="translate(833.59375 0)"/>
     <use xlink:href="#Arial-BoldMT-6e" transform="translate(894.677734 0)"/>
    </g>
   </g>
   <g id="text_2">
    <!-- Each feature gets one learned weight. -->
    <g style="fill: #5c696d" transform="translate(53.1 65.682432) scale(0.121 -0.121)">
     <defs>
      <path id="ArialMT-45" d="M 506 0 
L 506 4581 
L 3819 4581 
L 3819 4041 
L 1113 4041 
L 1113 2638 
L 3647 2638 
L 3647 2100 
L 1113 2100 
L 1113 541 
L 3925 541 
L 3925 0 
L 506 0 
z
" transform="scale(0.015625)"/>
      <path id="ArialMT-61" d="M 2588 409 
Q 2275 144 1986 34 
Q 1697 -75 1366 -75 
Q 819 -75 525 192 
Q 231 459 231 875 
Q 231 1119 342 1320 
Q 453 1522 633 1644 
Q 813 1766 1038 1828 
Q 1203 1872 1538 1913 
Q 2219 1994 2541 2106 
Q 2544 2222 2544 2253 
Q 2544 2597 2384 2738 
Q 2169 2928 1744 2928 
Q 1347 2928 1158 2789 
Q 969 2650 878 2297 
L 328 2372 
Q 403 2725 575 2942 
Q 747 3159 1072 3276 
Q 1397 3394 1825 3394 
Q 2250 3394 2515 3294 
Q 2781 3194 2906 3042 
Q 3031 2891 3081 2659 
Q 3109 2516 3109 2141 
L 3109 1391 
Q 3109 606 3145 398 
Q 3181 191 3288 0 
L 2700 0 
Q 2613 175 2588 409 
z
M 2541 1666 
Q 2234 1541 1622 1453 
Q 1275 1403 1131 1340 
Q 988 1278 909 1158 
Q 831 1038 831 891 
Q 831 666 1001 516 
Q 1172 366 1500 366 
Q 1825 366 2078 508 
Q 2331 650 2450 897 
Q 2541 1088 2541 1459 
L 2541 1666 
z
" transform="scale(0.015625)"/>
      <path id="ArialMT-63" d="M 2588 1216 
L 3141 1144 
Q 3050 572 2676 248 
Q 2303 -75 1759 -75 
Q 1078 -75 664 370 
Q 250 816 250 1647 
Q 250 2184 428 2587 
Q 606 2991 970 3192 
Q 1334 3394 1763 3394 
Q 2303 3394 2647 3120 
Q 2991 2847 3088 2344 
L 2541 2259 
Q 2463 2594 2264 2762 
Q 2066 2931 1784 2931 
Q 1359 2931 1093 2626 
Q 828 2322 828 1663 
Q 828 994 1084 691 
Q 1341 388 1753 388 
Q 2084 388 2306 591 
Q 2528 794 2588 1216 
z
" transform="scale(0.015625)"/>
      <path id="ArialMT-68" d="M 422 0 
L 422 4581 
L 984 4581 
L 984 2938 
Q 1378 3394 1978 3394 
Q 2347 3394 2619 3248 
Q 2891 3103 3008 2847 
Q 3125 2591 3125 2103 
L 3125 0 
L 2563 0 
L 2563 2103 
Q 2563 2525 2380 2717 
Q 2197 2909 1863 2909 
Q 1613 2909 1392 2779 
Q 1172 2650 1078 2428 
Q 984 2206 984 1816 
L 984 0 
L 422 0 
z
" transform="scale(0.015625)"/>
      <path id="ArialMT-20" transform="scale(0.015625)"/>
      <path id="ArialMT-66" d="M 556 0 
L 556 2881 
L 59 2881 
L 59 3319 
L 556 3319 
L 556 3672 
Q 556 4006 616 4169 
Q 697 4388 901 4523 
Q 1106 4659 1475 4659 
Q 1713 4659 2000 4603 
L 1916 4113 
Q 1741 4144 1584 4144 
Q 1328 4144 1222 4034 
Q 1116 3925 1116 3625 
L 1116 3319 
L 1763 3319 
L 1763 2881 
L 1116 2881 
L 1116 0 
L 556 0 
z
" transform="scale(0.015625)"/>
      <path id="ArialMT-65" d="M 2694 1069 
L 3275 997 
Q 3138 488 2766 206 
Q 2394 -75 1816 -75 
Q 1088 -75 661 373 
Q 234 822 234 1631 
Q 234 2469 665 2931 
Q 1097 3394 1784 3394 
Q 2450 3394 2872 2941 
Q 3294 2488 3294 1666 
Q 3294 1616 3291 1516 
L 816 1516 
Q 847 969 1125 678 
Q 1403 388 1819 388 
Q 2128 388 2347 550 
Q 2566 713 2694 1069 
z
M 847 1978 
L 2700 1978 
Q 2663 2397 2488 2606 
Q 2219 2931 1791 2931 
Q 1403 2931 1139 2672 
Q 875 2413 847 1978 
z
" transform="scale(0.015625)"/>
      <path id="ArialMT-74" d="M 1650 503 
L 1731 6 
Q 1494 -44 1306 -44 
Q 1000 -44 831 53 
Q 663 150 594 308 
Q 525 466 525 972 
L 525 2881 
L 113 2881 
L 113 3319 
L 525 3319 
L 525 4141 
L 1084 4478 
L 1084 3319 
L 1650 3319 
L 1650 2881 
L 1084 2881 
L 1084 941 
Q 1084 700 1114 631 
Q 1144 563 1211 522 
Q 1278 481 1403 481 
Q 1497 481 1650 503 
z
" transform="scale(0.015625)"/>
      <path id="ArialMT-75" d="M 2597 0 
L 2597 488 
Q 2209 -75 1544 -75 
Q 1250 -75 995 37 
Q 741 150 617 320 
Q 494 491 444 738 
Q 409 903 409 1263 
L 409 3319 
L 972 3319 
L 972 1478 
Q 972 1038 1006 884 
Q 1059 663 1231 536 
Q 1403 409 1656 409 
Q 1909 409 2131 539 
Q 2353 669 2445 892 
Q 2538 1116 2538 1541 
L 2538 3319 
L 3100 3319 
L 3100 0 
L 2597 0 
z
" transform="scale(0.015625)"/>
      <path id="ArialMT-72" d="M 416 0 
L 416 3319 
L 922 3319 
L 922 2816 
Q 1116 3169 1280 3281 
Q 1444 3394 1641 3394 
Q 1925 3394 2219 3213 
L 2025 2691 
Q 1819 2813 1613 2813 
Q 1428 2813 1281 2702 
Q 1134 2591 1072 2394 
Q 978 2094 978 1738 
L 978 0 
L 416 0 
z
" transform="scale(0.015625)"/>
      <path id="ArialMT-67" d="M 319 -275 
L 866 -356 
Q 900 -609 1056 -725 
Q 1266 -881 1628 -881 
Q 2019 -881 2231 -725 
Q 2444 -569 2519 -288 
Q 2563 -116 2559 434 
Q 2191 0 1641 0 
Q 956 0 581 494 
Q 206 988 206 1678 
Q 206 2153 378 2554 
Q 550 2956 876 3175 
Q 1203 3394 1644 3394 
Q 2231 3394 2613 2919 
L 2613 3319 
L 3131 3319 
L 3131 450 
Q 3131 -325 2973 -648 
Q 2816 -972 2473 -1159 
Q 2131 -1347 1631 -1347 
Q 1038 -1347 672 -1080 
Q 306 -813 319 -275 
z
M 784 1719 
Q 784 1066 1043 766 
Q 1303 466 1694 466 
Q 2081 466 2343 764 
Q 2606 1063 2606 1700 
Q 2606 2309 2336 2618 
Q 2066 2928 1684 2928 
Q 1309 2928 1046 2623 
Q 784 2319 784 1719 
z
" transform="scale(0.015625)"/>
      <path id="ArialMT-73" d="M 197 991 
L 753 1078 
Q 800 744 1014 566 
Q 1228 388 1613 388 
Q 2000 388 2187 545 
Q 2375 703 2375 916 
Q 2375 1106 2209 1216 
Q 2094 1291 1634 1406 
Q 1016 1563 777 1677 
Q 538 1791 414 1992 
Q 291 2194 291 2438 
Q 291 2659 392 2848 
Q 494 3038 669 3163 
Q 800 3259 1026 3326 
Q 1253 3394 1513 3394 
Q 1903 3394 2198 3281 
Q 2494 3169 2634 2976 
Q 2775 2784 2828 2463 
L 2278 2388 
Q 2241 2644 2061 2787 
Q 1881 2931 1553 2931 
Q 1166 2931 1000 2803 
Q 834 2675 834 2503 
Q 834 2394 903 2306 
Q 972 2216 1119 2156 
Q 1203 2125 1616 2013 
Q 2213 1853 2448 1751 
Q 2684 1650 2818 1456 
Q 2953 1263 2953 975 
Q 2953 694 2789 445 
Q 2625 197 2315 61 
Q 2006 -75 1616 -75 
Q 969 -75 630 194 
Q 291 463 197 991 
z
" transform="scale(0.015625)"/>
      <path id="ArialMT-6f" d="M 213 1659 
Q 213 2581 725 3025 
Q 1153 3394 1769 3394 
Q 2453 3394 2887 2945 
Q 3322 2497 3322 1706 
Q 3322 1066 3130 698 
Q 2938 331 2570 128 
Q 2203 -75 1769 -75 
Q 1072 -75 642 372 
Q 213 819 213 1659 
z
M 791 1659 
Q 791 1022 1069 705 
Q 1347 388 1769 388 
Q 2188 388 2466 706 
Q 2744 1025 2744 1678 
Q 2744 2294 2464 2611 
Q 2184 2928 1769 2928 
Q 1347 2928 1069 2612 
Q 791 2297 791 1659 
z
" transform="scale(0.015625)"/>
      <path id="ArialMT-6e" d="M 422 0 
L 422 3319 
L 928 3319 
L 928 2847 
Q 1294 3394 1984 3394 
Q 2284 3394 2536 3286 
Q 2788 3178 2913 3003 
Q 3038 2828 3088 2588 
Q 3119 2431 3119 2041 
L 3119 0 
L 2556 0 
L 2556 2019 
Q 2556 2363 2490 2533 
Q 2425 2703 2258 2804 
Q 2091 2906 1866 2906 
Q 1506 2906 1245 2678 
Q 984 2450 984 1813 
L 984 0 
L 422 0 
z
" transform="scale(0.015625)"/>
      <path id="ArialMT-6c" d="M 409 0 
L 409 4581 
L 972 4581 
L 972 0 
L 409 0 
z
" transform="scale(0.015625)"/>
      <path id="ArialMT-64" d="M 2575 0 
L 2575 419 
Q 2259 -75 1647 -75 
Q 1250 -75 917 144 
Q 584 363 401 755 
Q 219 1147 219 1656 
Q 219 2153 384 2558 
Q 550 2963 881 3178 
Q 1213 3394 1622 3394 
Q 1922 3394 2156 3267 
Q 2391 3141 2538 2938 
L 2538 4581 
L 3097 4581 
L 3097 0 
L 2575 0 
z
M 797 1656 
Q 797 1019 1065 703 
Q 1334 388 1700 388 
Q 2069 388 2326 689 
Q 2584 991 2584 1609 
Q 2584 2291 2321 2609 
Q 2059 2928 1675 2928 
Q 1300 2928 1048 2622 
Q 797 2316 797 1656 
z
" transform="scale(0.015625)"/>
      <path id="ArialMT-77" d="M 1034 0 
L 19 3319 
L 600 3319 
L 1128 1403 
L 1325 691 
Q 1338 744 1497 1375 
L 2025 3319 
L 2603 3319 
L 3100 1394 
L 3266 759 
L 3456 1400 
L 4025 3319 
L 4572 3319 
L 3534 0 
L 2950 0 
L 2422 1988 
L 2294 2553 
L 1622 0 
L 1034 0 
z
" transform="scale(0.015625)"/>
      <path id="ArialMT-69" d="M 425 3934 
L 425 4581 
L 988 4581 
L 988 3934 
L 425 3934 
z
M 425 0 
L 425 3319 
L 988 3319 
L 988 0 
L 425 0 
z
" transform="scale(0.015625)"/>
      <path id="ArialMT-2e" d="M 581 0 
L 581 641 
L 1222 641 
L 1222 0 
L 581 0 
z
" transform="scale(0.015625)"/>
     </defs>
     <use xlink:href="#ArialMT-45"/>
     <use xlink:href="#ArialMT-61" transform="translate(66.699219 0)"/>
     <use xlink:href="#ArialMT-63" transform="translate(122.314453 0)"/>
     <use xlink:href="#ArialMT-68" transform="translate(172.314453 0)"/>
     <use xlink:href="#ArialMT-20" transform="translate(227.929688 0)"/>
     <use xlink:href="#ArialMT-66" transform="translate(255.712891 0)"/>
     <use xlink:href="#ArialMT-65" transform="translate(283.496094 0)"/>
     <use xlink:href="#ArialMT-61" transform="translate(339.111328 0)"/>
     <use xlink:href="#ArialMT-74" transform="translate(394.726562 0)"/>
     <use xlink:href="#ArialMT-75" transform="translate(422.509766 0)"/>
     <use xlink:href="#ArialMT-72" transform="translate(478.125 0)"/>
     <use xlink:href="#ArialMT-65" transform="translate(511.425781 0)"/>
     <use xlink:href="#ArialMT-20" transform="translate(567.041016 0)"/>
     <use xlink:href="#ArialMT-67" transform="translate(594.824219 0)"/>
     <use xlink:href="#ArialMT-65" transform="translate(650.439453 0)"/>
     <use xlink:href="#ArialMT-74" transform="translate(706.054688 0)"/>
     <use xlink:href="#ArialMT-73" transform="translate(733.837891 0)"/>
     <use xlink:href="#ArialMT-20" transform="translate(783.837891 0)"/>
     <use xlink:href="#ArialMT-6f" transform="translate(811.621094 0)"/>
     <use xlink:href="#ArialMT-6e" transform="translate(867.236328 0)"/>
     <use xlink:href="#ArialMT-65" transform="translate(922.851562 0)"/>
     <use xlink:href="#ArialMT-20" transform="translate(978.466797 0)"/>
     <use xlink:href="#ArialMT-6c" transform="translate(1006.25 0)"/>
     <use xlink:href="#ArialMT-65" transform="translate(1028.466797 0)"/>
     <use xlink:href="#ArialMT-61" transform="translate(1084.082031 0)"/>
     <use xlink:href="#ArialMT-72" transform="translate(1139.697266 0)"/>
     <use xlink:href="#ArialMT-6e" transform="translate(1172.998047 0)"/>
     <use xlink:href="#ArialMT-65" transform="translate(1228.613281 0)"/>
     <use xlink:href="#ArialMT-64" transform="translate(1284.228516 0)"/>
     <use xlink:href="#ArialMT-20" transform="translate(1339.84375 0)"/>
     <use xlink:href="#ArialMT-77" transform="translate(1367.626953 0)"/>
     <use xlink:href="#ArialMT-65" transform="translate(1439.84375 0)"/>
     <use xlink:href="#ArialMT-69" transform="translate(1495.458984 0)"/>
     <use xlink:href="#ArialMT-67" transform="translate(1517.675781 0)"/>
     <use xlink:href="#ArialMT-68" transform="translate(1573.291016 0)"/>
     <use xlink:href="#ArialMT-74" transform="translate(1628.90625 0)"/>
     <use xlink:href="#ArialMT-2e" transform="translate(1656.689453 0)"/>
    </g>
   </g>
   <g id="text_3">
    <!-- impervious -->
    <g style="fill: #fffdfa" transform="translate(60.451087 90.233879) scale(0.108 -0.108)">
     <defs>
      <path id="Arial-BoldMT-6d" d="M 394 3319 
L 1203 3319 
L 1203 2866 
Q 1638 3394 2238 3394 
Q 2556 3394 2790 3262 
Q 3025 3131 3175 2866 
Q 3394 3131 3647 3262 
Q 3900 3394 4188 3394 
Q 4553 3394 4806 3245 
Q 5059 3097 5184 2809 
Q 5275 2597 5275 2122 
L 5275 0 
L 4397 0 
L 4397 1897 
Q 4397 2391 4306 2534 
Q 4184 2722 3931 2722 
Q 3747 2722 3584 2609 
Q 3422 2497 3350 2280 
Q 3278 2063 3278 1594 
L 3278 0 
L 2400 0 
L 2400 1819 
Q 2400 2303 2353 2443 
Q 2306 2584 2207 2653 
Q 2109 2722 1941 2722 
Q 1738 2722 1575 2612 
Q 1413 2503 1342 2297 
Q 1272 2091 1272 1613 
L 1272 0 
L 394 0 
L 394 3319 
z
" transform="scale(0.015625)"/>
      <path id="Arial-BoldMT-70" d="M 434 3319 
L 1253 3319 
L 1253 2831 
Q 1413 3081 1684 3237 
Q 1956 3394 2288 3394 
Q 2866 3394 3269 2941 
Q 3672 2488 3672 1678 
Q 3672 847 3265 386 
Q 2859 -75 2281 -75 
Q 2006 -75 1782 34 
Q 1559 144 1313 409 
L 1313 -1263 
L 434 -1263 
L 434 3319 
z
M 1303 1716 
Q 1303 1156 1525 889 
Q 1747 622 2066 622 
Q 2372 622 2575 867 
Q 2778 1113 2778 1672 
Q 2778 2194 2568 2447 
Q 2359 2700 2050 2700 
Q 1728 2700 1515 2451 
Q 1303 2203 1303 1716 
z
" transform="scale(0.015625)"/>
      <path id="Arial-BoldMT-76" d="M 1372 0 
L 34 3319 
L 956 3319 
L 1581 1625 
L 1763 1059 
Q 1834 1275 1853 1344 
Q 1897 1484 1947 1625 
L 2578 3319 
L 3481 3319 
L 2163 0 
L 1372 0 
z
" transform="scale(0.015625)"/>
      <path id="Arial-BoldMT-75" d="M 2644 0 
L 2644 497 
Q 2463 231 2167 78 
Q 1872 -75 1544 -75 
Q 1209 -75 943 72 
Q 678 219 559 484 
Q 441 750 441 1219 
L 441 3319 
L 1319 3319 
L 1319 1794 
Q 1319 1094 1367 936 
Q 1416 778 1544 686 
Q 1672 594 1869 594 
Q 2094 594 2272 717 
Q 2450 841 2515 1023 
Q 2581 1206 2581 1919 
L 2581 3319 
L 3459 3319 
L 3459 0 
L 2644 0 
z
" transform="scale(0.015625)"/>
     </defs>
     <use xlink:href="#Arial-BoldMT-69"/>
     <use xlink:href="#Arial-BoldMT-6d" transform="translate(27.783203 0)"/>
     <use xlink:href="#Arial-BoldMT-70" transform="translate(116.699219 0)"/>
     <use xlink:href="#Arial-BoldMT-65" transform="translate(177.783203 0)"/>
     <use xlink:href="#Arial-BoldMT-72" transform="translate(233.398438 0)"/>
     <use xlink:href="#Arial-BoldMT-76" transform="translate(272.314453 0)"/>
     <use xlink:href="#Arial-BoldMT-69" transform="translate(327.929688 0)"/>
     <use xlink:href="#Arial-BoldMT-6f" transform="translate(355.712891 0)"/>
     <use xlink:href="#Arial-BoldMT-75" transform="translate(416.796875 0)"/>
     <use xlink:href="#Arial-BoldMT-73" transform="translate(477.880859 0)"/>
    </g>
   </g>
   <g id="text_4">
    <!-- land cover -->
    <g style="fill: #fffdfa" transform="translate(146.619563 90.233879) scale(0.108 -0.108)">
     <defs>
      <path id="Arial-BoldMT-6c" d="M 459 0 
L 459 4581 
L 1338 4581 
L 1338 0 
L 459 0 
z
" transform="scale(0.015625)"/>
      <path id="Arial-BoldMT-61" d="M 1116 2306 
L 319 2450 
Q 453 2931 781 3162 
Q 1109 3394 1756 3394 
Q 2344 3394 2631 3255 
Q 2919 3116 3036 2902 
Q 3153 2688 3153 2116 
L 3144 1091 
Q 3144 653 3186 445 
Q 3228 238 3344 0 
L 2475 0 
Q 2441 88 2391 259 
Q 2369 338 2359 363 
Q 2134 144 1878 34 
Q 1622 -75 1331 -75 
Q 819 -75 523 203 
Q 228 481 228 906 
Q 228 1188 362 1408 
Q 497 1628 739 1745 
Q 981 1863 1438 1950 
Q 2053 2066 2291 2166 
L 2291 2253 
Q 2291 2506 2166 2614 
Q 2041 2722 1694 2722 
Q 1459 2722 1328 2630 
Q 1197 2538 1116 2306 
z
M 2291 1594 
Q 2122 1538 1756 1459 
Q 1391 1381 1278 1306 
Q 1106 1184 1106 997 
Q 1106 813 1243 678 
Q 1381 544 1594 544 
Q 1831 544 2047 700 
Q 2206 819 2256 991 
Q 2291 1103 2291 1419 
L 2291 1594 
z
" transform="scale(0.015625)"/>
      <path id="Arial-BoldMT-64" d="M 3503 0 
L 2688 0 
L 2688 488 
Q 2484 203 2207 64 
Q 1931 -75 1650 -75 
Q 1078 -75 670 386 
Q 263 847 263 1672 
Q 263 2516 659 2955 
Q 1056 3394 1663 3394 
Q 2219 3394 2625 2931 
L 2625 4581 
L 3503 4581 
L 3503 0 
z
M 1159 1731 
Q 1159 1200 1306 963 
Q 1519 619 1900 619 
Q 2203 619 2415 876 
Q 2628 1134 2628 1647 
Q 2628 2219 2422 2470 
Q 2216 2722 1894 2722 
Q 1581 2722 1370 2473 
Q 1159 2225 1159 1731 
z
" transform="scale(0.015625)"/>
     </defs>
     <use xlink:href="#Arial-BoldMT-6c"/>
     <use xlink:href="#Arial-BoldMT-61" transform="translate(27.783203 0)"/>
     <use xlink:href="#Arial-BoldMT-6e" transform="translate(83.398438 0)"/>
     <use xlink:href="#Arial-BoldMT-64" transform="translate(144.482422 0)"/>
     <use xlink:href="#Arial-BoldMT-20" transform="translate(205.566406 0)"/>
     <use xlink:href="#Arial-BoldMT-63" transform="translate(233.349609 0)"/>
     <use xlink:href="#Arial-BoldMT-6f" transform="translate(288.964844 0)"/>
     <use xlink:href="#Arial-BoldMT-76" transform="translate(350.048828 0)"/>
     <use xlink:href="#Arial-BoldMT-65" transform="translate(405.664062 0)"/>
     <use xlink:href="#Arial-BoldMT-72" transform="translate(461.279297 0)"/>
    </g>
   </g>
   <g id="text_5">
    <!-- elevation -->
    <g style="fill: #fffdfa" transform="translate(234.591131 90.233879) scale(0.108 -0.108)">
     <use xlink:href="#Arial-BoldMT-65"/>
     <use xlink:href="#Arial-BoldMT-6c" transform="translate(55.615234 0)"/>
     <use xlink:href="#Arial-BoldMT-65" transform="translate(83.398438 0)"/>
     <use xlink:href="#Arial-BoldMT-76" transform="translate(139.013672 0)"/>
     <use xlink:href="#Arial-BoldMT-61" transform="translate(194.628906 0)"/>
     <use xlink:href="#Arial-BoldMT-74" transform="translate(250.244141 0)"/>
     <use xlink:href="#Arial-BoldMT-69" transform="translate(283.544922 0)"/>
     <use xlink:href="#Arial-BoldMT-6f" transform="translate(311.328125 0)"/>
     <use xlink:href="#Arial-BoldMT-6e" transform="translate(372.412109 0)"/>
    </g>
   </g>
   <g id="text_6">
    <!-- water dist. -->
    <g style="fill: #fffdfa" transform="translate(62.552869 110.513831) scale(0.108 -0.108)">
     <defs>
      <path id="Arial-BoldMT-77" d="M 1078 0 
L 28 3319 
L 881 3319 
L 1503 1144 
L 2075 3319 
L 2922 3319 
L 3475 1144 
L 4109 3319 
L 4975 3319 
L 3909 0 
L 3066 0 
L 2494 2134 
L 1931 0 
L 1078 0 
z
" transform="scale(0.015625)"/>
      <path id="Arial-BoldMT-2e" d="M 459 0 
L 459 878 
L 1338 878 
L 1338 0 
L 459 0 
z
" transform="scale(0.015625)"/>
     </defs>
     <use xlink:href="#Arial-BoldMT-77"/>
     <use xlink:href="#Arial-BoldMT-61" transform="translate(77.783203 0)"/>
     <use xlink:href="#Arial-BoldMT-74" transform="translate(133.398438 0)"/>
     <use xlink:href="#Arial-BoldMT-65" transform="translate(166.699219 0)"/>
     <use xlink:href="#Arial-BoldMT-72" transform="translate(222.314453 0)"/>
     <use xlink:href="#Arial-BoldMT-20" transform="translate(261.230469 0)"/>
     <use xlink:href="#Arial-BoldMT-64" transform="translate(289.013672 0)"/>
     <use xlink:href="#Arial-BoldMT-69" transform="translate(350.097656 0)"/>
     <use xlink:href="#Arial-BoldMT-73" transform="translate(377.880859 0)"/>
     <use xlink:href="#Arial-BoldMT-74" transform="translate(433.496094 0)"/>
     <use xlink:href="#Arial-BoldMT-2e" transform="translate(466.796875 0)"/>
    </g>
   </g>
   <g id="text_7">
    <!-- NDVI -->
    <g style="fill: #fffdfa" transform="translate(160.726219 110.513831) scale(0.108 -0.108)">
     <defs>
      <path id="Arial-BoldMT-4e" d="M 475 0 
L 475 4581 
L 1375 4581 
L 3250 1522 
L 3250 4581 
L 4109 4581 
L 4109 0 
L 3181 0 
L 1334 2988 
L 1334 0 
L 475 0 
z
" transform="scale(0.015625)"/>
      <path id="Arial-BoldMT-44" d="M 463 4581 
L 2153 4581 
Q 2725 4581 3025 4494 
Q 3428 4375 3715 4072 
Q 4003 3769 4153 3330 
Q 4303 2891 4303 2247 
Q 4303 1681 4163 1272 
Q 3991 772 3672 463 
Q 3431 228 3022 97 
Q 2716 0 2203 0 
L 463 0 
L 463 4581 
z
M 1388 3806 
L 1388 772 
L 2078 772 
Q 2466 772 2638 816 
Q 2863 872 3011 1006 
Q 3159 1141 3253 1448 
Q 3347 1756 3347 2288 
Q 3347 2819 3253 3103 
Q 3159 3388 2990 3547 
Q 2822 3706 2563 3763 
Q 2369 3806 1803 3806 
L 1388 3806 
z
" transform="scale(0.015625)"/>
      <path id="Arial-BoldMT-56" d="M 1634 0 
L -3 4581 
L 1000 4581 
L 2159 1191 
L 3281 4581 
L 4263 4581 
L 2622 0 
L 1634 0 
z
" transform="scale(0.015625)"/>
      <path id="Arial-BoldMT-49" d="M 438 0 
L 438 4581 
L 1363 4581 
L 1363 0 
L 438 0 
z
" transform="scale(0.015625)"/>
     </defs>
     <use xlink:href="#Arial-BoldMT-4e"/>
     <use xlink:href="#Arial-BoldMT-44" transform="translate(72.216797 0)"/>
     <use xlink:href="#Arial-BoldMT-56" transform="translate(144.433594 0)"/>
     <use xlink:href="#Arial-BoldMT-49" transform="translate(211.132812 0)"/>
    </g>
   </g>
   <g id="text_8">
    <!-- climate -->
    <g style="fill: #fffdfa" transform="translate(239.388694 110.513831) scale(0.108 -0.108)">
     <use xlink:href="#Arial-BoldMT-63"/>
     <use xlink:href="#Arial-BoldMT-6c" transform="translate(55.615234 0)"/>
     <use xlink:href="#Arial-BoldMT-69" transform="translate(83.398438 0)"/>
     <use xlink:href="#Arial-BoldMT-6d" transform="translate(111.181641 0)"/>
     <use xlink:href="#Arial-BoldMT-61" transform="translate(200.097656 0)"/>
     <use xlink:href="#Arial-BoldMT-74" transform="translate(255.712891 0)"/>
     <use xlink:href="#Arial-BoldMT-65" transform="translate(289.013672 0)"/>
    </g>
   </g>
   <g id="text_9">
    <!-- Weighted Sum -->
    <g style="fill: #5c696d" transform="translate(136.999625 202.40856) scale(0.112 -0.112)">
     <defs>
      <path id="ArialMT-57" d="M 1294 0 
L 78 4581 
L 700 4581 
L 1397 1578 
Q 1509 1106 1591 641 
Q 1766 1375 1797 1488 
L 2669 4581 
L 3400 4581 
L 4056 2263 
Q 4303 1400 4413 641 
Q 4500 1075 4641 1638 
L 5359 4581 
L 5969 4581 
L 4713 0 
L 4128 0 
L 3163 3491 
Q 3041 3928 3019 4028 
Q 2947 3713 2884 3491 
L 1913 0 
L 1294 0 
z
" transform="scale(0.015625)"/>
      <path id="ArialMT-53" d="M 288 1472 
L 859 1522 
Q 900 1178 1048 958 
Q 1197 738 1509 602 
Q 1822 466 2213 466 
Q 2559 466 2825 569 
Q 3091 672 3220 851 
Q 3350 1031 3350 1244 
Q 3350 1459 3225 1620 
Q 3100 1781 2813 1891 
Q 2628 1963 1997 2114 
Q 1366 2266 1113 2400 
Q 784 2572 623 2826 
Q 463 3081 463 3397 
Q 463 3744 659 4045 
Q 856 4347 1234 4503 
Q 1613 4659 2075 4659 
Q 2584 4659 2973 4495 
Q 3363 4331 3572 4012 
Q 3781 3694 3797 3291 
L 3216 3247 
Q 3169 3681 2898 3903 
Q 2628 4125 2100 4125 
Q 1550 4125 1298 3923 
Q 1047 3722 1047 3438 
Q 1047 3191 1225 3031 
Q 1400 2872 2139 2705 
Q 2878 2538 3153 2413 
Q 3553 2228 3743 1945 
Q 3934 1663 3934 1294 
Q 3934 928 3725 604 
Q 3516 281 3123 101 
Q 2731 -78 2241 -78 
Q 1619 -78 1198 103 
Q 778 284 539 648 
Q 300 1013 288 1472 
z
" transform="scale(0.015625)"/>
      <path id="ArialMT-6d" d="M 422 0 
L 422 3319 
L 925 3319 
L 925 2853 
Q 1081 3097 1340 3245 
Q 1600 3394 1931 3394 
Q 2300 3394 2536 3241 
Q 2772 3088 2869 2813 
Q 3263 3394 3894 3394 
Q 4388 3394 4653 3120 
Q 4919 2847 4919 2278 
L 4919 0 
L 4359 0 
L 4359 2091 
Q 4359 2428 4304 2576 
Q 4250 2725 4106 2815 
Q 3963 2906 3769 2906 
Q 3419 2906 3187 2673 
Q 2956 2441 2956 1928 
L 2956 0 
L 2394 0 
L 2394 2156 
Q 2394 2531 2256 2718 
Q 2119 2906 1806 2906 
Q 1569 2906 1367 2781 
Q 1166 2656 1075 2415 
Q 984 2175 984 1722 
L 984 0 
L 422 0 
z
" transform="scale(0.015625)"/>
     </defs>
     <use xlink:href="#ArialMT-57"/>
     <use xlink:href="#ArialMT-65" transform="translate(92.634766 0)"/>
     <use xlink:href="#ArialMT-69" transform="translate(148.25 0)"/>
     <use xlink:href="#ArialMT-67" transform="translate(170.466797 0)"/>
     <use xlink:href="#ArialMT-68" transform="translate(226.082031 0)"/>
     <use xlink:href="#ArialMT-74" transform="translate(281.697266 0)"/>
     <use xlink:href="#ArialMT-65" transform="translate(309.480469 0)"/>
     <use xlink:href="#ArialMT-64" transform="translate(365.095703 0)"/>
     <use xlink:href="#ArialMT-20" transform="translate(420.710938 0)"/>
     <use xlink:href="#ArialMT-53" transform="translate(448.494141 0)"/>
     <use xlink:href="#ArialMT-75" transform="translate(515.193359 0)"/>
     <use xlink:href="#ArialMT-6d" transform="translate(570.808594 0)"/>
    </g>
   </g>
   <g id="text_10">
    <!-- Risk Score -->
    <g style="fill: #fffdfa" transform="translate(149.825609 239.812421) scale(0.118 -0.118)">
     <defs>
      <path id="Arial-BoldMT-6b" d="M 428 0 
L 428 4581 
L 1306 4581 
L 1306 2150 
L 2334 3319 
L 3416 3319 
L 2281 2106 
L 3497 0 
L 2550 0 
L 1716 1491 
L 1306 1063 
L 1306 0 
L 428 0 
z
" transform="scale(0.015625)"/>
      <path id="Arial-BoldMT-53" d="M 231 1491 
L 1131 1578 
Q 1213 1125 1461 912 
Q 1709 700 2131 700 
Q 2578 700 2804 889 
Q 3031 1078 3031 1331 
Q 3031 1494 2936 1608 
Q 2841 1722 2603 1806 
Q 2441 1863 1863 2006 
Q 1119 2191 819 2459 
Q 397 2838 397 3381 
Q 397 3731 595 4036 
Q 794 4341 1167 4500 
Q 1541 4659 2069 4659 
Q 2931 4659 3367 4281 
Q 3803 3903 3825 3272 
L 2900 3231 
Q 2841 3584 2645 3739 
Q 2450 3894 2059 3894 
Q 1656 3894 1428 3728 
Q 1281 3622 1281 3444 
Q 1281 3281 1419 3166 
Q 1594 3019 2269 2859 
Q 2944 2700 3267 2529 
Q 3591 2359 3773 2064 
Q 3956 1769 3956 1334 
Q 3956 941 3737 597 
Q 3519 253 3119 86 
Q 2719 -81 2122 -81 
Q 1253 -81 787 320 
Q 322 722 231 1491 
z
" transform="scale(0.015625)"/>
     </defs>
     <use xlink:href="#Arial-BoldMT-52"/>
     <use xlink:href="#Arial-BoldMT-69" transform="translate(72.216797 0)"/>
     <use xlink:href="#Arial-BoldMT-73" transform="translate(100 0)"/>
     <use xlink:href="#Arial-BoldMT-6b" transform="translate(155.615234 0)"/>
     <use xlink:href="#Arial-BoldMT-20" transform="translate(211.230469 0)"/>
     <use xlink:href="#Arial-BoldMT-53" transform="translate(239.013672 0)"/>
     <use xlink:href="#Arial-BoldMT-63" transform="translate(305.712891 0)"/>
     <use xlink:href="#Arial-BoldMT-6f" transform="translate(361.328125 0)"/>
     <use xlink:href="#Arial-BoldMT-72" transform="translate(422.412109 0)"/>
     <use xlink:href="#Arial-BoldMT-65" transform="translate(461.328125 0)"/>
    </g>
   </g>
   <g id="text_11">
    <!-- One global relationship maps the feature mix to risk. -->
    <g style="fill: #1e2a2f" transform="translate(39.849188 276.00516) scale(0.116 -0.116)">
     <defs>
      <path id="ArialMT-4f" d="M 309 2231 
Q 309 3372 921 4017 
Q 1534 4663 2503 4663 
Q 3138 4663 3647 4359 
Q 4156 4056 4423 3514 
Q 4691 2972 4691 2284 
Q 4691 1588 4409 1038 
Q 4128 488 3612 205 
Q 3097 -78 2500 -78 
Q 1853 -78 1343 234 
Q 834 547 571 1087 
Q 309 1628 309 2231 
z
M 934 2222 
Q 934 1394 1379 917 
Q 1825 441 2497 441 
Q 3181 441 3623 922 
Q 4066 1403 4066 2288 
Q 4066 2847 3877 3264 
Q 3688 3681 3323 3911 
Q 2959 4141 2506 4141 
Q 1863 4141 1398 3698 
Q 934 3256 934 2222 
z
" transform="scale(0.015625)"/>
      <path id="ArialMT-62" d="M 941 0 
L 419 0 
L 419 4581 
L 981 4581 
L 981 2947 
Q 1338 3394 1891 3394 
Q 2197 3394 2470 3270 
Q 2744 3147 2920 2923 
Q 3097 2700 3197 2384 
Q 3297 2069 3297 1709 
Q 3297 856 2875 390 
Q 2453 -75 1863 -75 
Q 1275 -75 941 416 
L 941 0 
z
M 934 1684 
Q 934 1088 1097 822 
Q 1363 388 1816 388 
Q 2184 388 2453 708 
Q 2722 1028 2722 1663 
Q 2722 2313 2464 2622 
Q 2206 2931 1841 2931 
Q 1472 2931 1203 2611 
Q 934 2291 934 1684 
z
" transform="scale(0.015625)"/>
      <path id="ArialMT-70" d="M 422 -1272 
L 422 3319 
L 934 3319 
L 934 2888 
Q 1116 3141 1344 3267 
Q 1572 3394 1897 3394 
Q 2322 3394 2647 3175 
Q 2972 2956 3137 2557 
Q 3303 2159 3303 1684 
Q 3303 1175 3120 767 
Q 2938 359 2589 142 
Q 2241 -75 1856 -75 
Q 1575 -75 1351 44 
Q 1128 163 984 344 
L 984 -1272 
L 422 -1272 
z
M 931 1641 
Q 931 1000 1190 694 
Q 1450 388 1819 388 
Q 2194 388 2461 705 
Q 2728 1022 2728 1688 
Q 2728 2322 2467 2637 
Q 2206 2953 1844 2953 
Q 1484 2953 1207 2617 
Q 931 2281 931 1641 
z
" transform="scale(0.015625)"/>
      <path id="ArialMT-78" d="M 47 0 
L 1259 1725 
L 138 3319 
L 841 3319 
L 1350 2541 
Q 1494 2319 1581 2169 
Q 1719 2375 1834 2534 
L 2394 3319 
L 3066 3319 
L 1919 1756 
L 3153 0 
L 2463 0 
L 1781 1031 
L 1600 1309 
L 728 0 
L 47 0 
z
" transform="scale(0.015625)"/>
      <path id="ArialMT-6b" d="M 425 0 
L 425 4581 
L 988 4581 
L 988 1969 
L 2319 3319 
L 3047 3319 
L 1778 2088 
L 3175 0 
L 2481 0 
L 1384 1697 
L 988 1316 
L 988 0 
L 425 0 
z
" transform="scale(0.015625)"/>
     </defs>
     <use xlink:href="#ArialMT-4f"/>
     <use xlink:href="#ArialMT-6e" transform="translate(77.783203 0)"/>
     <use xlink:href="#ArialMT-65" transform="translate(133.398438 0)"/>
     <use xlink:href="#ArialMT-20" transform="translate(189.013672 0)"/>
     <use xlink:href="#ArialMT-67" transform="translate(216.796875 0)"/>
     <use xlink:href="#ArialMT-6c" transform="translate(272.412109 0)"/>
     <use xlink:href="#ArialMT-6f" transform="translate(294.628906 0)"/>
     <use xlink:href="#ArialMT-62" transform="translate(350.244141 0)"/>
     <use xlink:href="#ArialMT-61" transform="translate(405.859375 0)"/>
     <use xlink:href="#ArialMT-6c" transform="translate(461.474609 0)"/>
     <use xlink:href="#ArialMT-20" transform="translate(483.691406 0)"/>
     <use xlink:href="#ArialMT-72" transform="translate(511.474609 0)"/>
     <use xlink:href="#ArialMT-65" transform="translate(544.775391 0)"/>
     <use xlink:href="#ArialMT-6c" transform="translate(600.390625 0)"/>
     <use xlink:href="#ArialMT-61" transform="translate(622.607422 0)"/>
     <use xlink:href="#ArialMT-74" transform="translate(678.222656 0)"/>
     <use xlink:href="#ArialMT-69" transform="translate(706.005859 0)"/>
     <use xlink:href="#ArialMT-6f" transform="translate(728.222656 0)"/>
     <use xlink:href="#ArialMT-6e" transform="translate(783.837891 0)"/>
     <use xlink:href="#ArialMT-73" transform="translate(839.453125 0)"/>
     <use xlink:href="#ArialMT-68" transform="translate(889.453125 0)"/>
     <use xlink:href="#ArialMT-69" transform="translate(945.068359 0)"/>
     <use xlink:href="#ArialMT-70" transform="translate(967.285156 0)"/>
     <use xlink:href="#ArialMT-20" transform="translate(1022.900391 0)"/>
     <use xlink:href="#ArialMT-6d" transform="translate(1050.683594 0)"/>
     <use xlink:href="#ArialMT-61" transform="translate(1133.984375 0)"/>
     <use xlink:href="#ArialMT-70" transform="translate(1189.599609 0)"/>
     <use xlink:href="#ArialMT-73" transform="translate(1245.214844 0)"/>
     <use xlink:href="#ArialMT-20" transform="translate(1295.214844 0)"/>
     <use xlink:href="#ArialMT-74" transform="translate(1322.998047 0)"/>
     <use xlink:href="#ArialMT-68" transform="translate(1350.78125 0)"/>
     <use xlink:href="#ArialMT-65" transform="translate(1406.396484 0)"/>
     <use xlink:href="#ArialMT-20" transform="translate(1462.011719 0)"/>
     <use xlink:href="#ArialMT-66" transform="translate(1489.794922 0)"/>
     <use xlink:href="#ArialMT-65" transform="translate(1517.578125 0)"/>
     <use xlink:href="#ArialMT-61" transform="translate(1573.193359 0)"/>
     <use xlink:href="#ArialMT-74" transform="translate(1628.808594 0)"/>
     <use xlink:href="#ArialMT-75" transform="translate(1656.591797 0)"/>
     <use xlink:href="#ArialMT-72" transform="translate(1712.207031 0)"/>
     <use xlink:href="#ArialMT-65" transform="translate(1745.507812 0)"/>
     <use xlink:href="#ArialMT-20" transform="translate(1801.123047 0)"/>
     <use xlink:href="#ArialMT-6d" transform="translate(1828.90625 0)"/>
     <use xlink:href="#ArialMT-69" transform="translate(1912.207031 0)"/>
     <use xlink:href="#ArialMT-78" transform="translate(1934.423828 0)"/>
     <use xlink:href="#ArialMT-20" transform="translate(1984.423828 0)"/>
     <use xlink:href="#ArialMT-74" transform="translate(2012.207031 0)"/>
     <use xlink:href="#ArialMT-6f" transform="translate(2039.990234 0)"/>
     <use xlink:href="#ArialMT-20" transform="translate(2095.605469 0)"/>
     <use xlink:href="#ArialMT-72" transform="translate(2123.388672 0)"/>
     <use xlink:href="#ArialMT-69" transform="translate(2156.689453 0)"/>
     <use xlink:href="#ArialMT-73" transform="translate(2178.90625 0)"/>
     <use xlink:href="#ArialMT-6b" transform="translate(2228.90625 0)"/>
     <use xlink:href="#ArialMT-2e" transform="translate(2278.90625 0)"/>
    </g>
   </g>
   <g id="text_12">
    <!-- Random Forest -->
    <g style="fill: #9a402d" transform="translate(381.204 50.30892) scale(0.18 -0.18)">
     <defs>
      <path id="Arial-BoldMT-46" d="M 472 0 
L 472 4581 
L 3613 4581 
L 3613 3806 
L 1397 3806 
L 1397 2722 
L 3309 2722 
L 3309 1947 
L 1397 1947 
L 1397 0 
L 472 0 
z
" transform="scale(0.015625)"/>
     </defs>
     <use xlink:href="#Arial-BoldMT-52"/>
     <use xlink:href="#Arial-BoldMT-61" transform="translate(72.216797 0)"/>
     <use xlink:href="#Arial-BoldMT-6e" transform="translate(127.832031 0)"/>
     <use xlink:href="#Arial-BoldMT-64" transform="translate(188.916016 0)"/>
     <use xlink:href="#Arial-BoldMT-6f" transform="translate(250 0)"/>
     <use xlink:href="#Arial-BoldMT-6d" transform="translate(311.083984 0)"/>
     <use xlink:href="#Arial-BoldMT-20" transform="translate(400 0)"/>
     <use xlink:href="#Arial-BoldMT-46" transform="translate(427.783203 0)"/>
     <use xlink:href="#Arial-BoldMT-6f" transform="translate(488.867188 0)"/>
     <use xlink:href="#Arial-BoldMT-72" transform="translate(549.951172 0)"/>
     <use xlink:href="#Arial-BoldMT-65" transform="translate(588.867188 0)"/>
     <use xlink:href="#Arial-BoldMT-73" transform="translate(644.482422 0)"/>
     <use xlink:href="#Arial-BoldMT-74" transform="translate(700.097656 0)"/>
    </g>
   </g>
   <g id="text_13">
    <!-- Features are reused in many split rules. -->
    <g style="fill: #5c696d" transform="translate(381.204 65.682432) scale(0.121 -0.121)">
     <defs>
      <path id="ArialMT-46" d="M 525 0 
L 525 4581 
L 3616 4581 
L 3616 4041 
L 1131 4041 
L 1131 2622 
L 3281 2622 
L 3281 2081 
L 1131 2081 
L 1131 0 
L 525 0 
z
" transform="scale(0.015625)"/>
      <path id="ArialMT-79" d="M 397 -1278 
L 334 -750 
Q 519 -800 656 -800 
Q 844 -800 956 -737 
Q 1069 -675 1141 -563 
Q 1194 -478 1313 -144 
Q 1328 -97 1363 -6 
L 103 3319 
L 709 3319 
L 1400 1397 
Q 1534 1031 1641 628 
Q 1738 1016 1872 1384 
L 2581 3319 
L 3144 3319 
L 1881 -56 
Q 1678 -603 1566 -809 
Q 1416 -1088 1222 -1217 
Q 1028 -1347 759 -1347 
Q 597 -1347 397 -1278 
z
" transform="scale(0.015625)"/>
     </defs>
     <use xlink:href="#ArialMT-46"/>
     <use xlink:href="#ArialMT-65" transform="translate(61.083984 0)"/>
     <use xlink:href="#ArialMT-61" transform="translate(116.699219 0)"/>
     <use xlink:href="#ArialMT-74" transform="translate(172.314453 0)"/>
     <use xlink:href="#ArialMT-75" transform="translate(200.097656 0)"/>
     <use xlink:href="#ArialMT-72" transform="translate(255.712891 0)"/>
     <use xlink:href="#ArialMT-65" transform="translate(289.013672 0)"/>
     <use xlink:href="#ArialMT-73" transform="translate(344.628906 0)"/>
     <use xlink:href="#ArialMT-20" transform="translate(394.628906 0)"/>
     <use xlink:href="#ArialMT-61" transform="translate(422.412109 0)"/>
     <use xlink:href="#ArialMT-72" transform="translate(478.027344 0)"/>
     <use xlink:href="#ArialMT-65" transform="translate(511.328125 0)"/>
     <use xlink:href="#ArialMT-20" transform="translate(566.943359 0)"/>
     <use xlink:href="#ArialMT-72" transform="translate(594.726562 0)"/>
     <use xlink:href="#ArialMT-65" transform="translate(628.027344 0)"/>
     <use xlink:href="#ArialMT-75" transform="translate(683.642578 0)"/>
     <use xlink:href="#ArialMT-73" transform="translate(739.257812 0)"/>
     <use xlink:href="#ArialMT-65" transform="translate(789.257812 0)"/>
     <use xlink:href="#ArialMT-64" transform="translate(844.873047 0)"/>
     <use xlink:href="#ArialMT-20" transform="translate(900.488281 0)"/>
     <use xlink:href="#ArialMT-69" transform="translate(928.271484 0)"/>
     <use xlink:href="#ArialMT-6e" transform="translate(950.488281 0)"/>
     <use xlink:href="#ArialMT-20" transform="translate(1006.103516 0)"/>
     <use xlink:href="#ArialMT-6d" transform="translate(1033.886719 0)"/>
     <use xlink:href="#ArialMT-61" transform="translate(1117.1875 0)"/>
     <use xlink:href="#ArialMT-6e" transform="translate(1172.802734 0)"/>
     <use xlink:href="#ArialMT-79" transform="translate(1228.417969 0)"/>
     <use xlink:href="#ArialMT-20" transform="translate(1278.417969 0)"/>
     <use xlink:href="#ArialMT-73" transform="translate(1306.201172 0)"/>
     <use xlink:href="#ArialMT-70" transform="translate(1356.201172 0)"/>
     <use xlink:href="#ArialMT-6c" transform="translate(1411.816406 0)"/>
     <use xlink:href="#ArialMT-69" transform="translate(1434.033203 0)"/>
     <use xlink:href="#ArialMT-74" transform="translate(1456.25 0)"/>
     <use xlink:href="#ArialMT-20" transform="translate(1484.033203 0)"/>
     <use xlink:href="#ArialMT-72" transform="translate(1511.816406 0)"/>
     <use xlink:href="#ArialMT-75" transform="translate(1545.117188 0)"/>
     <use xlink:href="#ArialMT-6c" transform="translate(1600.732422 0)"/>
     <use xlink:href="#ArialMT-65" transform="translate(1622.949219 0)"/>
     <use xlink:href="#ArialMT-73" transform="translate(1678.564453 0)"/>
     <use xlink:href="#ArialMT-2e" transform="translate(1728.564453 0)"/>
    </g>
   </g>
   <g id="text_14">
    <!-- impervious -->
    <g style="fill: #fffdfa" transform="translate(388.555087 90.233879) scale(0.108 -0.108)">
     <use xlink:href="#Arial-BoldMT-69"/>
     <use xlink:href="#Arial-BoldMT-6d" transform="translate(27.783203 0)"/>
     <use xlink:href="#Arial-BoldMT-70" transform="translate(116.699219 0)"/>
     <use xlink:href="#Arial-BoldMT-65" transform="translate(177.783203 0)"/>
     <use xlink:href="#Arial-BoldMT-72" transform="translate(233.398438 0)"/>
     <use xlink:href="#Arial-BoldMT-76" transform="translate(272.314453 0)"/>
     <use xlink:href="#Arial-BoldMT-69" transform="translate(327.929688 0)"/>
     <use xlink:href="#Arial-BoldMT-6f" transform="translate(355.712891 0)"/>
     <use xlink:href="#Arial-BoldMT-75" transform="translate(416.796875 0)"/>
     <use xlink:href="#Arial-BoldMT-73" transform="translate(477.880859 0)"/>
    </g>
   </g>
   <g id="text_15">
    <!-- land cover -->
    <g style="fill: #fffdfa" transform="translate(474.723563 90.233879) scale(0.108 -0.108)">
     <use xlink:href="#Arial-BoldMT-6c"/>
     <use xlink:href="#Arial-BoldMT-61" transform="translate(27.783203 0)"/>
     <use xlink:href="#Arial-BoldMT-6e" transform="translate(83.398438 0)"/>
     <use xlink:href="#Arial-BoldMT-64" transform="translate(144.482422 0)"/>
     <use xlink:href="#Arial-BoldMT-20" transform="translate(205.566406 0)"/>
     <use xlink:href="#Arial-BoldMT-63" transform="translate(233.349609 0)"/>
     <use xlink:href="#Arial-BoldMT-6f" transform="translate(288.964844 0)"/>
     <use xlink:href="#Arial-BoldMT-76" transform="translate(350.048828 0)"/>
     <use xlink:href="#Arial-BoldMT-65" transform="translate(405.664062 0)"/>
     <use xlink:href="#Arial-BoldMT-72" transform="translate(461.279297 0)"/>
    </g>
   </g>
   <g id="text_16">
    <!-- elevation -->
    <g style="fill: #fffdfa" transform="translate(562.695131 90.233879) scale(0.108 -0.108)">
     <use xlink:href="#Arial-BoldMT-65"/>
     <use xlink:href="#Arial-BoldMT-6c" transform="translate(55.615234 0)"/>
     <use xlink:href="#Arial-BoldMT-65" transform="translate(83.398438 0)"/>
     <use xlink:href="#Arial-BoldMT-76" transform="translate(139.013672 0)"/>
     <use xlink:href="#Arial-BoldMT-61" transform="translate(194.628906 0)"/>
     <use xlink:href="#Arial-BoldMT-74" transform="translate(250.244141 0)"/>
     <use xlink:href="#Arial-BoldMT-69" transform="translate(283.544922 0)"/>
     <use xlink:href="#Arial-BoldMT-6f" transform="translate(311.328125 0)"/>
     <use xlink:href="#Arial-BoldMT-6e" transform="translate(372.412109 0)"/>
    </g>
   </g>
   <g id="text_17">
    <!-- water dist. -->
    <g style="fill: #fffdfa" transform="translate(390.656869 110.513831) scale(0.108 -0.108)">
     <use xlink:href="#Arial-BoldMT-77"/>
     <use xlink:href="#Arial-BoldMT-61" transform="translate(77.783203 0)"/>
     <use xlink:href="#Arial-BoldMT-74" transform="translate(133.398438 0)"/>
     <use xlink:href="#Arial-BoldMT-65" transform="translate(166.699219 0)"/>
     <use xlink:href="#Arial-BoldMT-72" transform="translate(222.314453 0)"/>
     <use xlink:href="#Arial-BoldMT-20" transform="translate(261.230469 0)"/>
     <use xlink:href="#Arial-BoldMT-64" transform="translate(289.013672 0)"/>
     <use xlink:href="#Arial-BoldMT-69" transform="translate(350.097656 0)"/>
     <use xlink:href="#Arial-BoldMT-73" transform="translate(377.880859 0)"/>
     <use xlink:href="#Arial-BoldMT-74" transform="translate(433.496094 0)"/>
     <use xlink:href="#Arial-BoldMT-2e" transform="translate(466.796875 0)"/>
    </g>
   </g>
   <g id="text_18">
    <!-- NDVI -->
    <g style="fill: #fffdfa" transform="translate(488.830219 110.513831) scale(0.108 -0.108)">
     <use xlink:href="#Arial-BoldMT-4e"/>
     <use xlink:href="#Arial-BoldMT-44" transform="translate(72.216797 0)"/>
     <use xlink:href="#Arial-BoldMT-56" transform="translate(144.433594 0)"/>
     <use xlink:href="#Arial-BoldMT-49" transform="translate(211.132812 0)"/>
    </g>
   </g>
   <g id="text_19">
    <!-- climate -->
    <g style="fill: #fffdfa" transform="translate(567.492694 110.513831) scale(0.108 -0.108)">
     <use xlink:href="#Arial-BoldMT-63"/>
     <use xlink:href="#Arial-BoldMT-6c" transform="translate(55.615234 0)"/>
     <use xlink:href="#Arial-BoldMT-69" transform="translate(83.398438 0)"/>
     <use xlink:href="#Arial-BoldMT-6d" transform="translate(111.181641 0)"/>
     <use xlink:href="#Arial-BoldMT-61" transform="translate(200.097656 0)"/>
     <use xlink:href="#Arial-BoldMT-74" transform="translate(255.712891 0)"/>
     <use xlink:href="#Arial-BoldMT-65" transform="translate(289.013672 0)"/>
    </g>
   </g>
   <g id="text_20">
    <!-- NDVI -->
    <g style="fill: #fffdfa" transform="translate(418.519125 152.14695) scale(0.08 -0.08)">
     <use xlink:href="#Arial-BoldMT-4e"/>
     <use xlink:href="#Arial-BoldMT-44" transform="translate(72.216797 0)"/>
     <use xlink:href="#Arial-BoldMT-56" transform="translate(144.433594 0)"/>
     <use xlink:href="#Arial-BoldMT-49" transform="translate(211.132812 0)"/>
    </g>
   </g>
   <g id="text_21">
    <!-- water -->
    <g style="fill: #fffdfa" transform="translate(386.249869 174.991826) scale(0.078 -0.078)">
     <use xlink:href="#Arial-BoldMT-77"/>
     <use xlink:href="#Arial-BoldMT-61" transform="translate(77.783203 0)"/>
     <use xlink:href="#Arial-BoldMT-74" transform="translate(133.398438 0)"/>
     <use xlink:href="#Arial-BoldMT-65" transform="translate(166.699219 0)"/>
     <use xlink:href="#Arial-BoldMT-72" transform="translate(222.314453 0)"/>
    </g>
   </g>
   <g id="text_22">
    <!-- elev. -->
    <g style="fill: #fffdfa" transform="translate(451.328991 174.991826) scale(0.078 -0.078)">
     <use xlink:href="#Arial-BoldMT-65"/>
     <use xlink:href="#Arial-BoldMT-6c" transform="translate(55.615234 0)"/>
     <use xlink:href="#Arial-BoldMT-65" transform="translate(83.398438 0)"/>
     <use xlink:href="#Arial-BoldMT-76" transform="translate(139.013672 0)"/>
     <use xlink:href="#Arial-BoldMT-2e" transform="translate(187.253906 0)"/>
    </g>
   </g>
   <g id="text_23">
    <!-- imperv. -->
    <g style="fill: #fffdfa" transform="translate(561.454875 152.14695) scale(0.08 -0.08)">
     <use xlink:href="#Arial-BoldMT-69"/>
     <use xlink:href="#Arial-BoldMT-6d" transform="translate(27.783203 0)"/>
     <use xlink:href="#Arial-BoldMT-70" transform="translate(116.699219 0)"/>
     <use xlink:href="#Arial-BoldMT-65" transform="translate(177.783203 0)"/>
     <use xlink:href="#Arial-BoldMT-72" transform="translate(233.398438 0)"/>
     <use xlink:href="#Arial-BoldMT-76" transform="translate(272.314453 0)"/>
     <use xlink:href="#Arial-BoldMT-2e" transform="translate(320.554688 0)"/>
    </g>
   </g>
   <g id="text_24">
    <!-- cover -->
    <g style="fill: #fffdfa" transform="translate(533.343103 174.991826) scale(0.078 -0.078)">
     <use xlink:href="#Arial-BoldMT-63"/>
     <use xlink:href="#Arial-BoldMT-6f" transform="translate(55.615234 0)"/>
     <use xlink:href="#Arial-BoldMT-76" transform="translate(116.699219 0)"/>
     <use xlink:href="#Arial-BoldMT-65" transform="translate(172.314453 0)"/>
     <use xlink:href="#Arial-BoldMT-72" transform="translate(227.929688 0)"/>
    </g>
   </g>
   <g id="text_25">
    <!-- clim. -->
    <g style="fill: #fffdfa" transform="translate(598.139475 174.991826) scale(0.078 -0.078)">
     <use xlink:href="#Arial-BoldMT-63"/>
     <use xlink:href="#Arial-BoldMT-6c" transform="translate(55.615234 0)"/>
     <use xlink:href="#Arial-BoldMT-69" transform="translate(83.398438 0)"/>
     <use xlink:href="#Arial-BoldMT-6d" transform="translate(111.181641 0)"/>
     <use xlink:href="#Arial-BoldMT-2e" transform="translate(200.097656 0)"/>
    </g>
   </g>
   <g id="text_26">
    <!-- Many Shallow Decision Paths -->
    <g style="fill: #5c696d" transform="translate(429.284109 217.782072) scale(0.11 -0.11)">
     <defs>
      <path id="ArialMT-4d" d="M 475 0 
L 475 4581 
L 1388 4581 
L 2472 1338 
Q 2622 884 2691 659 
Q 2769 909 2934 1394 
L 4031 4581 
L 4847 4581 
L 4847 0 
L 4263 0 
L 4263 3834 
L 2931 0 
L 2384 0 
L 1059 3900 
L 1059 0 
L 475 0 
z
" transform="scale(0.015625)"/>
      <path id="ArialMT-44" d="M 494 0 
L 494 4581 
L 2072 4581 
Q 2606 4581 2888 4516 
Q 3281 4425 3559 4188 
Q 3922 3881 4101 3404 
Q 4281 2928 4281 2316 
Q 4281 1794 4159 1391 
Q 4038 988 3847 723 
Q 3656 459 3429 307 
Q 3203 156 2883 78 
Q 2563 0 2147 0 
L 494 0 
z
M 1100 541 
L 2078 541 
Q 2531 541 2789 625 
Q 3047 709 3200 863 
Q 3416 1078 3536 1442 
Q 3656 1806 3656 2325 
Q 3656 3044 3420 3430 
Q 3184 3816 2847 3947 
Q 2603 4041 2063 4041 
L 1100 4041 
L 1100 541 
z
" transform="scale(0.015625)"/>
      <path id="ArialMT-50" d="M 494 0 
L 494 4581 
L 2222 4581 
Q 2678 4581 2919 4538 
Q 3256 4481 3484 4323 
Q 3713 4166 3852 3881 
Q 3991 3597 3991 3256 
Q 3991 2672 3619 2267 
Q 3247 1863 2275 1863 
L 1100 1863 
L 1100 0 
L 494 0 
z
M 1100 2403 
L 2284 2403 
Q 2872 2403 3119 2622 
Q 3366 2841 3366 3238 
Q 3366 3525 3220 3729 
Q 3075 3934 2838 4000 
Q 2684 4041 2272 4041 
L 1100 4041 
L 1100 2403 
z
" transform="scale(0.015625)"/>
     </defs>
     <use xlink:href="#ArialMT-4d"/>
     <use xlink:href="#ArialMT-61" transform="translate(83.300781 0)"/>
     <use xlink:href="#ArialMT-6e" transform="translate(138.916016 0)"/>
     <use xlink:href="#ArialMT-79" transform="translate(194.53125 0)"/>
     <use xlink:href="#ArialMT-20" transform="translate(244.53125 0)"/>
     <use xlink:href="#ArialMT-53" transform="translate(272.314453 0)"/>
     <use xlink:href="#ArialMT-68" transform="translate(339.013672 0)"/>
     <use xlink:href="#ArialMT-61" transform="translate(394.628906 0)"/>
     <use xlink:href="#ArialMT-6c" transform="translate(450.244141 0)"/>
     <use xlink:href="#ArialMT-6c" transform="translate(472.460938 0)"/>
     <use xlink:href="#ArialMT-6f" transform="translate(494.677734 0)"/>
     <use xlink:href="#ArialMT-77" transform="translate(550.292969 0)"/>
     <use xlink:href="#ArialMT-20" transform="translate(622.509766 0)"/>
     <use xlink:href="#ArialMT-44" transform="translate(650.292969 0)"/>
     <use xlink:href="#ArialMT-65" transform="translate(722.509766 0)"/>
     <use xlink:href="#ArialMT-63" transform="translate(778.125 0)"/>
     <use xlink:href="#ArialMT-69" transform="translate(828.125 0)"/>
     <use xlink:href="#ArialMT-73" transform="translate(850.341797 0)"/>
     <use xlink:href="#ArialMT-69" transform="translate(900.341797 0)"/>
     <use xlink:href="#ArialMT-6f" transform="translate(922.558594 0)"/>
     <use xlink:href="#ArialMT-6e" transform="translate(978.173828 0)"/>
     <use xlink:href="#ArialMT-20" transform="translate(1033.789062 0)"/>
     <use xlink:href="#ArialMT-50" transform="translate(1061.572266 0)"/>
     <use xlink:href="#ArialMT-61" transform="translate(1128.271484 0)"/>
     <use xlink:href="#ArialMT-74" transform="translate(1183.886719 0)"/>
     <use xlink:href="#ArialMT-68" transform="translate(1211.669922 0)"/>
     <use xlink:href="#ArialMT-73" transform="translate(1267.285156 0)"/>
    </g>
   </g>
   <g id="text_27">
    <!-- Average tree votes become the risk score. -->
    <g style="fill: #1e2a2f" transform="translate(393.201313 276.00516) scale(0.116 -0.116)">
     <defs>
      <path id="ArialMT-41" d="M -9 0 
L 1750 4581 
L 2403 4581 
L 4278 0 
L 3588 0 
L 3053 1388 
L 1138 1388 
L 634 0 
L -9 0 
z
M 1313 1881 
L 2866 1881 
L 2388 3150 
Q 2169 3728 2063 4100 
Q 1975 3659 1816 3225 
L 1313 1881 
z
" transform="scale(0.015625)"/>
      <path id="ArialMT-76" d="M 1344 0 
L 81 3319 
L 675 3319 
L 1388 1331 
Q 1503 1009 1600 663 
Q 1675 925 1809 1294 
L 2547 3319 
L 3125 3319 
L 1869 0 
L 1344 0 
z
" transform="scale(0.015625)"/>
     </defs>
     <use xlink:href="#ArialMT-41"/>
     <use xlink:href="#ArialMT-76" transform="translate(64.949219 0)"/>
     <use xlink:href="#ArialMT-65" transform="translate(114.949219 0)"/>
     <use xlink:href="#ArialMT-72" transform="translate(170.564453 0)"/>
     <use xlink:href="#ArialMT-61" transform="translate(203.865234 0)"/>
     <use xlink:href="#ArialMT-67" transform="translate(259.480469 0)"/>
     <use xlink:href="#ArialMT-65" transform="translate(315.095703 0)"/>
     <use xlink:href="#ArialMT-20" transform="translate(370.710938 0)"/>
     <use xlink:href="#ArialMT-74" transform="translate(398.494141 0)"/>
     <use xlink:href="#ArialMT-72" transform="translate(426.277344 0)"/>
     <use xlink:href="#ArialMT-65" transform="translate(459.578125 0)"/>
     <use xlink:href="#ArialMT-65" transform="translate(515.193359 0)"/>
     <use xlink:href="#ArialMT-20" transform="translate(570.808594 0)"/>
     <use xlink:href="#ArialMT-76" transform="translate(598.591797 0)"/>
     <use xlink:href="#ArialMT-6f" transform="translate(648.591797 0)"/>
     <use xlink:href="#ArialMT-74" transform="translate(704.207031 0)"/>
     <use xlink:href="#ArialMT-65" transform="translate(731.990234 0)"/>
     <use xlink:href="#ArialMT-73" transform="translate(787.605469 0)"/>
     <use xlink:href="#ArialMT-20" transform="translate(837.605469 0)"/>
     <use xlink:href="#ArialMT-62" transform="translate(865.388672 0)"/>
     <use xlink:href="#ArialMT-65" transform="translate(921.003906 0)"/>
     <use xlink:href="#ArialMT-63" transform="translate(976.619141 0)"/>
     <use xlink:href="#ArialMT-6f" transform="translate(1026.619141 0)"/>
     <use xlink:href="#ArialMT-6d" transform="translate(1082.234375 0)"/>
     <use xlink:href="#ArialMT-65" transform="translate(1165.535156 0)"/>
     <use xlink:href="#ArialMT-20" transform="translate(1221.150391 0)"/>
     <use xlink:href="#ArialMT-74" transform="translate(1248.933594 0)"/>
     <use xlink:href="#ArialMT-68" transform="translate(1276.716797 0)"/>
     <use xlink:href="#ArialMT-65" transform="translate(1332.332031 0)"/>
     <use xlink:href="#ArialMT-20" transform="translate(1387.947266 0)"/>
     <use xlink:href="#ArialMT-72" transform="translate(1415.730469 0)"/>
     <use xlink:href="#ArialMT-69" transform="translate(1449.03125 0)"/>
     <use xlink:href="#ArialMT-73" transform="translate(1471.248047 0)"/>
     <use xlink:href="#ArialMT-6b" transform="translate(1521.248047 0)"/>
     <use xlink:href="#ArialMT-20" transform="translate(1571.248047 0)"/>
     <use xlink:href="#ArialMT-73" transform="translate(1599.03125 0)"/>
     <use xlink:href="#ArialMT-63" transform="translate(1649.03125 0)"/>
     <use xlink:href="#ArialMT-6f" transform="translate(1699.03125 0)"/>
     <use xlink:href="#ArialMT-72" transform="translate(1754.646484 0)"/>
     <use xlink:href="#ArialMT-65" transform="translate(1787.947266 0)"/>
     <use xlink:href="#ArialMT-2e" transform="translate(1843.5625 0)"/>
    </g>
   </g>
  </g>
 </g>
 <defs>
  <clipPath id="p93333376fe">
   <rect x="2.88" y="2.88" width="669.6" height="327.096"/>
  </clipPath>
 </defs>
</svg>
