<?xml version="1.0" encoding="utf-8" standalone="no"?>
<!DOCTYPE svg PUBLIC "-//W3C//DTD SVG 1.1//EN"
  "http://www.w3.org/Graphics/SVG/1.1/DTD/svg11.dtd">
<svg xmlns:xlink="http://www.w3.org/1999/xlink" width="672.84pt" height="280.512pt" viewBox="0 0 672.84 280.512" xmlns="http://www.w3.org/2000/svg" version="1.1">
 <metadata>
  <rdf:RDF xmlns:dc="http://purl.org/dc/elements/1.1/" xmlns:cc="http://creativecommons.org/ns#" xmlns:rdf="http://www.w3.org/1999/02/22-rdf-syntax-ns#">
   <cc:Work>
    <dc:type rdf:resource="http://purl.org/dc/dcmitype/StillImage"/>
    <dc:date>2026-04-18T15:04:13.003259</dc:date>
    <dc:format>image/svg+xml</dc:format>
    <dc:creator>
     <cc:Agent>
      <dc:title>Matplotlib v3.10.8, https://matplotlib.org/</dc:title>
     </cc:Agent>
    </dc:creator>
   </cc:Work>
  </rdf:RDF>
 </metadata>
 <defs>
  <style type="text/css">*{stroke-linejoin: round; stroke-linecap: butt}</style>
 </defs>
 <g id="figure_1">
  <g id="patch_1">
   <path d="M 0 280.512 
L 672.84 280.512 
L 672.84 0 
L 0 0 
L 0 280.512 
z
" style="fill: none; opacity: 0"/>
  </g>
  <g id="axes_1">
   <g id="patch_2">
    <path d="M 38.14668 251.490816 
L 298.88892 251.490816 
Q 321.93432 251.490816 321.93432 242.176896 
L 321.93432 38.335104 
Q 321.93432 29.021184 298.88892 29.021184 
L 38.14668 29.021184 
Q 15.10128 29.021184 15.10128 38.335104 
L 15.10128 242.176896 
Q 15.10128 251.490816 38.14668 251.490816 
z
" clip-path="url(#p1333918ac1)" style="fill: #fffdfa; stroke: #dbc7aa; stroke-width: 1.6; stroke-linejoin: miter"/>
   </g>
   <g id="patch_3">
    <path d="M 373.95108 251.490816 
L 634.69332 251.490816 
Q 657.73872 251.490816 657.73872 242.176896 
L 657.73872 38.335104 
Q 657.73872 29.021184 634.69332 29.021184 
L 373.95108 29.021184 
Q 350.90568 29.021184 350.90568 38.335104 
L 350.90568 242.176896 
Q 350.90568 251.490816 373.95108 251.490816 
z
" clip-path="url(#p1333918ac1)" style="fill: #fffdfa; stroke: #dbc7aa; stroke-width: 1.6; stroke-linejoin: miter"/>
   </g>
   <g id="patch_4">
    <path d="M 82.9206 188.15616 
L 194.8554 188.15616 
Q 211.3164 188.15616 211.3164 181.50336 
L 211.3164 117.63648 
Q 211.3164 110.98368 194.8554 110.98368 
L 82.9206 110.98368 
Q 66.4596 110.98368 66.4596 117.63648 
L 66.4596 181.50336 
Q 66.4596 188.15616 82.9206 188.15616 
z
" clip-path="url(#p1333918ac1)" style="fill: #fffaf2; stroke: #3a7182; stroke-width: 1.6; stroke-linejoin: miter"/>
   </g>
   <g id="patch_5">
    <path d="M 86.2128 177.245568 
C 87.784383 177.245568 89.29181 176.993215 90.403087 176.544086 
C 91.514363 176.094958 92.13876 175.485724 92.13876 174.85056 
C 92.13876 174.215396 91.514363 173.606162 90.403087 173.157034 
C 89.29181 172.707905 87.784383 172.455552 86.2128 172.455552 
C 84.641217 172.455552 83.13379 172.707905 82.022513 173.157034 
C 80.911237 173.606162 80.28684 174.215396 80.28684 174.85056 
C 80.28684 175.485724 80.911237 176.094958 82.022513 176.544086 
C 83.13379 176.993215 84.641217 177.245568 86.2128 177.245568 
z
" clip-path="url(#p1333918ac1)" style="fill: #3a7182"/>
   </g>
   <g id="patch_6">
    <path d="M 108.59976 177.245568 
C 110.171343 177.245568 111.67877 176.993215 112.790047 176.544086 
C 113.901323 176.094958 114.52572 175.485724 114.52572 174.85056 
C 114.52572 174.215396 113.901323 173.606162 112.790047 173.157034 
C 111.67877 172.707905 110.171343 172.455552 108.59976 172.455552 
C 107.028177 172.455552 105.52075 172.707905 104.409473 173.157034 
C 103.298197 173.606162 102.6738 174.215396 102.6738 174.85056 
C 102.6738 175.485724 103.298197 176.094958 104.409473 176.544086 
C 105.52075 176.993215 107.028177 177.245568 108.59976 177.245568 
z
" clip-path="url(#p1333918ac1)" style="fill: #3a7182"/>
   </g>
   <g id="patch_7">
    <path d="M 130.98672 177.245568 
C 132.558303 177.245568 134.06573 176.993215 135.177007 176.544086 
C 136.288283 176.094958 136.91268 175.485724 136.91268 174.85056 
C 136.91268 174.215396 136.288283 173.606162 135.177007 173.157034 
C 134.06573 172.707905 132.558303 172.455552 130.98672 172.455552 
C 129.415137 172.455552 127.90771 172.707905 126.796433 173.157034 
C 125.685157 173.606162 125.06076 174.215396 125.06076 174.85056 
C 125.06076 175.485724 125.685157 176.094958 126.796433 176.544086 
C 127.90771 176.993215 129.415137 177.245568 130.98672 177.245568 
z
" clip-path="url(#p1333918ac1)" style="fill: #3a7182"/>
   </g>
   <g id="patch_8">
    <path d="M 153.37368 177.245568 
C 154.945263 177.245568 156.45269 176.993215 157.563967 176.544086 
C 158.675243 176.094958 159.29964 175.485724 159.29964 174.85056 
C 159.29964 174.215396 158.675243 173.606162 157.563967 173.157034 
C 156.45269 172.707905 154.945263 172.455552 153.37368 172.455552 
C 151.802097 172.455552 150.29467 172.707905 149.183393 173.157034 
C 148.072117 173.606162 147.44772 174.215396 147.44772 174.85056 
C 147.44772 175.485724 148.072117 176.094958 149.183393 176.544086 
C 150.29467 176.993215 151.802097 177.245568 153.37368 177.245568 
z
" clip-path="url(#p1333918ac1)" style="fill: #d26b34"/>
   </g>
   <g id="patch_9">
    <path d="M 175.76064 177.245568 
C 177.332223 177.245568 178.83965 176.993215 179.950927 176.544086 
C 181.062203 176.094958 181.6866 175.485724 181.6866 174.85056 
C 181.6866 174.215396 181.062203 173.606162 179.950927 173.157034 
C 178.83965 172.707905 177.332223 172.455552 175.76064 172.455552 
C 174.189057 172.455552 172.68163 172.707905 171.570353 173.157034 
C 170.459077 173.606162 169.83468 174.215396 169.83468 174.85056 
C 169.83468 175.485724 170.459077 176.094958 171.570353 176.544086 
C 172.68163 176.993215 174.189057 177.245568 175.76064 177.245568 
z
" clip-path="url(#p1333918ac1)" style="fill: #d26b34"/>
   </g>
   <g id="patch_10">
    <path d="M 86.2128 163.939968 
C 87.784383 163.939968 89.29181 163.687615 90.403087 163.238486 
C 91.514363 162.789358 92.13876 162.180124 92.13876 161.54496 
C 92.13876 160.909796 91.514363 160.300562 90.403087 159.851434 
C 89.29181 159.402305 87.784383 159.149952 86.2128 159.149952 
C 84.641217 159.149952 83.13379 159.402305 82.022513 159.851434 
C 80.911237 160.300562 80.28684 160.909796 80.28684 161.54496 
C 80.28684 162.180124 80.911237 162.789358 82.022513 163.238486 
C 83.13379 163.687615 84.641217 163.939968 86.2128 163.939968 
z
" clip-path="url(#p1333918ac1)" style="fill: #3a7182"/>
   </g>
   <g id="patch_11">
    <path d="M 108.59976 163.939968 
C 110.171343 163.939968 111.67877 163.687615 112.790047 163.238486 
C 113.901323 162.789358 114.52572 162.180124 114.52572 161.54496 
C 114.52572 160.909796 113.901323 160.300562 112.790047 159.851434 
C 111.67877 159.402305 110.171343 159.149952 108.59976 159.149952 
C 107.028177 159.149952 105.52075 159.402305 104.409473 159.851434 
C 103.298197 160.300562 102.6738 160.909796 102.6738 161.54496 
C 102.6738 162.180124 103.298197 162.789358 104.409473 163.238486 
C 105.52075 163.687615 107.028177 163.939968 108.59976 163.939968 
z
" clip-path="url(#p1333918ac1)" style="fill: #3a7182"/>
   </g>
   <g id="patch_12">
    <path d="M 130.98672 163.939968 
C 132.558303 163.939968 134.06573 163.687615 135.177007 163.238486 
C 136.288283 162.789358 136.91268 162.180124 136.91268 161.54496 
C 136.91268 160.909796 136.288283 160.300562 135.177007 159.851434 
C 134.06573 159.402305 132.558303 159.149952 130.98672 159.149952 
C 129.415137 159.149952 127.90771 159.402305 126.796433 159.851434 
C 125.685157 160.300562 125.06076 160.909796 125.06076 161.54496 
C 125.06076 162.180124 125.685157 162.789358 126.796433 163.238486 
C 127.90771 163.687615 129.415137 163.939968 130.98672 163.939968 
z
" clip-path="url(#p1333918ac1)" style="fill: #3a7182"/>
   </g>
   <g id="patch_13">
    <path d="M 153.37368 163.939968 
C 154.945263 163.939968 156.45269 163.687615 157.563967 163.238486 
C 158.675243 162.789358 159.29964 162.180124 159.29964 161.54496 
C 159.29964 160.909796 158.675243 160.300562 157.563967 159.851434 
C 156.45269 159.402305 154.945263 159.149952 153.37368 159.149952 
C 151.802097 159.149952 150.29467 159.402305 149.183393 159.851434 
C 148.072117 160.300562 147.44772 160.909796 147.44772 161.54496 
C 147.44772 162.180124 148.072117 162.789358 149.183393 163.238486 
C 150.29467 163.687615 151.802097 163.939968 153.37368 163.939968 
z
" clip-path="url(#p1333918ac1)" style="fill: #d26b34"/>
   </g>
   <g id="patch_14">
    <path d="M 175.76064 163.939968 
C 177.332223 163.939968 178.83965 163.687615 179.950927 163.238486 
C 181.062203 162.789358 181.6866 162.180124 181.6866 161.54496 
C 181.6866 160.909796 181.062203 160.300562 179.950927 159.851434 
C 178.83965 159.402305 177.332223 159.149952 175.76064 159.149952 
C 174.189057 159.149952 172.68163 159.402305 171.570353 159.851434 
C 170.459077 160.300562 169.83468 160.909796 169.83468 161.54496 
C 169.83468 162.180124 170.459077 162.789358 171.570353 163.238486 
C 172.68163 163.687615 174.189057 163.939968 175.76064 163.939968 
z
" clip-path="url(#p1333918ac1)" style="fill: #d26b34"/>
   </g>
   <g id="patch_15">
    <path d="M 86.2128 150.634368 
C 87.784383 150.634368 89.29181 150.382015 90.403087 149.932886 
C 91.514363 149.483758 92.13876 148.874524 92.13876 148.23936 
C 92.13876 147.604196 91.514363 146.994962 90.403087 146.545834 
C 89.29181 146.096705 87.784383 145.844352 86.2128 145.844352 
C 84.641217 145.844352 83.13379 146.096705 82.022513 146.545834 
C 80.911237 146.994962 80.28684 147.604196 80.28684 148.23936 
C 80.28684 148.874524 80.911237 149.483758 82.022513 149.932886 
C 83.13379 150.382015 84.641217 150.634368 86.2128 150.634368 
z
" clip-path="url(#p1333918ac1)" style="fill: #3a7182"/>
   </g>
   <g id="patch_16">
    <path d="M 108.59976 150.634368 
C 110.171343 150.634368 111.67877 150.382015 112.790047 149.932886 
C 113.901323 149.483758 114.52572 148.874524 114.52572 148.23936 
C 114.52572 147.604196 113.901323 146.994962 112.790047 146.545834 
C 111.67877 146.096705 110.171343 145.844352 108.59976 145.844352 
C 107.028177 145.844352 105.52075 146.096705 104.409473 146.545834 
C 103.298197 146.994962 102.6738 147.604196 102.6738 148.23936 
C 102.6738 148.874524 103.298197 149.483758 104.409473 149.932886 
C 105.52075 150.382015 107.028177 150.634368 108.59976 150.634368 
z
" clip-path="url(#p1333918ac1)" style="fill: #3a7182"/>
   </g>
   <g id="patch_17">
    <path d="M 130.98672 150.634368 
C 132.558303 150.634368 134.06573 150.382015 135.177007 149.932886 
C 136.288283 149.483758 136.91268 148.874524 136.91268 148.23936 
C 136.91268 147.604196 136.288283 146.994962 135.177007 146.545834 
C 134.06573 146.096705 132.558303 145.844352 130.98672 145.844352 
C 129.415137 145.844352 127.90771 146.096705 126.796433 146.545834 
C 125.685157 146.994962 125.06076 147.604196 125.06076 148.23936 
C 125.06076 148.874524 125.685157 149.483758 126.796433 149.932886 
C 127.90771 150.382015 129.415137 150.634368 130.98672 150.634368 
z
" clip-path="url(#p1333918ac1)" style="fill: #3a7182"/>
   </g>
   <g id="patch_18">
    <path d="M 153.37368 150.634368 
C 154.945263 150.634368 156.45269 150.382015 157.563967 149.932886 
C 158.675243 149.483758 159.29964 148.874524 159.29964 148.23936 
C 159.29964 147.604196 158.675243 146.994962 157.563967 146.545834 
C 156.45269 146.096705 154.945263 145.844352 153.37368 145.844352 
C 151.802097 145.844352 150.29467 146.096705 149.183393 146.545834 
C 148.072117 146.994962 147.44772 147.604196 147.44772 148.23936 
C 147.44772 148.874524 148.072117 149.483758 149.183393 149.932886 
C 150.29467 150.382015 151.802097 150.634368 153.37368 150.634368 
z
" clip-path="url(#p1333918ac1)" style="fill: #d26b34"/>
   </g>
   <g id="patch_19">
    <path d="M 175.76064 150.634368 
C 177.332223 150.634368 178.83965 150.382015 179.950927 149.932886 
C 181.062203 149.483758 181.6866 148.874524 181.6866 148.23936 
C 181.6866 147.604196 181.062203 146.994962 179.950927 146.545834 
C 178.83965 146.096705 177.332223 145.844352 175.76064 145.844352 
C 174.189057 145.844352 172.68163 146.096705 171.570353 146.545834 
C 170.459077 146.994962 169.83468 147.604196 169.83468 148.23936 
C 169.83468 148.874524 170.459077 149.483758 171.570353 149.932886 
C 172.68163 150.382015 174.189057 150.634368 175.76064 150.634368 
z
" clip-path="url(#p1333918ac1)" style="fill: #d26b34"/>
   </g>
   <g id="patch_20">
    <path d="M 86.2128 137.328768 
C 87.784383 137.328768 89.29181 137.076415 90.403087 136.627286 
C 91.514363 136.178158 92.13876 135.568924 92.13876 134.93376 
C 92.13876 134.298596 91.514363 133.689362 90.403087 133.240234 
C 89.29181 132.791105 87.784383 132.538752 86.2128 132.538752 
C 84.641217 132.538752 83.13379 132.791105 82.022513 133.240234 
C 80.911237 133.689362 80.28684 134.298596 80.28684 134.93376 
C 80.28684 135.568924 80.911237 136.178158 82.022513 136.627286 
C 83.13379 137.076415 84.641217 137.328768 86.2128 137.328768 
z
" clip-path="url(#p1333918ac1)" style="fill: #3a7182"/>
   </g>
   <g id="patch_21">
    <path d="M 108.59976 137.328768 
C 110.171343 137.328768 111.67877 137.076415 112.790047 136.627286 
C 113.901323 136.178158 114.52572 135.568924 114.52572 134.93376 
C 114.52572 134.298596 113.901323 133.689362 112.790047 133.240234 
C 111.67877 132.791105 110.171343 132.538752 108.59976 132.538752 
C 107.028177 132.538752 105.52075 132.791105 104.409473 133.240234 
C 103.298197 133.689362 102.6738 134.298596 102.6738 134.93376 
C 102.6738 135.568924 103.298197 136.178158 104.409473 136.627286 
C 105.52075 137.076415 107.028177 137.328768 108.59976 137.328768 
z
" clip-path="url(#p1333918ac1)" style="fill: #3a7182"/>
   </g>
   <g id="patch_22">
    <path d="M 130.98672 137.328768 
C 132.558303 137.328768 134.06573 137.076415 135.177007 136.627286 
C 136.288283 136.178158 136.91268 135.568924 136.91268 134.93376 
C 136.91268 134.298596 136.288283 133.689362 135.177007 133.240234 
C 134.06573 132.791105 132.558303 132.538752 130.98672 132.538752 
C 129.415137 132.538752 127.90771 132.791105 126.796433 133.240234 
C 125.685157 133.689362 125.06076 134.298596 125.06076 134.93376 
C 125.06076 135.568924 125.685157 136.178158 126.796433 136.627286 
C 127.90771 137.076415 129.415137 137.328768 130.98672 137.328768 
z
" clip-path="url(#p1333918ac1)" style="fill: #3a7182"/>
   </g>
   <g id="patch_23">
    <path d="M 153.37368 137.328768 
C 154.945263 137.328768 156.45269 137.076415 157.563967 136.627286 
C 158.675243 136.178158 159.29964 135.568924 159.29964 134.93376 
C 159.29964 134.298596 158.675243 133.689362 157.563967 133.240234 
C 156.45269 132.791105 154.945263 132.538752 153.37368 132.538752 
C 151.802097 132.538752 150.29467 132.791105 149.183393 133.240234 
C 148.072117 133.689362 147.44772 134.298596 147.44772 134.93376 
C 147.44772 135.568924 148.072117 136.178158 149.183393 136.627286 
C 150.29467 137.076415 151.802097 137.328768 153.37368 137.328768 
z
" clip-path="url(#p1333918ac1)" style="fill: #d26b34"/>
   </g>
   <g id="patch_24">
    <path d="M 175.76064 137.328768 
C 177.332223 137.328768 178.83965 137.076415 179.950927 136.627286 
C 181.062203 136.178158 181.6866 135.568924 181.6866 134.93376 
C 181.6866 134.298596 181.062203 133.689362 179.950927 133.240234 
C 178.83965 132.791105 177.332223 132.538752 175.76064 132.538752 
C 174.189057 132.538752 172.68163 132.791105 171.570353 133.240234 
C 170.459077 133.689362 169.83468 134.298596 169.83468 134.93376 
C 169.83468 135.568924 170.459077 136.178158 171.570353 136.627286 
C 172.68163 137.076415 174.189057 137.328768 175.76064 137.328768 
z
" clip-path="url(#p1333918ac1)" style="fill: #d26b34"/>
   </g>
   <g id="patch_25">
    <path d="M 226.482543 148.23936 
Q 257.406319 148.23936 286.317634 148.23936 
" clip-path="url(#p1333918ac1)" style="fill: none; stroke: #5c696d; stroke-width: 1.8; stroke-linecap: round"/>
    <path d="M 279.917634 145.03936 
L 286.317634 148.23936 
L 279.917634 151.43936 
z
" clip-path="url(#p1333918ac1)" style="fill: #5c696d; stroke: #5c696d; stroke-width: 1.8; stroke-linecap: round"/>
   </g>
   <g id="patch_26">
    <path d="M 395.6796 164.20608 
L 454.9392 164.20608 
Q 468.108 164.20608 468.108 158.88384 
L 468.108 132.27264 
Q 468.108 126.9504 454.9392 126.9504 
L 395.6796 126.9504 
Q 382.5108 126.9504 382.5108 132.27264 
L 382.5108 158.88384 
Q 382.5108 164.20608 395.6796 164.20608 
z
" clip-path="url(#p1333918ac1)" style="fill: #fffaf2; stroke: #3a7182; stroke-width: 1.4; stroke-linejoin: miter"/>
   </g>
   <g id="patch_27">
    <path d="M 454.9392 142.91712 
L 514.1988 142.91712 
Q 527.3676 142.91712 527.3676 137.59488 
L 527.3676 110.98368 
Q 527.3676 105.66144 514.1988 105.66144 
L 454.9392 105.66144 
Q 441.7704 105.66144 441.7704 110.98368 
L 441.7704 137.59488 
Q 441.7704 142.91712 454.9392 142.91712 
z
" clip-path="url(#p1333918ac1)" style="fill: #fffaf2; stroke: #8aa07a; stroke-width: 1.4; stroke-linejoin: miter"/>
   </g>
   <g id="patch_28">
    <path d="M 468.108 196.13952 
L 527.3676 196.13952 
Q 540.5364 196.13952 540.5364 190.81728 
L 540.5364 164.20608 
Q 540.5364 158.88384 527.3676 158.88384 
L 468.108 158.88384 
Q 454.9392 158.88384 454.9392 164.20608 
L 454.9392 190.81728 
Q 454.9392 196.13952 468.108 196.13952 
z
" clip-path="url(#p1333918ac1)" style="fill: #fffaf2; stroke: #254d5a; stroke-width: 1.4; stroke-linejoin: miter"/>
   </g>
   <g id="patch_29">
    <path d="M 408.8484 155.823552 
C 410.332673 155.823552 411.756353 155.585218 412.805893 155.161042 
C 413.855432 154.736865 414.44514 154.161477 414.44514 153.5616 
C 414.44514 152.961723 413.855432 152.386335 412.805893 151.962158 
C 411.756353 151.537982 410.332673 151.299648 408.8484 151.299648 
C 407.364127 151.299648 405.940447 151.537982 404.890907 151.962158 
C 403.841368 152.386335 403.25166 152.961723 403.25166 153.5616 
C 403.25166 154.161477 403.841368 154.736865 404.890907 155.161042 
C 405.940447 155.585218 407.364127 155.823552 408.8484 155.823552 
z
" clip-path="url(#p1333918ac1)" style="fill: #3a7182"/>
   </g>
   <g id="patch_30">
    <path d="M 422.0172 145.179072 
C 423.501473 145.179072 424.925153 144.940738 425.974693 144.516562 
C 427.024232 144.092385 427.61394 143.516997 427.61394 142.91712 
C 427.61394 142.317243 427.024232 141.741855 425.974693 141.317678 
C 424.925153 140.893502 423.501473 140.655168 422.0172 140.655168 
C 420.532927 140.655168 419.109247 140.893502 418.059707 141.317678 
C 417.010168 141.741855 416.42046 142.317243 416.42046 142.91712 
C 416.42046 143.516997 417.010168 144.092385 418.059707 144.516562 
C 419.109247 144.940738 420.532927 145.179072 422.0172 145.179072 
z
" clip-path="url(#p1333918ac1)" style="fill: #3a7182"/>
   </g>
   <g id="patch_31">
    <path d="M 435.186 153.162432 
C 436.670273 153.162432 438.093953 152.924098 439.143493 152.499922 
C 440.193032 152.075745 440.78274 151.500357 440.78274 150.90048 
C 440.78274 150.300603 440.193032 149.725215 439.143493 149.301038 
C 438.093953 148.876862 436.670273 148.638528 435.186 148.638528 
C 433.701727 148.638528 432.278047 148.876862 431.228507 149.301038 
C 430.178968 149.725215 429.58926 150.300603 429.58926 150.90048 
C 429.58926 151.500357 430.178968 152.075745 431.228507 152.499922 
C 432.278047 152.924098 433.701727 153.162432 435.186 153.162432 
z
" clip-path="url(#p1333918ac1)" style="fill: #3a7182"/>
   </g>
   <g id="patch_32">
    <path d="M 468.108 134.534592 
C 469.592273 134.534592 471.015953 134.296258 472.065493 133.872082 
C 473.115032 133.447905 473.70474 132.872517 473.70474 132.27264 
C 473.70474 131.672763 473.115032 131.097375 472.065493 130.673198 
C 471.015953 130.249022 469.592273 130.010688 468.108 130.010688 
C 466.623727 130.010688 465.200047 130.249022 464.150507 130.673198 
C 463.100968 131.097375 462.51126 131.672763 462.51126 132.27264 
C 462.51126 132.872517 463.100968 133.447905 464.150507 133.872082 
C 465.200047 134.296258 466.623727 134.534592 468.108 134.534592 
z
" clip-path="url(#p1333918ac1)" style="fill: #8aa07a"/>
   </g>
   <g id="patch_33">
    <path d="M 481.2768 123.890112 
C 482.761073 123.890112 484.184753 123.651778 485.234293 123.227602 
C 486.283832 122.803425 486.87354 122.228037 486.87354 121.62816 
C 486.87354 121.028283 486.283832 120.452895 485.234293 120.028718 
C 484.184753 119.604542 482.761073 119.366208 481.2768 119.366208 
C 479.792527 119.366208 478.368847 119.604542 477.319307 120.028718 
C 476.269768 120.452895 475.68006 121.028283 475.68006 121.62816 
C 475.68006 122.228037 476.269768 122.803425 477.319307 123.227602 
C 478.368847 123.651778 479.792527 123.890112 481.2768 123.890112 
z
" clip-path="url(#p1333918ac1)" style="fill: #8aa07a"/>
   </g>
   <g id="patch_34">
    <path d="M 494.4456 131.873472 
C 495.929873 131.873472 497.353553 131.635138 498.403093 131.210962 
C 499.452632 130.786785 500.04234 130.211397 500.04234 129.61152 
C 500.04234 129.011643 499.452632 128.436255 498.403093 128.012078 
C 497.353553 127.587902 495.929873 127.349568 494.4456 127.349568 
C 492.961327 127.349568 491.537647 127.587902 490.488107 128.012078 
C 489.438568 128.436255 488.84886 129.011643 488.84886 129.61152 
C 488.84886 130.211397 489.438568 130.786785 490.488107 131.210962 
C 491.537647 131.635138 492.961327 131.873472 494.4456 131.873472 
z
" clip-path="url(#p1333918ac1)" style="fill: #8aa07a"/>
   </g>
   <g id="patch_35">
    <path d="M 481.2768 187.756992 
C 482.761073 187.756992 484.184753 187.518658 485.234293 187.094482 
C 486.283832 186.670305 486.87354 186.094917 486.87354 185.49504 
C 486.87354 184.895163 486.283832 184.319775 485.234293 183.895598 
C 484.184753 183.471422 482.761073 183.233088 481.2768 183.233088 
C 479.792527 183.233088 478.368847 183.471422 477.319307 183.895598 
C 476.269768 184.319775 475.68006 184.895163 475.68006 185.49504 
C 475.68006 186.094917 476.269768 186.670305 477.319307 187.094482 
C 478.368847 187.518658 479.792527 187.756992 481.2768 187.756992 
z
" clip-path="url(#p1333918ac1)" style="fill: #254d5a"/>
   </g>
   <g id="patch_36">
    <path d="M 494.4456 177.112512 
C 495.929873 177.112512 497.353553 176.874178 498.403093 176.450002 
C 499.452632 176.025825 500.04234 175.450437 500.04234 174.85056 
C 500.04234 174.250683 499.452632 173.675295 498.403093 173.251118 
C 497.353553 172.826942 495.929873 172.588608 494.4456 172.588608 
C 492.961327 172.588608 491.537647 172.826942 490.488107 173.251118 
C 489.438568 173.675295 488.84886 174.250683 488.84886 174.85056 
C 488.84886 175.450437 489.438568 176.025825 490.488107 176.450002 
C 491.537647 176.874178 492.961327 177.112512 494.4456 177.112512 
z
" clip-path="url(#p1333918ac1)" style="fill: #254d5a"/>
   </g>
   <g id="patch_37">
    <path d="M 507.6144 185.095872 
C 509.098673 185.095872 510.522353 184.857538 511.571893 184.433362 
C 512.621432 184.009185 513.21114 183.433797 513.21114 182.83392 
C 513.21114 182.234043 512.621432 181.658655 511.571893 181.234478 
C 510.522353 180.810302 509.098673 180.571968 507.6144 180.571968 
C 506.130127 180.571968 504.706447 180.810302 503.656907 181.234478 
C 502.607368 181.658655 502.01766 182.234043 502.01766 182.83392 
C 502.01766 183.433797 502.607368 184.009185 503.656907 184.433362 
C 504.706447 184.857538 506.130127 185.095872 507.6144 185.095872 
z
" clip-path="url(#p1333918ac1)" style="fill: #254d5a"/>
   </g>
   <g id="patch_38">
    <path d="M 560.2896 172.18944 
L 619.5492 172.18944 
Q 632.718 172.18944 632.718 166.8672 
L 632.718 134.93376 
Q 632.718 129.61152 619.5492 129.61152 
L 560.2896 129.61152 
Q 547.1208 129.61152 547.1208 134.93376 
L 547.1208 166.8672 
Q 547.1208 172.18944 560.2896 172.18944 
z
" clip-path="url(#p1333918ac1)" style="fill: #fffdfa; stroke: #9a402d; stroke-width: 1.6; stroke-linejoin: miter"/>
   </g>
   <g id="patch_39">
    <path d="M 573.4584 163.806912 
C 574.942673 163.806912 576.366353 163.568578 577.415893 163.144402 
C 578.465432 162.720225 579.05514 162.144837 579.05514 161.54496 
C 579.05514 160.945083 578.465432 160.369695 577.415893 159.945518 
C 576.366353 159.521342 574.942673 159.283008 573.4584 159.283008 
C 571.974127 159.283008 570.550447 159.521342 569.500907 159.945518 
C 568.451368 160.369695 567.86166 160.945083 567.86166 161.54496 
C 567.86166 162.144837 568.451368 162.720225 569.500907 163.144402 
C 570.550447 163.568578 571.974127 163.806912 573.4584 163.806912 
z
" clip-path="url(#p1333918ac1)" style="fill: #d26b34"/>
   </g>
   <g id="patch_40">
    <path d="M 586.6272 153.162432 
C 588.111473 153.162432 589.535153 152.924098 590.584693 152.499922 
C 591.634232 152.075745 592.22394 151.500357 592.22394 150.90048 
C 592.22394 150.300603 591.634232 149.725215 590.584693 149.301038 
C 589.535153 148.876862 588.111473 148.638528 586.6272 148.638528 
C 585.142927 148.638528 583.719247 148.876862 582.669707 149.301038 
C 581.620168 149.725215 581.03046 150.300603 581.03046 150.90048 
C 581.03046 151.500357 581.620168 152.075745 582.669707 152.499922 
C 583.719247 152.924098 585.142927 153.162432 586.6272 153.162432 
z
" clip-path="url(#p1333918ac1)" style="fill: #d26b34"/>
   </g>
   <g id="patch_41">
    <path d="M 599.796 161.145792 
C 601.280273 161.145792 602.703953 160.907458 603.753493 160.483282 
C 604.803032 160.059105 605.39274 159.483717 605.39274 158.88384 
C 605.39274 158.283963 604.803032 157.708575 603.753493 157.284398 
C 602.703953 156.860222 601.280273 156.621888 599.796 156.621888 
C 598.311727 156.621888 596.888047 156.860222 595.838507 157.284398 
C 594.788968 157.708575 594.19926 158.283963 594.19926 158.88384 
C 594.19926 159.483717 594.788968 160.059105 595.838507 160.483282 
C 596.888047 160.907458 598.311727 161.145792 599.796 161.145792 
z
" clip-path="url(#p1333918ac1)" style="fill: #d26b34"/>
   </g>
   <g id="patch_42">
    <path d="M 463.523756 150.90048 
Q 507.614083 150.90048 549.915555 150.90048 
" clip-path="url(#p1333918ac1)" style="fill: none; stroke: #5c696d; stroke-width: 1.6; stroke-linecap: round"/>
    <path d="M 543.515555 147.70048 
L 549.915555 150.90048 
L 543.515555 154.10048 
z
" clip-path="url(#p1333918ac1)" style="fill: #5c696d; stroke: #5c696d; stroke-width: 1.6; stroke-linecap: round"/>
   </g>
   <g id="patch_43">
    <path d="M 522.340485 125.54805 
Q 537.243702 137.594477 550.755716 148.516381 
" clip-path="url(#p1333918ac1)" style="fill: none; stroke: #5c696d; stroke-width: 1.6; stroke-linecap: round"/>
    <path d="M 547.790007 142.004502 
L 550.755716 148.516381 
L 543.766787 146.981821 
z
" clip-path="url(#p1333918ac1)" style="fill: #5c696d; stroke: #5c696d; stroke-width: 1.6; stroke-linecap: round"/>
   </g>
   <g id="patch_44">
    <path d="M 535.145583 175.903703 
Q 543.828412 164.206334 551.445029 153.945346 
" clip-path="url(#p1333918ac1)" style="fill: none; stroke: #5c696d; stroke-width: 1.6; stroke-linecap: round"/>
    <path d="M 545.060959 157.177008 
L 551.445029 153.945346 
L 550.199917 160.9916 
z
" clip-path="url(#p1333918ac1)" style="fill: #5c696d; stroke: #5c696d; stroke-width: 1.6; stroke-linecap: round"/>
   </g>
   <g id="line2d_1">
    <path d="M 146.78928 180.1728 
L 146.78928 118.96704 
" clip-path="url(#p1333918ac1)" style="fill: none; stroke-dasharray: 4.44,1.92; stroke-dashoffset: 0; stroke: #dbc7aa; stroke-width: 1.2"/>
   </g>
   <g id="text_1">
    <!-- Random row split -->
    <g style="fill: #1e2a2f" transform="translate(46.7064 49.77792) scale(0.16 -0.16)">
     <defs>
      <path id="DejaVuSans-Bold-52" d="M 2297 2597 
Q 2675 2597 2839 2737 
Q 3003 2878 3003 3200 
Q 3003 3519 2839 3656 
Q 2675 3794 2297 3794 
L 1791 3794 
L 1791 2597 
L 2297 2597 
z
M 1791 1766 
L 1791 0 
L 588 0 
L 588 4666 
L 2425 4666 
Q 3347 4666 3776 4356 
Q 4206 4047 4206 3378 
Q 4206 2916 3982 2619 
Q 3759 2322 3309 2181 
Q 3556 2125 3751 1926 
Q 3947 1728 4147 1325 
L 4800 0 
L 3519 0 
L 2950 1159 
Q 2778 1509 2601 1637 
Q 2425 1766 2131 1766 
L 1791 1766 
z
" transform="scale(0.015625)"/>
      <path id="DejaVuSans-Bold-61" d="M 2106 1575 
Q 1756 1575 1579 1456 
Q 1403 1338 1403 1106 
Q 1403 894 1545 773 
Q 1688 653 1941 653 
Q 2256 653 2472 879 
Q 2688 1106 2688 1447 
L 2688 1575 
L 2106 1575 
z
M 3816 1997 
L 3816 0 
L 2688 0 
L 2688 519 
Q 2463 200 2181 54 
Q 1900 -91 1497 -91 
Q 953 -91 614 226 
Q 275 544 275 1050 
Q 275 1666 698 1953 
Q 1122 2241 2028 2241 
L 2688 2241 
L 2688 2328 
Q 2688 2594 2478 2717 
Q 2269 2841 1825 2841 
Q 1466 2841 1156 2769 
Q 847 2697 581 2553 
L 581 3406 
Q 941 3494 1303 3539 
Q 1666 3584 2028 3584 
Q 2975 3584 3395 3211 
Q 3816 2838 3816 1997 
z
" transform="scale(0.015625)"/>
      <path id="DejaVuSans-Bold-6e" d="M 4056 2131 
L 4056 0 
L 2931 0 
L 2931 347 
L 2931 1631 
Q 2931 2084 2911 2256 
Q 2891 2428 2841 2509 
Q 2775 2619 2662 2680 
Q 2550 2741 2406 2741 
Q 2056 2741 1856 2470 
Q 1656 2200 1656 1722 
L 1656 0 
L 538 0 
L 538 3500 
L 1656 3500 
L 1656 2988 
Q 1909 3294 2193 3439 
Q 2478 3584 2822 3584 
Q 3428 3584 3742 3212 
Q 4056 2841 4056 2131 
z
" transform="scale(0.015625)"/>
      <path id="DejaVuSans-Bold-64" d="M 2919 2988 
L 2919 4863 
L 4044 4863 
L 4044 0 
L 2919 0 
L 2919 506 
Q 2688 197 2409 53 
Q 2131 -91 1766 -91 
Q 1119 -91 703 423 
Q 288 938 288 1747 
Q 288 2556 703 3070 
Q 1119 3584 1766 3584 
Q 2128 3584 2408 3439 
Q 2688 3294 2919 2988 
z
M 2181 722 
Q 2541 722 2730 984 
Q 2919 1247 2919 1747 
Q 2919 2247 2730 2509 
Q 2541 2772 2181 2772 
Q 1825 2772 1636 2509 
Q 1447 2247 1447 1747 
Q 1447 1247 1636 984 
Q 1825 722 2181 722 
z
" transform="scale(0.015625)"/>
      <path id="DejaVuSans-Bold-6f" d="M 2203 2784 
Q 1831 2784 1636 2517 
Q 1441 2250 1441 1747 
Q 1441 1244 1636 976 
Q 1831 709 2203 709 
Q 2569 709 2762 976 
Q 2956 1244 2956 1747 
Q 2956 2250 2762 2517 
Q 2569 2784 2203 2784 
z
M 2203 3584 
Q 3106 3584 3614 3096 
Q 4122 2609 4122 1747 
Q 4122 884 3614 396 
Q 3106 -91 2203 -91 
Q 1297 -91 786 396 
Q 275 884 275 1747 
Q 275 2609 786 3096 
Q 1297 3584 2203 3584 
z
" transform="scale(0.015625)"/>
      <path id="DejaVuSans-Bold-6d" d="M 3781 2919 
Q 3994 3244 4286 3414 
Q 4578 3584 4928 3584 
Q 5531 3584 5847 3212 
Q 6163 2841 6163 2131 
L 6163 0 
L 5038 0 
L 5038 1825 
Q 5041 1866 5042 1909 
Q 5044 1953 5044 2034 
Q 5044 2406 4934 2573 
Q 4825 2741 4581 2741 
Q 4263 2741 4089 2478 
Q 3916 2216 3909 1719 
L 3909 0 
L 2784 0 
L 2784 1825 
Q 2784 2406 2684 2573 
Q 2584 2741 2328 2741 
Q 2006 2741 1831 2477 
Q 1656 2213 1656 1722 
L 1656 0 
L 531 0 
L 531 3500 
L 1656 3500 
L 1656 2988 
Q 1863 3284 2130 3434 
Q 2397 3584 2719 3584 
Q 3081 3584 3359 3409 
Q 3638 3234 3781 2919 
z
" transform="scale(0.015625)"/>
      <path id="DejaVuSans-Bold-20" transform="scale(0.015625)"/>
      <path id="DejaVuSans-Bold-72" d="M 3138 2547 
Q 2991 2616 2845 2648 
Q 2700 2681 2553 2681 
Q 2122 2681 1889 2404 
Q 1656 2128 1656 1613 
L 1656 0 
L 538 0 
L 538 3500 
L 1656 3500 
L 1656 2925 
Q 1872 3269 2151 3426 
Q 2431 3584 2822 3584 
Q 2878 3584 2943 3579 
Q 3009 3575 3134 3559 
L 3138 2547 
z
" transform="scale(0.015625)"/>
      <path id="DejaVuSans-Bold-77" d="M 225 3500 
L 1313 3500 
L 1900 1088 
L 2491 3500 
L 3425 3500 
L 4013 1113 
L 4603 3500 
L 5691 3500 
L 4769 0 
L 3547 0 
L 2956 2406 
L 2369 0 
L 1147 0 
L 225 3500 
z
" transform="scale(0.015625)"/>
      <path id="DejaVuSans-Bold-73" d="M 3272 3391 
L 3272 2541 
Q 2913 2691 2578 2766 
Q 2244 2841 1947 2841 
Q 1628 2841 1473 2761 
Q 1319 2681 1319 2516 
Q 1319 2381 1436 2309 
Q 1553 2238 1856 2203 
L 2053 2175 
Q 2913 2066 3209 1816 
Q 3506 1566 3506 1031 
Q 3506 472 3093 190 
Q 2681 -91 1863 -91 
Q 1516 -91 1145 -36 
Q 775 19 384 128 
L 384 978 
Q 719 816 1070 734 
Q 1422 653 1784 653 
Q 2113 653 2278 743 
Q 2444 834 2444 1013 
Q 2444 1163 2330 1236 
Q 2216 1309 1875 1350 
L 1678 1375 
Q 931 1469 631 1722 
Q 331 1975 331 2491 
Q 331 3047 712 3315 
Q 1094 3584 1881 3584 
Q 2191 3584 2531 3537 
Q 2872 3491 3272 3391 
z
" transform="scale(0.015625)"/>
      <path id="DejaVuSans-Bold-70" d="M 1656 506 
L 1656 -1331 
L 538 -1331 
L 538 3500 
L 1656 3500 
L 1656 2988 
Q 1888 3294 2169 3439 
Q 2450 3584 2816 3584 
Q 3463 3584 3878 3070 
Q 4294 2556 4294 1747 
Q 4294 938 3878 423 
Q 3463 -91 2816 -91 
Q 2450 -91 2169 54 
Q 1888 200 1656 506 
z
M 2400 2772 
Q 2041 2772 1848 2508 
Q 1656 2244 1656 1747 
Q 1656 1250 1848 986 
Q 2041 722 2400 722 
Q 2759 722 2948 984 
Q 3138 1247 3138 1747 
Q 3138 2247 2948 2509 
Q 2759 2772 2400 2772 
z
" transform="scale(0.015625)"/>
      <path id="DejaVuSans-Bold-6c" d="M 538 4863 
L 1656 4863 
L 1656 0 
L 538 0 
L 538 4863 
z
" transform="scale(0.015625)"/>
      <path id="DejaVuSans-Bold-69" d="M 538 3500 
L 1656 3500 
L 1656 0 
L 538 0 
L 538 3500 
z
M 538 4863 
L 1656 4863 
L 1656 3950 
L 538 3950 
L 538 4863 
z
" transform="scale(0.015625)"/>
      <path id="DejaVuSans-Bold-74" d="M 1759 4494 
L 1759 3500 
L 2913 3500 
L 2913 2700 
L 1759 2700 
L 1759 1216 
Q 1759 972 1856 886 
Q 1953 800 2241 800 
L 2816 800 
L 2816 0 
L 1856 0 
Q 1194 0 917 276 
Q 641 553 641 1216 
L 641 2700 
L 84 2700 
L 84 3500 
L 641 3500 
L 641 4494 
L 1759 4494 
z
" transform="scale(0.015625)"/>
     </defs>
     <use xlink:href="#DejaVuSans-Bold-52"/>
     <use xlink:href="#DejaVuSans-Bold-61" transform="translate(77.001953 0)"/>
     <use xlink:href="#DejaVuSans-Bold-6e" transform="translate(144.482422 0)"/>
     <use xlink:href="#DejaVuSans-Bold-64" transform="translate(215.673828 0)"/>
     <use xlink:href="#DejaVuSans-Bold-6f" transform="translate(287.255859 0)"/>
     <use xlink:href="#DejaVuSans-Bold-6d" transform="translate(355.957031 0)"/>
     <use xlink:href="#DejaVuSans-Bold-20" transform="translate(460.15625 0)"/>
     <use xlink:href="#DejaVuSans-Bold-72" transform="translate(494.970703 0)"/>
     <use xlink:href="#DejaVuSans-Bold-6f" transform="translate(544.287109 0)"/>
     <use xlink:href="#DejaVuSans-Bold-77" transform="translate(612.988281 0)"/>
     <use xlink:href="#DejaVuSans-Bold-20" transform="translate(705.371094 0)"/>
     <use xlink:href="#DejaVuSans-Bold-73" transform="translate(740.185547 0)"/>
     <use xlink:href="#DejaVuSans-Bold-70" transform="translate(799.707031 0)"/>
     <use xlink:href="#DejaVuSans-Bold-6c" transform="translate(871.289062 0)"/>
     <use xlink:href="#DejaVuSans-Bold-69" transform="translate(905.566406 0)"/>
     <use xlink:href="#DejaVuSans-Bold-74" transform="translate(939.84375 0)"/>
    </g>
   </g>
   <g id="text_2">
    <!-- same city appears in both train and test -->
    <g style="fill: #5c696d" transform="translate(46.7064 63.08352) scale(0.108 -0.108)">
     <defs>
      <path id="DejaVuSans-73" d="M 2834 3397 
L 2834 2853 
Q 2591 2978 2328 3040 
Q 2066 3103 1784 3103 
Q 1356 3103 1142 2972 
Q 928 2841 928 2578 
Q 928 2378 1081 2264 
Q 1234 2150 1697 2047 
L 1894 2003 
Q 2506 1872 2764 1633 
Q 3022 1394 3022 966 
Q 3022 478 2636 193 
Q 2250 -91 1575 -91 
Q 1294 -91 989 -36 
Q 684 19 347 128 
L 347 722 
Q 666 556 975 473 
Q 1284 391 1588 391 
Q 1994 391 2212 530 
Q 2431 669 2431 922 
Q 2431 1156 2273 1281 
Q 2116 1406 1581 1522 
L 1381 1569 
Q 847 1681 609 1914 
Q 372 2147 372 2553 
Q 372 3047 722 3315 
Q 1072 3584 1716 3584 
Q 2034 3584 2315 3537 
Q 2597 3491 2834 3397 
z
" transform="scale(0.015625)"/>
      <path id="DejaVuSans-61" d="M 2194 1759 
Q 1497 1759 1228 1600 
Q 959 1441 959 1056 
Q 959 750 1161 570 
Q 1363 391 1709 391 
Q 2188 391 2477 730 
Q 2766 1069 2766 1631 
L 2766 1759 
L 2194 1759 
z
M 3341 1997 
L 3341 0 
L 2766 0 
L 2766 531 
Q 2569 213 2275 61 
Q 1981 -91 1556 -91 
Q 1019 -91 701 211 
Q 384 513 384 1019 
Q 384 1609 779 1909 
Q 1175 2209 1959 2209 
L 2766 2209 
L 2766 2266 
Q 2766 2663 2505 2880 
Q 2244 3097 1772 3097 
Q 1472 3097 1187 3025 
Q 903 2953 641 2809 
L 641 3341 
Q 956 3463 1253 3523 
Q 1550 3584 1831 3584 
Q 2591 3584 2966 3190 
Q 3341 2797 3341 1997 
z
" transform="scale(0.015625)"/>
      <path id="DejaVuSans-6d" d="M 3328 2828 
Q 3544 3216 3844 3400 
Q 4144 3584 4550 3584 
Q 5097 3584 5394 3201 
Q 5691 2819 5691 2113 
L 5691 0 
L 5113 0 
L 5113 2094 
Q 5113 2597 4934 2840 
Q 4756 3084 4391 3084 
Q 3944 3084 3684 2787 
Q 3425 2491 3425 1978 
L 3425 0 
L 2847 0 
L 2847 2094 
Q 2847 2600 2669 2842 
Q 2491 3084 2119 3084 
Q 1678 3084 1418 2786 
Q 1159 2488 1159 1978 
L 1159 0 
L 581 0 
L 581 3500 
L 1159 3500 
L 1159 2956 
Q 1356 3278 1631 3431 
Q 1906 3584 2284 3584 
Q 2666 3584 2933 3390 
Q 3200 3197 3328 2828 
z
" transform="scale(0.015625)"/>
      <path id="DejaVuSans-65" d="M 3597 1894 
L 3597 1613 
L 953 1613 
Q 991 1019 1311 708 
Q 1631 397 2203 397 
Q 2534 397 2845 478 
Q 3156 559 3463 722 
L 3463 178 
Q 3153 47 2828 -22 
Q 2503 -91 2169 -91 
Q 1331 -91 842 396 
Q 353 884 353 1716 
Q 353 2575 817 3079 
Q 1281 3584 2069 3584 
Q 2775 3584 3186 3129 
Q 3597 2675 3597 1894 
z
M 3022 2063 
Q 3016 2534 2758 2815 
Q 2500 3097 2075 3097 
Q 1594 3097 1305 2825 
Q 1016 2553 972 2059 
L 3022 2063 
z
" transform="scale(0.015625)"/>
      <path id="DejaVuSans-20" transform="scale(0.015625)"/>
      <path id="DejaVuSans-63" d="M 3122 3366 
L 3122 2828 
Q 2878 2963 2633 3030 
Q 2388 3097 2138 3097 
Q 1578 3097 1268 2742 
Q 959 2388 959 1747 
Q 959 1106 1268 751 
Q 1578 397 2138 397 
Q 2388 397 2633 464 
Q 2878 531 3122 666 
L 3122 134 
Q 2881 22 2623 -34 
Q 2366 -91 2075 -91 
Q 1284 -91 818 406 
Q 353 903 353 1747 
Q 353 2603 823 3093 
Q 1294 3584 2113 3584 
Q 2378 3584 2631 3529 
Q 2884 3475 3122 3366 
z
" transform="scale(0.015625)"/>
      <path id="DejaVuSans-69" d="M 603 3500 
L 1178 3500 
L 1178 0 
L 603 0 
L 603 3500 
z
M 603 4863 
L 1178 4863 
L 1178 4134 
L 603 4134 
L 603 4863 
z
" transform="scale(0.015625)"/>
      <path id="DejaVuSans-74" d="M 1172 4494 
L 1172 3500 
L 2356 3500 
L 2356 3053 
L 1172 3053 
L 1172 1153 
Q 1172 725 1289 603 
Q 1406 481 1766 481 
L 2356 481 
L 2356 0 
L 1766 0 
Q 1100 0 847 248 
Q 594 497 594 1153 
L 594 3053 
L 172 3053 
L 172 3500 
L 594 3500 
L 594 4494 
L 1172 4494 
z
" transform="scale(0.015625)"/>
      <path id="DejaVuSans-79" d="M 2059 -325 
Q 1816 -950 1584 -1140 
Q 1353 -1331 966 -1331 
L 506 -1331 
L 506 -850 
L 844 -850 
Q 1081 -850 1212 -737 
Q 1344 -625 1503 -206 
L 1606 56 
L 191 3500 
L 800 3500 
L 1894 763 
L 2988 3500 
L 3597 3500 
L 2059 -325 
z
" transform="scale(0.015625)"/>
      <path id="DejaVuSans-70" d="M 1159 525 
L 1159 -1331 
L 581 -1331 
L 581 3500 
L 1159 3500 
L 1159 2969 
Q 1341 3281 1617 3432 
Q 1894 3584 2278 3584 
Q 2916 3584 3314 3078 
Q 3713 2572 3713 1747 
Q 3713 922 3314 415 
Q 2916 -91 2278 -91 
Q 1894 -91 1617 61 
Q 1341 213 1159 525 
z
M 3116 1747 
Q 3116 2381 2855 2742 
Q 2594 3103 2138 3103 
Q 1681 3103 1420 2742 
Q 1159 2381 1159 1747 
Q 1159 1113 1420 752 
Q 1681 391 2138 391 
Q 2594 391 2855 752 
Q 3116 1113 3116 1747 
z
" transform="scale(0.015625)"/>
      <path id="DejaVuSans-72" d="M 2631 2963 
Q 2534 3019 2420 3045 
Q 2306 3072 2169 3072 
Q 1681 3072 1420 2755 
Q 1159 2438 1159 1844 
L 1159 0 
L 581 0 
L 581 3500 
L 1159 3500 
L 1159 2956 
Q 1341 3275 1631 3429 
Q 1922 3584 2338 3584 
Q 2397 3584 2469 3576 
Q 2541 3569 2628 3553 
L 2631 2963 
z
" transform="scale(0.015625)"/>
      <path id="DejaVuSans-6e" d="M 3513 2113 
L 3513 0 
L 2938 0 
L 2938 2094 
Q 2938 2591 2744 2837 
Q 2550 3084 2163 3084 
Q 1697 3084 1428 2787 
Q 1159 2491 1159 1978 
L 1159 0 
L 581 0 
L 581 3500 
L 1159 3500 
L 1159 2956 
Q 1366 3272 1645 3428 
Q 1925 3584 2291 3584 
Q 2894 3584 3203 3211 
Q 3513 2838 3513 2113 
z
" transform="scale(0.015625)"/>
      <path id="DejaVuSans-62" d="M 3116 1747 
Q 3116 2381 2855 2742 
Q 2594 3103 2138 3103 
Q 1681 3103 1420 2742 
Q 1159 2381 1159 1747 
Q 1159 1113 1420 752 
Q 1681 391 2138 391 
Q 2594 391 2855 752 
Q 3116 1113 3116 1747 
z
M 1159 2969 
Q 1341 3281 1617 3432 
Q 1894 3584 2278 3584 
Q 2916 3584 3314 3078 
Q 3713 2572 3713 1747 
Q 3713 922 3314 415 
Q 2916 -91 2278 -91 
Q 1894 -91 1617 61 
Q 1341 213 1159 525 
L 1159 0 
L 581 0 
L 581 4863 
L 1159 4863 
L 1159 2969 
z
" transform="scale(0.015625)"/>
      <path id="DejaVuSans-6f" d="M 1959 3097 
Q 1497 3097 1228 2736 
Q 959 2375 959 1747 
Q 959 1119 1226 758 
Q 1494 397 1959 397 
Q 2419 397 2687 759 
Q 2956 1122 2956 1747 
Q 2956 2369 2687 2733 
Q 2419 3097 1959 3097 
z
M 1959 3584 
Q 2709 3584 3137 3096 
Q 3566 2609 3566 1747 
Q 3566 888 3137 398 
Q 2709 -91 1959 -91 
Q 1206 -91 779 398 
Q 353 888 353 1747 
Q 353 2609 779 3096 
Q 1206 3584 1959 3584 
z
" transform="scale(0.015625)"/>
      <path id="DejaVuSans-68" d="M 3513 2113 
L 3513 0 
L 2938 0 
L 2938 2094 
Q 2938 2591 2744 2837 
Q 2550 3084 2163 3084 
Q 1697 3084 1428 2787 
Q 1159 2491 1159 1978 
L 1159 0 
L 581 0 
L 581 4863 
L 1159 4863 
L 1159 2956 
Q 1366 3272 1645 3428 
Q 1925 3584 2291 3584 
Q 2894 3584 3203 3211 
Q 3513 2838 3513 2113 
z
" transform="scale(0.015625)"/>
      <path id="DejaVuSans-64" d="M 2906 2969 
L 2906 4863 
L 3481 4863 
L 3481 0 
L 2906 0 
L 2906 525 
Q 2725 213 2448 61 
Q 2172 -91 1784 -91 
Q 1150 -91 751 415 
Q 353 922 353 1747 
Q 353 2572 751 3078 
Q 1150 3584 1784 3584 
Q 2172 3584 2448 3432 
Q 2725 3281 2906 2969 
z
M 947 1747 
Q 947 1113 1208 752 
Q 1469 391 1925 391 
Q 2381 391 2643 752 
Q 2906 1113 2906 1747 
Q 2906 2381 2643 2742 
Q 2381 3103 1925 3103 
Q 1469 3103 1208 2742 
Q 947 2381 947 1747 
z
" transform="scale(0.015625)"/>
     </defs>
     <use xlink:href="#DejaVuSans-73"/>
     <use xlink:href="#DejaVuSans-61" transform="translate(52.099609 0)"/>
     <use xlink:href="#DejaVuSans-6d" transform="translate(113.378906 0)"/>
     <use xlink:href="#DejaVuSans-65" transform="translate(210.791016 0)"/>
     <use xlink:href="#DejaVuSans-20" transform="translate(272.314453 0)"/>
     <use xlink:href="#DejaVuSans-63" transform="translate(304.101562 0)"/>
     <use xlink:href="#DejaVuSans-69" transform="translate(359.082031 0)"/>
     <use xlink:href="#DejaVuSans-74" transform="translate(386.865234 0)"/>
     <use xlink:href="#DejaVuSans-79" transform="translate(426.074219 0)"/>
     <use xlink:href="#DejaVuSans-20" transform="translate(485.253906 0)"/>
     <use xlink:href="#DejaVuSans-61" transform="translate(517.041016 0)"/>
     <use xlink:href="#DejaVuSans-70" transform="translate(578.320312 0)"/>
     <use xlink:href="#DejaVuSans-70" transform="translate(641.796875 0)"/>
     <use xlink:href="#DejaVuSans-65" transform="translate(705.273438 0)"/>
     <use xlink:href="#DejaVuSans-61" transform="translate(766.796875 0)"/>
     <use xlink:href="#DejaVuSans-72" transform="translate(828.076172 0)"/>
     <use xlink:href="#DejaVuSans-73" transform="translate(869.189453 0)"/>
     <use xlink:href="#DejaVuSans-20" transform="translate(921.289062 0)"/>
     <use xlink:href="#DejaVuSans-69" transform="translate(953.076172 0)"/>
     <use xlink:href="#DejaVuSans-6e" transform="translate(980.859375 0)"/>
     <use xlink:href="#DejaVuSans-20" transform="translate(1044.238281 0)"/>
     <use xlink:href="#DejaVuSans-62" transform="translate(1076.025391 0)"/>
     <use xlink:href="#DejaVuSans-6f" transform="translate(1139.501953 0)"/>
     <use xlink:href="#DejaVuSans-74" transform="translate(1200.683594 0)"/>
     <use xlink:href="#DejaVuSans-68" transform="translate(1239.892578 0)"/>
     <use xlink:href="#DejaVuSans-20" transform="translate(1303.271484 0)"/>
     <use xlink:href="#DejaVuSans-74" transform="translate(1335.058594 0)"/>
     <use xlink:href="#DejaVuSans-72" transform="translate(1374.267578 0)"/>
     <use xlink:href="#DejaVuSans-61" transform="translate(1415.380859 0)"/>
     <use xlink:href="#DejaVuSans-69" transform="translate(1476.660156 0)"/>
     <use xlink:href="#DejaVuSans-6e" transform="translate(1504.443359 0)"/>
     <use xlink:href="#DejaVuSans-20" transform="translate(1567.822266 0)"/>
     <use xlink:href="#DejaVuSans-61" transform="translate(1599.609375 0)"/>
     <use xlink:href="#DejaVuSans-6e" transform="translate(1660.888672 0)"/>
     <use xlink:href="#DejaVuSans-64" transform="translate(1724.267578 0)"/>
     <use xlink:href="#DejaVuSans-20" transform="translate(1787.744141 0)"/>
     <use xlink:href="#DejaVuSans-74" transform="translate(1819.53125 0)"/>
     <use xlink:href="#DejaVuSans-65" transform="translate(1858.740234 0)"/>
     <use xlink:href="#DejaVuSans-73" transform="translate(1920.263672 0)"/>
     <use xlink:href="#DejaVuSans-74" transform="translate(1972.363281 0)"/>
    </g>
   </g>
   <g id="text_3">
    <!-- Held-out-city transfer -->
    <g style="fill: #1e2a2f" transform="translate(382.5108 49.77792) scale(0.16 -0.16)">
     <defs>
      <path id="DejaVuSans-Bold-48" d="M 588 4666 
L 1791 4666 
L 1791 2888 
L 3566 2888 
L 3566 4666 
L 4769 4666 
L 4769 0 
L 3566 0 
L 3566 1978 
L 1791 1978 
L 1791 0 
L 588 0 
L 588 4666 
z
" transform="scale(0.015625)"/>
      <path id="DejaVuSans-Bold-65" d="M 4031 1759 
L 4031 1441 
L 1416 1441 
Q 1456 1047 1700 850 
Q 1944 653 2381 653 
Q 2734 653 3104 758 
Q 3475 863 3866 1075 
L 3866 213 
Q 3469 63 3072 -14 
Q 2675 -91 2278 -91 
Q 1328 -91 801 392 
Q 275 875 275 1747 
Q 275 2603 792 3093 
Q 1309 3584 2216 3584 
Q 3041 3584 3536 3087 
Q 4031 2591 4031 1759 
z
M 2881 2131 
Q 2881 2450 2695 2645 
Q 2509 2841 2209 2841 
Q 1884 2841 1681 2658 
Q 1478 2475 1428 2131 
L 2881 2131 
z
" transform="scale(0.015625)"/>
      <path id="DejaVuSans-Bold-2d" d="M 347 2297 
L 2309 2297 
L 2309 1388 
L 347 1388 
L 347 2297 
z
" transform="scale(0.015625)"/>
      <path id="DejaVuSans-Bold-75" d="M 500 1363 
L 500 3500 
L 1625 3500 
L 1625 3150 
Q 1625 2866 1622 2436 
Q 1619 2006 1619 1863 
Q 1619 1441 1641 1255 
Q 1663 1069 1716 984 
Q 1784 875 1895 815 
Q 2006 756 2150 756 
Q 2500 756 2700 1025 
Q 2900 1294 2900 1772 
L 2900 3500 
L 4019 3500 
L 4019 0 
L 2900 0 
L 2900 506 
Q 2647 200 2364 54 
Q 2081 -91 1741 -91 
Q 1134 -91 817 281 
Q 500 653 500 1363 
z
" transform="scale(0.015625)"/>
      <path id="DejaVuSans-Bold-63" d="M 3366 3391 
L 3366 2478 
Q 3138 2634 2908 2709 
Q 2678 2784 2431 2784 
Q 1963 2784 1702 2511 
Q 1441 2238 1441 1747 
Q 1441 1256 1702 982 
Q 1963 709 2431 709 
Q 2694 709 2930 787 
Q 3166 866 3366 1019 
L 3366 103 
Q 3103 6 2833 -42 
Q 2563 -91 2291 -91 
Q 1344 -91 809 395 
Q 275 881 275 1747 
Q 275 2613 809 3098 
Q 1344 3584 2291 3584 
Q 2566 3584 2833 3536 
Q 3100 3488 3366 3391 
z
" transform="scale(0.015625)"/>
      <path id="DejaVuSans-Bold-79" d="M 78 3500 
L 1197 3500 
L 2138 1125 
L 2938 3500 
L 4056 3500 
L 2584 -331 
Q 2363 -916 2067 -1148 
Q 1772 -1381 1288 -1381 
L 641 -1381 
L 641 -647 
L 991 -647 
Q 1275 -647 1404 -556 
Q 1534 -466 1606 -231 
L 1638 -134 
L 78 3500 
z
" transform="scale(0.015625)"/>
      <path id="DejaVuSans-Bold-66" d="M 2841 4863 
L 2841 4128 
L 2222 4128 
Q 1984 4128 1890 4042 
Q 1797 3956 1797 3744 
L 1797 3500 
L 2753 3500 
L 2753 2700 
L 1797 2700 
L 1797 0 
L 678 0 
L 678 2700 
L 122 2700 
L 122 3500 
L 678 3500 
L 678 3744 
Q 678 4316 997 4589 
Q 1316 4863 1984 4863 
L 2841 4863 
z
" transform="scale(0.015625)"/>
     </defs>
     <use xlink:href="#DejaVuSans-Bold-48"/>
     <use xlink:href="#DejaVuSans-Bold-65" transform="translate(83.691406 0)"/>
     <use xlink:href="#DejaVuSans-Bold-6c" transform="translate(151.513672 0)"/>
     <use xlink:href="#DejaVuSans-Bold-64" transform="translate(185.791016 0)"/>
     <use xlink:href="#DejaVuSans-Bold-2d" transform="translate(257.373047 0)"/>
     <use xlink:href="#DejaVuSans-Bold-6f" transform="translate(298.876953 0)"/>
     <use xlink:href="#DejaVuSans-Bold-75" transform="translate(367.578125 0)"/>
     <use xlink:href="#DejaVuSans-Bold-74" transform="translate(438.769531 0)"/>
     <use xlink:href="#DejaVuSans-Bold-2d" transform="translate(486.572266 0)"/>
     <use xlink:href="#DejaVuSans-Bold-63" transform="translate(528.076172 0)"/>
     <use xlink:href="#DejaVuSans-Bold-69" transform="translate(587.353516 0)"/>
     <use xlink:href="#DejaVuSans-Bold-74" transform="translate(621.630859 0)"/>
     <use xlink:href="#DejaVuSans-Bold-79" transform="translate(669.433594 0)"/>
     <use xlink:href="#DejaVuSans-Bold-20" transform="translate(734.619141 0)"/>
     <use xlink:href="#DejaVuSans-Bold-74" transform="translate(769.433594 0)"/>
     <use xlink:href="#DejaVuSans-Bold-72" transform="translate(817.236328 0)"/>
     <use xlink:href="#DejaVuSans-Bold-61" transform="translate(866.552734 0)"/>
     <use xlink:href="#DejaVuSans-Bold-6e" transform="translate(934.033203 0)"/>
     <use xlink:href="#DejaVuSans-Bold-73" transform="translate(1005.224609 0)"/>
     <use xlink:href="#DejaVuSans-Bold-66" transform="translate(1064.746094 0)"/>
     <use xlink:href="#DejaVuSans-Bold-65" transform="translate(1108.251953 0)"/>
     <use xlink:href="#DejaVuSans-Bold-72" transform="translate(1176.074219 0)"/>
    </g>
   </g>
   <g id="text_4">
    <!-- fit on seen cities, score one unseen city -->
    <g style="fill: #5c696d" transform="translate(382.5108 63.08352) scale(0.108 -0.108)">
     <defs>
      <path id="DejaVuSans-66" d="M 2375 4863 
L 2375 4384 
L 1825 4384 
Q 1516 4384 1395 4259 
Q 1275 4134 1275 3809 
L 1275 3500 
L 2222 3500 
L 2222 3053 
L 1275 3053 
L 1275 0 
L 697 0 
L 697 3053 
L 147 3053 
L 147 3500 
L 697 3500 
L 697 3744 
Q 697 4328 969 4595 
Q 1241 4863 1831 4863 
L 2375 4863 
z
" transform="scale(0.015625)"/>
      <path id="DejaVuSans-2c" d="M 750 794 
L 1409 794 
L 1409 256 
L 897 -744 
L 494 -744 
L 750 256 
L 750 794 
z
" transform="scale(0.015625)"/>
      <path id="DejaVuSans-75" d="M 544 1381 
L 544 3500 
L 1119 3500 
L 1119 1403 
Q 1119 906 1312 657 
Q 1506 409 1894 409 
Q 2359 409 2629 706 
Q 2900 1003 2900 1516 
L 2900 3500 
L 3475 3500 
L 3475 0 
L 2900 0 
L 2900 538 
Q 2691 219 2414 64 
Q 2138 -91 1772 -91 
Q 1169 -91 856 284 
Q 544 659 544 1381 
z
M 1991 3584 
L 1991 3584 
z
" transform="scale(0.015625)"/>
     </defs>
     <use xlink:href="#DejaVuSans-66"/>
     <use xlink:href="#DejaVuSans-69" transform="translate(35.205078 0)"/>
     <use xlink:href="#DejaVuSans-74" transform="translate(62.988281 0)"/>
     <use xlink:href="#DejaVuSans-20" transform="translate(102.197266 0)"/>
     <use xlink:href="#DejaVuSans-6f" transform="translate(133.984375 0)"/>
     <use xlink:href="#DejaVuSans-6e" transform="translate(195.166016 0)"/>
     <use xlink:href="#DejaVuSans-20" transform="translate(258.544922 0)"/>
     <use xlink:href="#DejaVuSans-73" transform="translate(290.332031 0)"/>
     <use xlink:href="#DejaVuSans-65" transform="translate(342.431641 0)"/>
     <use xlink:href="#DejaVuSans-65" transform="translate(403.955078 0)"/>
     <use xlink:href="#DejaVuSans-6e" transform="translate(465.478516 0)"/>
     <use xlink:href="#DejaVuSans-20" transform="translate(528.857422 0)"/>
     <use xlink:href="#DejaVuSans-63" transform="translate(560.644531 0)"/>
     <use xlink:href="#DejaVuSans-69" transform="translate(615.625 0)"/>
     <use xlink:href="#DejaVuSans-74" transform="translate(643.408203 0)"/>
     <use xlink:href="#DejaVuSans-69" transform="translate(682.617188 0)"/>
     <use xlink:href="#DejaVuSans-65" transform="translate(710.400391 0)"/>
     <use xlink:href="#DejaVuSans-73" transform="translate(771.923828 0)"/>
     <use xlink:href="#DejaVuSans-2c" transform="translate(824.023438 0)"/>
     <use xlink:href="#DejaVuSans-20" transform="translate(855.810547 0)"/>
     <use xlink:href="#DejaVuSans-73" transform="translate(887.597656 0)"/>
     <use xlink:href="#DejaVuSans-63" transform="translate(939.697266 0)"/>
     <use xlink:href="#DejaVuSans-6f" transform="translate(994.677734 0)"/>
     <use xlink:href="#DejaVuSans-72" transform="translate(1055.859375 0)"/>
     <use xlink:href="#DejaVuSans-65" transform="translate(1094.722656 0)"/>
     <use xlink:href="#DejaVuSans-20" transform="translate(1156.246094 0)"/>
     <use xlink:href="#DejaVuSans-6f" transform="translate(1188.033203 0)"/>
     <use xlink:href="#DejaVuSans-6e" transform="translate(1249.214844 0)"/>
     <use xlink:href="#DejaVuSans-65" transform="translate(1312.59375 0)"/>
     <use xlink:href="#DejaVuSans-20" transform="translate(1374.117188 0)"/>
     <use xlink:href="#DejaVuSans-75" transform="translate(1405.904297 0)"/>
     <use xlink:href="#DejaVuSans-6e" transform="translate(1469.283203 0)"/>
     <use xlink:href="#DejaVuSans-73" transform="translate(1532.662109 0)"/>
     <use xlink:href="#DejaVuSans-65" transform="translate(1584.761719 0)"/>
     <use xlink:href="#DejaVuSans-65" transform="translate(1646.285156 0)"/>
     <use xlink:href="#DejaVuSans-6e" transform="translate(1707.808594 0)"/>
     <use xlink:href="#DejaVuSans-20" transform="translate(1771.1875 0)"/>
     <use xlink:href="#DejaVuSans-63" transform="translate(1802.974609 0)"/>
     <use xlink:href="#DejaVuSans-69" transform="translate(1857.955078 0)"/>
     <use xlink:href="#DejaVuSans-74" transform="translate(1885.738281 0)"/>
     <use xlink:href="#DejaVuSans-79" transform="translate(1924.947266 0)"/>
    </g>
   </g>
   <g id="text_5">
    <!-- one city footprint -->
    <g style="fill: #5c696d" transform="translate(112.5504 196.13952) scale(0.108 -0.108)">
     <use xlink:href="#DejaVuSans-6f"/>
     <use xlink:href="#DejaVuSans-6e" transform="translate(61.181641 0)"/>
     <use xlink:href="#DejaVuSans-65" transform="translate(124.560547 0)"/>
     <use xlink:href="#DejaVuSans-20" transform="translate(186.083984 0)"/>
     <use xlink:href="#DejaVuSans-63" transform="translate(217.871094 0)"/>
     <use xlink:href="#DejaVuSans-69" transform="translate(272.851562 0)"/>
     <use xlink:href="#DejaVuSans-74" transform="translate(300.634766 0)"/>
     <use xlink:href="#DejaVuSans-79" transform="translate(339.84375 0)"/>
     <use xlink:href="#DejaVuSans-20" transform="translate(399.023438 0)"/>
     <use xlink:href="#DejaVuSans-66" transform="translate(430.810547 0)"/>
     <use xlink:href="#DejaVuSans-6f" transform="translate(466.015625 0)"/>
     <use xlink:href="#DejaVuSans-6f" transform="translate(527.197266 0)"/>
     <use xlink:href="#DejaVuSans-74" transform="translate(588.378906 0)"/>
     <use xlink:href="#DejaVuSans-70" transform="translate(627.587891 0)"/>
     <use xlink:href="#DejaVuSans-72" transform="translate(691.064453 0)"/>
     <use xlink:href="#DejaVuSans-69" transform="translate(732.177734 0)"/>
     <use xlink:href="#DejaVuSans-6e" transform="translate(759.960938 0)"/>
     <use xlink:href="#DejaVuSans-74" transform="translate(823.339844 0)"/>
    </g>
   </g>
   <g id="text_6">
    <!-- easier test -->
    <g style="fill: #5c696d" transform="translate(229.362747 134.93376) scale(0.106 -0.106)">
     <use xlink:href="#DejaVuSans-65"/>
     <use xlink:href="#DejaVuSans-61" transform="translate(61.523438 0)"/>
     <use xlink:href="#DejaVuSans-73" transform="translate(122.802734 0)"/>
     <use xlink:href="#DejaVuSans-69" transform="translate(174.902344 0)"/>
     <use xlink:href="#DejaVuSans-65" transform="translate(202.685547 0)"/>
     <use xlink:href="#DejaVuSans-72" transform="translate(264.208984 0)"/>
     <use xlink:href="#DejaVuSans-20" transform="translate(305.322266 0)"/>
     <use xlink:href="#DejaVuSans-74" transform="translate(337.109375 0)"/>
     <use xlink:href="#DejaVuSans-65" transform="translate(376.318359 0)"/>
     <use xlink:href="#DejaVuSans-73" transform="translate(437.841797 0)"/>
     <use xlink:href="#DejaVuSans-74" transform="translate(489.941406 0)"/>
    </g>
   </g>
   <g id="text_7">
    <!-- Shared climate, streets, and land cover make -->
    <g style="fill: #5c696d" transform="translate(46.7064 210.20917) scale(0.112 -0.112)">
     <defs>
      <path id="DejaVuSans-53" d="M 3425 4513 
L 3425 3897 
Q 3066 4069 2747 4153 
Q 2428 4238 2131 4238 
Q 1616 4238 1336 4038 
Q 1056 3838 1056 3469 
Q 1056 3159 1242 3001 
Q 1428 2844 1947 2747 
L 2328 2669 
Q 3034 2534 3370 2195 
Q 3706 1856 3706 1288 
Q 3706 609 3251 259 
Q 2797 -91 1919 -91 
Q 1588 -91 1214 -16 
Q 841 59 441 206 
L 441 856 
Q 825 641 1194 531 
Q 1563 422 1919 422 
Q 2459 422 2753 634 
Q 3047 847 3047 1241 
Q 3047 1584 2836 1778 
Q 2625 1972 2144 2069 
L 1759 2144 
Q 1053 2284 737 2584 
Q 422 2884 422 3419 
Q 422 4038 858 4394 
Q 1294 4750 2059 4750 
Q 2388 4750 2728 4690 
Q 3069 4631 3425 4513 
z
" transform="scale(0.015625)"/>
      <path id="DejaVuSans-6c" d="M 603 4863 
L 1178 4863 
L 1178 0 
L 603 0 
L 603 4863 
z
" transform="scale(0.015625)"/>
      <path id="DejaVuSans-76" d="M 191 3500 
L 800 3500 
L 1894 563 
L 2988 3500 
L 3597 3500 
L 2284 0 
L 1503 0 
L 191 3500 
z
" transform="scale(0.015625)"/>
      <path id="DejaVuSans-6b" d="M 581 4863 
L 1159 4863 
L 1159 1991 
L 2875 3500 
L 3609 3500 
L 1753 1863 
L 3688 0 
L 2938 0 
L 1159 1709 
L 1159 0 
L 581 0 
L 581 4863 
z
" transform="scale(0.015625)"/>
     </defs>
     <use xlink:href="#DejaVuSans-53"/>
     <use xlink:href="#DejaVuSans-68" transform="translate(63.476562 0)"/>
     <use xlink:href="#DejaVuSans-61" transform="translate(126.855469 0)"/>
     <use xlink:href="#DejaVuSans-72" transform="translate(188.134766 0)"/>
     <use xlink:href="#DejaVuSans-65" transform="translate(226.998047 0)"/>
     <use xlink:href="#DejaVuSans-64" transform="translate(288.521484 0)"/>
     <use xlink:href="#DejaVuSans-20" transform="translate(351.998047 0)"/>
     <use xlink:href="#DejaVuSans-63" transform="translate(383.785156 0)"/>
     <use xlink:href="#DejaVuSans-6c" transform="translate(438.765625 0)"/>
     <use xlink:href="#DejaVuSans-69" transform="translate(466.548828 0)"/>
     <use xlink:href="#DejaVuSans-6d" transform="translate(494.332031 0)"/>
     <use xlink:href="#DejaVuSans-61" transform="translate(591.744141 0)"/>
     <use xlink:href="#DejaVuSans-74" transform="translate(653.023438 0)"/>
     <use xlink:href="#DejaVuSans-65" transform="translate(692.232422 0)"/>
     <use xlink:href="#DejaVuSans-2c" transform="translate(753.755859 0)"/>
     <use xlink:href="#DejaVuSans-20" transform="translate(785.542969 0)"/>
     <use xlink:href="#DejaVuSans-73" transform="translate(817.330078 0)"/>
     <use xlink:href="#DejaVuSans-74" transform="translate(869.429688 0)"/>
     <use xlink:href="#DejaVuSans-72" transform="translate(908.638672 0)"/>
     <use xlink:href="#DejaVuSans-65" transform="translate(947.501953 0)"/>
     <use xlink:href="#DejaVuSans-65" transform="translate(1009.025391 0)"/>
     <use xlink:href="#DejaVuSans-74" transform="translate(1070.548828 0)"/>
     <use xlink:href="#DejaVuSans-73" transform="translate(1109.757812 0)"/>
     <use xlink:href="#DejaVuSans-2c" transform="translate(1161.857422 0)"/>
     <use xlink:href="#DejaVuSans-20" transform="translate(1193.644531 0)"/>
     <use xlink:href="#DejaVuSans-61" transform="translate(1225.431641 0)"/>
     <use xlink:href="#DejaVuSans-6e" transform="translate(1286.710938 0)"/>
     <use xlink:href="#DejaVuSans-64" transform="translate(1350.089844 0)"/>
     <use xlink:href="#DejaVuSans-20" transform="translate(1413.566406 0)"/>
     <use xlink:href="#DejaVuSans-6c" transform="translate(1445.353516 0)"/>
     <use xlink:href="#DejaVuSans-61" transform="translate(1473.136719 0)"/>
     <use xlink:href="#DejaVuSans-6e" transform="translate(1534.416016 0)"/>
     <use xlink:href="#DejaVuSans-64" transform="translate(1597.794922 0)"/>
     <use xlink:href="#DejaVuSans-20" transform="translate(1661.271484 0)"/>
     <use xlink:href="#DejaVuSans-63" transform="translate(1693.058594 0)"/>
     <use xlink:href="#DejaVuSans-6f" transform="translate(1748.039062 0)"/>
     <use xlink:href="#DejaVuSans-76" transform="translate(1809.220703 0)"/>
     <use xlink:href="#DejaVuSans-65" transform="translate(1868.400391 0)"/>
     <use xlink:href="#DejaVuSans-72" transform="translate(1929.923828 0)"/>
     <use xlink:href="#DejaVuSans-20" transform="translate(1971.037109 0)"/>
     <use xlink:href="#DejaVuSans-6d" transform="translate(2002.824219 0)"/>
     <use xlink:href="#DejaVuSans-61" transform="translate(2100.236328 0)"/>
     <use xlink:href="#DejaVuSans-6b" transform="translate(2161.515625 0)"/>
     <use xlink:href="#DejaVuSans-65" transform="translate(2215.800781 0)"/>
    </g>
    <!-- random row splits look better than transfer. -->
    <g style="fill: #5c696d" transform="translate(46.7064 222.75072) scale(0.112 -0.112)">
     <defs>
      <path id="DejaVuSans-77" d="M 269 3500 
L 844 3500 
L 1563 769 
L 2278 3500 
L 2956 3500 
L 3675 769 
L 4391 3500 
L 4966 3500 
L 4050 0 
L 3372 0 
L 2619 2869 
L 1863 0 
L 1184 0 
L 269 3500 
z
" transform="scale(0.015625)"/>
      <path id="DejaVuSans-2e" d="M 684 794 
L 1344 794 
L 1344 0 
L 684 0 
L 684 794 
z
" transform="scale(0.015625)"/>
     </defs>
     <use xlink:href="#DejaVuSans-72"/>
     <use xlink:href="#DejaVuSans-61" transform="translate(41.113281 0)"/>
     <use xlink:href="#DejaVuSans-6e" transform="translate(102.392578 0)"/>
     <use xlink:href="#DejaVuSans-64" transform="translate(165.771484 0)"/>
     <use xlink:href="#DejaVuSans-6f" transform="translate(229.248047 0)"/>
     <use xlink:href="#DejaVuSans-6d" transform="translate(290.429688 0)"/>
     <use xlink:href="#DejaVuSans-20" transform="translate(387.841797 0)"/>
     <use xlink:href="#DejaVuSans-72" transform="translate(419.628906 0)"/>
     <use xlink:href="#DejaVuSans-6f" transform="translate(458.492188 0)"/>
     <use xlink:href="#DejaVuSans-77" transform="translate(519.673828 0)"/>
     <use xlink:href="#DejaVuSans-20" transform="translate(601.460938 0)"/>
     <use xlink:href="#DejaVuSans-73" transform="translate(633.248047 0)"/>
     <use xlink:href="#DejaVuSans-70" transform="translate(685.347656 0)"/>
     <use xlink:href="#DejaVuSans-6c" transform="translate(748.824219 0)"/>
     <use xlink:href="#DejaVuSans-69" transform="translate(776.607422 0)"/>
     <use xlink:href="#DejaVuSans-74" transform="translate(804.390625 0)"/>
     <use xlink:href="#DejaVuSans-73" transform="translate(843.599609 0)"/>
     <use xlink:href="#DejaVuSans-20" transform="translate(895.699219 0)"/>
     <use xlink:href="#DejaVuSans-6c" transform="translate(927.486328 0)"/>
     <use xlink:href="#DejaVuSans-6f" transform="translate(955.269531 0)"/>
     <use xlink:href="#DejaVuSans-6f" transform="translate(1016.451172 0)"/>
     <use xlink:href="#DejaVuSans-6b" transform="translate(1077.632812 0)"/>
     <use xlink:href="#DejaVuSans-20" transform="translate(1135.542969 0)"/>
     <use xlink:href="#DejaVuSans-62" transform="translate(1167.330078 0)"/>
     <use xlink:href="#DejaVuSans-65" transform="translate(1230.806641 0)"/>
     <use xlink:href="#DejaVuSans-74" transform="translate(1292.330078 0)"/>
     <use xlink:href="#DejaVuSans-74" transform="translate(1331.539062 0)"/>
     <use xlink:href="#DejaVuSans-65" transform="translate(1370.748047 0)"/>
     <use xlink:href="#DejaVuSans-72" transform="translate(1432.271484 0)"/>
     <use xlink:href="#DejaVuSans-20" transform="translate(1473.384766 0)"/>
     <use xlink:href="#DejaVuSans-74" transform="translate(1505.171875 0)"/>
     <use xlink:href="#DejaVuSans-68" transform="translate(1544.380859 0)"/>
     <use xlink:href="#DejaVuSans-61" transform="translate(1607.759766 0)"/>
     <use xlink:href="#DejaVuSans-6e" transform="translate(1669.039062 0)"/>
     <use xlink:href="#DejaVuSans-20" transform="translate(1732.417969 0)"/>
     <use xlink:href="#DejaVuSans-74" transform="translate(1764.205078 0)"/>
     <use xlink:href="#DejaVuSans-72" transform="translate(1803.414062 0)"/>
     <use xlink:href="#DejaVuSans-61" transform="translate(1844.527344 0)"/>
     <use xlink:href="#DejaVuSans-6e" transform="translate(1905.806641 0)"/>
     <use xlink:href="#DejaVuSans-73" transform="translate(1969.185547 0)"/>
     <use xlink:href="#DejaVuSans-66" transform="translate(2021.285156 0)"/>
     <use xlink:href="#DejaVuSans-65" transform="translate(2056.490234 0)"/>
     <use xlink:href="#DejaVuSans-72" transform="translate(2118.013672 0)"/>
     <use xlink:href="#DejaVuSans-2e" transform="translate(2150.001953 0)"/>
    </g>
   </g>
   <g id="text_8">
    <!-- The unseen city stays outside preprocess, tuning, -->
    <g style="fill: #5c696d" transform="translate(382.5108 210.20917) scale(0.112 -0.112)">
     <defs>
      <path id="DejaVuSans-54" d="M -19 4666 
L 3928 4666 
L 3928 4134 
L 2272 4134 
L 2272 0 
L 1638 0 
L 1638 4134 
L -19 4134 
L -19 4666 
z
" transform="scale(0.015625)"/>
      <path id="DejaVuSans-67" d="M 2906 1791 
Q 2906 2416 2648 2759 
Q 2391 3103 1925 3103 
Q 1463 3103 1205 2759 
Q 947 2416 947 1791 
Q 947 1169 1205 825 
Q 1463 481 1925 481 
Q 2391 481 2648 825 
Q 2906 1169 2906 1791 
z
M 3481 434 
Q 3481 -459 3084 -895 
Q 2688 -1331 1869 -1331 
Q 1566 -1331 1297 -1286 
Q 1028 -1241 775 -1147 
L 775 -588 
Q 1028 -725 1275 -790 
Q 1522 -856 1778 -856 
Q 2344 -856 2625 -561 
Q 2906 -266 2906 331 
L 2906 616 
Q 2728 306 2450 153 
Q 2172 0 1784 0 
Q 1141 0 747 490 
Q 353 981 353 1791 
Q 353 2603 747 3093 
Q 1141 3584 1784 3584 
Q 2172 3584 2450 3431 
Q 2728 3278 2906 2969 
L 2906 3500 
L 3481 3500 
L 3481 434 
z
" transform="scale(0.015625)"/>
     </defs>
     <use xlink:href="#DejaVuSans-54"/>
     <use xlink:href="#DejaVuSans-68" transform="translate(61.083984 0)"/>
     <use xlink:href="#DejaVuSans-65" transform="translate(124.462891 0)"/>
     <use xlink:href="#DejaVuSans-20" transform="translate(185.986328 0)"/>
     <use xlink:href="#DejaVuSans-75" transform="translate(217.773438 0)"/>
     <use xlink:href="#DejaVuSans-6e" transform="translate(281.152344 0)"/>
     <use xlink:href="#DejaVuSans-73" transform="translate(344.53125 0)"/>
     <use xlink:href="#DejaVuSans-65" transform="translate(396.630859 0)"/>
     <use xlink:href="#DejaVuSans-65" transform="translate(458.154297 0)"/>
     <use xlink:href="#DejaVuSans-6e" transform="translate(519.677734 0)"/>
     <use xlink:href="#DejaVuSans-20" transform="translate(583.056641 0)"/>
     <use xlink:href="#DejaVuSans-63" transform="translate(614.84375 0)"/>
     <use xlink:href="#DejaVuSans-69" transform="translate(669.824219 0)"/>
     <use xlink:href="#DejaVuSans-74" transform="translate(697.607422 0)"/>
     <use xlink:href="#DejaVuSans-79" transform="translate(736.816406 0)"/>
     <use xlink:href="#DejaVuSans-20" transform="translate(795.996094 0)"/>
     <use xlink:href="#DejaVuSans-73" transform="translate(827.783203 0)"/>
     <use xlink:href="#DejaVuSans-74" transform="translate(879.882812 0)"/>
     <use xlink:href="#DejaVuSans-61" transform="translate(919.091797 0)"/>
     <use xlink:href="#DejaVuSans-79" transform="translate(980.371094 0)"/>
     <use xlink:href="#DejaVuSans-73" transform="translate(1039.550781 0)"/>
     <use xlink:href="#DejaVuSans-20" transform="translate(1091.650391 0)"/>
     <use xlink:href="#DejaVuSans-6f" transform="translate(1123.4375 0)"/>
     <use xlink:href="#DejaVuSans-75" transform="translate(1184.619141 0)"/>
     <use xlink:href="#DejaVuSans-74" transform="translate(1247.998047 0)"/>
     <use xlink:href="#DejaVuSans-73" transform="translate(1287.207031 0)"/>
     <use xlink:href="#DejaVuSans-69" transform="translate(1339.306641 0)"/>
     <use xlink:href="#DejaVuSans-64" transform="translate(1367.089844 0)"/>
     <use xlink:href="#DejaVuSans-65" transform="translate(1430.566406 0)"/>
     <use xlink:href="#DejaVuSans-20" transform="translate(1492.089844 0)"/>
     <use xlink:href="#DejaVuSans-70" transform="translate(1523.876953 0)"/>
     <use xlink:href="#DejaVuSans-72" transform="translate(1587.353516 0)"/>
     <use xlink:href="#DejaVuSans-65" transform="translate(1626.216797 0)"/>
     <use xlink:href="#DejaVuSans-70" transform="translate(1687.740234 0)"/>
     <use xlink:href="#DejaVuSans-72" transform="translate(1751.216797 0)"/>
     <use xlink:href="#DejaVuSans-6f" transform="translate(1790.080078 0)"/>
     <use xlink:href="#DejaVuSans-63" transform="translate(1851.261719 0)"/>
     <use xlink:href="#DejaVuSans-65" transform="translate(1906.242188 0)"/>
     <use xlink:href="#DejaVuSans-73" transform="translate(1967.765625 0)"/>
     <use xlink:href="#DejaVuSans-73" transform="translate(2019.865234 0)"/>
     <use xlink:href="#DejaVuSans-2c" transform="translate(2071.964844 0)"/>
     <use xlink:href="#DejaVuSans-20" transform="translate(2103.751953 0)"/>
     <use xlink:href="#DejaVuSans-74" transform="translate(2135.539062 0)"/>
     <use xlink:href="#DejaVuSans-75" transform="translate(2174.748047 0)"/>
     <use xlink:href="#DejaVuSans-6e" transform="translate(2238.126953 0)"/>
     <use xlink:href="#DejaVuSans-69" transform="translate(2301.505859 0)"/>
     <use xlink:href="#DejaVuSans-6e" transform="translate(2329.289062 0)"/>
     <use xlink:href="#DejaVuSans-67" transform="translate(2392.667969 0)"/>
     <use xlink:href="#DejaVuSans-2c" transform="translate(2456.144531 0)"/>
    </g>
    <!-- and model fitting until evaluation. -->
    <g style="fill: #5c696d" transform="translate(382.5108 222.75072) scale(0.112 -0.112)">
     <use xlink:href="#DejaVuSans-61"/>
     <use xlink:href="#DejaVuSans-6e" transform="translate(61.279297 0)"/>
     <use xlink:href="#DejaVuSans-64" transform="translate(124.658203 0)"/>
     <use xlink:href="#DejaVuSans-20" transform="translate(188.134766 0)"/>
     <use xlink:href="#DejaVuSans-6d" transform="translate(219.921875 0)"/>
     <use xlink:href="#DejaVuSans-6f" transform="translate(317.333984 0)"/>
     <use xlink:href="#DejaVuSans-64" transform="translate(378.515625 0)"/>
     <use xlink:href="#DejaVuSans-65" transform="translate(441.992188 0)"/>
     <use xlink:href="#DejaVuSans-6c" transform="translate(503.515625 0)"/>
     <use xlink:href="#DejaVuSans-20" transform="translate(531.298828 0)"/>
     <use xlink:href="#DejaVuSans-66" transform="translate(563.085938 0)"/>
     <use xlink:href="#DejaVuSans-69" transform="translate(598.291016 0)"/>
     <use xlink:href="#DejaVuSans-74" transform="translate(626.074219 0)"/>
     <use xlink:href="#DejaVuSans-74" transform="translate(665.283203 0)"/>
     <use xlink:href="#DejaVuSans-69" transform="translate(704.492188 0)"/>
     <use xlink:href="#DejaVuSans-6e" transform="translate(732.275391 0)"/>
     <use xlink:href="#DejaVuSans-67" transform="translate(795.654297 0)"/>
     <use xlink:href="#DejaVuSans-20" transform="translate(859.130859 0)"/>
     <use xlink:href="#DejaVuSans-75" transform="translate(890.917969 0)"/>
     <use xlink:href="#DejaVuSans-6e" transform="translate(954.296875 0)"/>
     <use xlink:href="#DejaVuSans-74" transform="translate(1017.675781 0)"/>
     <use xlink:href="#DejaVuSans-69" transform="translate(1056.884766 0)"/>
     <use xlink:href="#DejaVuSans-6c" transform="translate(1084.667969 0)"/>
     <use xlink:href="#DejaVuSans-20" transform="translate(1112.451172 0)"/>
     <use xlink:href="#DejaVuSans-65" transform="translate(1144.238281 0)"/>
     <use xlink:href="#DejaVuSans-76" transform="translate(1205.761719 0)"/>
     <use xlink:href="#DejaVuSans-61" transform="translate(1264.941406 0)"/>
     <use xlink:href="#DejaVuSans-6c" transform="translate(1326.220703 0)"/>
     <use xlink:href="#DejaVuSans-75" transform="translate(1354.003906 0)"/>
     <use xlink:href="#DejaVuSans-61" transform="translate(1417.382812 0)"/>
     <use xlink:href="#DejaVuSans-74" transform="translate(1478.662109 0)"/>
     <use xlink:href="#DejaVuSans-69" transform="translate(1517.871094 0)"/>
     <use xlink:href="#DejaVuSans-6f" transform="translate(1545.654297 0)"/>
     <use xlink:href="#DejaVuSans-6e" transform="translate(1606.835938 0)"/>
     <use xlink:href="#DejaVuSans-2e" transform="translate(1670.214844 0)"/>
    </g>
   </g>
  </g>
 </g>
 <defs>
  <clipPath id="p1333918ac1">
   <rect x="7.2" y="7.2" width="658.44" height="266.112"/>
  </clipPath>
 </defs>
</svg>
